{
	"asset":{
		"generator":"Khronos glTF Blender I/O v5.1.20",
		"version":"2.0"
	},
	"scene":0,
	"scenes":[
		{
			"name":"Scene",
			"nodes":[
				0
			]
		}
	],
	"nodes":[
		{
			"mesh":0,
			"name":"cheese_box"
		}
	],
	"materials":[
		{
			"doubleSided":true,
			"name":"CheeseBox_01",
			"normalTexture":{
				"index":0
			},
			"pbrMetallicRoughness":{
				"baseColorTexture":{
					"index":1
				},
				"metallicRoughnessTexture":{
					"index":2
				}
			}
		}
	],
	"meshes":[
		{
			"name":"Plane.002",
			"primitives":[
				{
					"attributes":{
						"POSITION":0,
						"NORMAL":1,
						"TEXCOORD_0":2
					},
					"indices":3,
					"material":0
				}
			]
		}
	],
	"textures":[
		{
			"sampler":0,
			"source":0
		},
		{
			"sampler":0,
			"source":1
		},
		{
			"sampler":0,
			"source":2
		}
	],
	"images":[
		{
			"mimeType":"image/jpeg",
			"name":"CheeseBox_01_nor_gl",
			"uri":"CheeseBox_01_nor_gl.jpg"
		},
		{
			"mimeType":"image/jpeg",
			"name":"CheeseBox_01_diff_1k",
			"uri":"CheeseBox_01_diff_1k.jpg"
		},
		{
			"mimeType":"image/jpeg",
			"name":"CheeseBox_01_metallic-CheeseBox_01_roughness",
			"uri":"CheeseBox_01_metallic-CheeseBox_01_roughness.jpg"
		}
	],
	"accessors":[
		{
			"bufferView":0,
			"componentType":5126,
			"count":833,
			"max":[
				0.12019778788089752,
				0.09268356114625931,
				0.06779030710458755
			],
			"min":[
				-0.12019778788089752,
				0,
				-0.06779030710458755
			],
			"type":"VEC3"
		},
		{
			"bufferView":1,
			"componentType":5126,
			"count":833,
			"type":"VEC3"
		},
		{
			"bufferView":2,
			"componentType":5126,
			"count":833,
			"type":"VEC2"
		},
		{
			"bufferView":3,
			"componentType":5123,
			"count":2652,
			"type":"SCALAR"
		}
	],
	"bufferViews":[
		{
			"buffer":0,
			"byteLength":9996,
			"byteOffset":0,
			"target":34962
		},
		{
			"buffer":0,
			"byteLength":9996,
			"byteOffset":9996,
			"target":34962
		},
		{
			"buffer":0,
			"byteLength":6664,
			"byteOffset":19992,
			"target":34962
		},
		{
			"buffer":0,
			"byteLength":5304,
			"byteOffset":26656,
			"target":34963
		}
	],
	"samplers":[
		{
			"magFilter":9729,
			"minFilter":9987
		}
	],
	"buffers":[
		{
			"byteLength":31960,
			"uri":"cheese_box.bin"
		}
	]
}
