{
	"asset":{
		"generator":"Khronos glTF Blender I/O v5.1.20",
		"version":"2.0"
	},
	"extensionsUsed":[
		"KHR_materials_transmission",
		"KHR_materials_sheen",
		"KHR_materials_ior"
	],
	"scene":0,
	"scenes":[
		{
			"name":"Scene",
			"nodes":[
				0
			]
		}
	],
	"nodes":[
		{
			"mesh":0,
			"name":"lantern"
		}
	],
	"materials":[
		{
			"doubleSided":true,
			"extensions":{
				"KHR_materials_transmission":{
					"transmissionFactor":1
				},
				"KHR_materials_sheen":{
					"sheenColorFactor":[
						1.0,
						1.0,
						1.0
					],
					"sheenRoughnessFactor":0.5
				},
				"KHR_materials_ior":{
					"ior":1.4500000476837158
				}
			},
			"name":"Lantern_01_brass",
			"normalTexture":{
				"index":0
			},
			"pbrMetallicRoughness":{
				"baseColorTexture":{
					"index":1
				},
				"metallicRoughnessTexture":{
					"index":2
				}
			}
		},
		{
			"alphaMode":"BLEND",
			"doubleSided":true,
			"extensions":{
				"KHR_materials_sheen":{
					"sheenColorFactor":[
						1.0,
						1.0,
						1.0
					],
					"sheenRoughnessFactor":0.5
				}
			},
			"name":"Lantern_01_glass",
			"normalTexture":{
				"index":3
			},
			"pbrMetallicRoughness":{
				"baseColorTexture":{
					"index":4
				},
				"metallicRoughnessTexture":{
					"index":5
				}
			}
		}
	],
	"meshes":[
		{
			"name":"Mesh.001",
			"primitives":[
				{
					"attributes":{
						"POSITION":0,
						"NORMAL":1,
						"TEXCOORD_0":2
					},
					"indices":3,
					"material":0
				},
				{
					"attributes":{
						"POSITION":4,
						"NORMAL":5,
						"TEXCOORD_0":6
					},
					"indices":7,
					"material":1
				}
			]
		}
	],
	"textures":[
		{
			"sampler":0,
			"source":0
		},
		{
			"sampler":0,
			"source":1
		},
		{
			"sampler":0,
			"source":2
		},
		{
			"sampler":0,
			"source":0
		},
		{
			"sampler":0,
			"source":3
		},
		{
			"sampler":0,
			"source":2
		}
	],
	"images":[
		{
			"mimeType":"image/jpeg",
			"name":"Lantern_01_brass_nor_gl_1k",
			"uri":"Lantern_01_brass_nor_gl_1k.jpg"
		},
		{
			"mimeType":"image/jpeg",
			"name":"Lantern_01_brass_diff_1k",
			"uri":"Lantern_01_brass_diff_1k.jpg"
		},
		{
			"mimeType":"image/jpeg",
			"name":"Lantern_01_brass_metallic-Lantern_01_brass_roughness",
			"uri":"Lantern_01_brass_metallic-Lantern_01_brass_roughness.jpg"
		},
		{
			"mimeType":"image/png",
			"name":"Lantern_01_brass_diff-Lantern_01_brass_opacity",
			"uri":"Lantern_01_brass_diff-Lantern_01_brass_opacity.png"
		}
	],
	"accessors":[
		{
			"bufferView":0,
			"componentType":5126,
			"count":18953,
			"max":[
				0.061042845249176025,
				0.2942466139793396,
				0.048591554164886475
			],
			"min":[
				-0.061042845249176025,
				0,
				-0.048591554164886475
			],
			"type":"VEC3"
		},
		{
			"bufferView":1,
			"componentType":5126,
			"count":18953,
			"type":"VEC3"
		},
		{
			"bufferView":2,
			"componentType":5126,
			"count":18953,
			"type":"VEC2"
		},
		{
			"bufferView":3,
			"componentType":5123,
			"count":92490,
			"type":"SCALAR"
		},
		{
			"bufferView":4,
			"componentType":5126,
			"count":1716,
			"max":[
				0.035274118185043335,
				0.12966422736644745,
				0.03525782749056816
			],
			"min":[
				-0.03527417778968811,
				0.06138340383768082,
				-0.03529047593474388
			],
			"type":"VEC3"
		},
		{
			"bufferView":5,
			"componentType":5126,
			"count":1716,
			"type":"VEC3"
		},
		{
			"bufferView":6,
			"componentType":5126,
			"count":1716,
			"type":"VEC2"
		},
		{
			"bufferView":7,
			"componentType":5123,
			"count":9216,
			"type":"SCALAR"
		}
	],
	"bufferViews":[
		{
			"buffer":0,
			"byteLength":227436,
			"byteOffset":0,
			"target":34962
		},
		{
			"buffer":0,
			"byteLength":227436,
			"byteOffset":227436,
			"target":34962
		},
		{
			"buffer":0,
			"byteLength":151624,
			"byteOffset":454872,
			"target":34962
		},
		{
			"buffer":0,
			"byteLength":184980,
			"byteOffset":606496,
			"target":34963
		},
		{
			"buffer":0,
			"byteLength":20592,
			"byteOffset":791476,
			"target":34962
		},
		{
			"buffer":0,
			"byteLength":20592,
			"byteOffset":812068,
			"target":34962
		},
		{
			"buffer":0,
			"byteLength":13728,
			"byteOffset":832660,
			"target":34962
		},
		{
			"buffer":0,
			"byteLength":18432,
			"byteOffset":846388,
			"target":34963
		}
	],
	"samplers":[
		{
			"magFilter":9729,
			"minFilter":9987
		}
	],
	"buffers":[
		{
			"byteLength":864820,
			"uri":"lantern.bin"
		}
	]
}
