{
	"asset":{
		"generator":"Khronos glTF Blender I/O v5.1.20",
		"version":"2.0"
	},
	"scene":0,
	"scenes":[
		{
			"name":"Scene",
			"nodes":[
				0
			]
		}
	],
	"nodes":[
		{
			"mesh":0,
			"name":"moss_rock_03"
		}
	],
	"materials":[
		{
			"doubleSided":true,
			"name":"rock_moss_set_01",
			"normalTexture":{
				"index":0
			},
			"pbrMetallicRoughness":{
				"baseColorTexture":{
					"index":1
				},
				"metallicFactor":0,
				"metallicRoughnessTexture":{
					"index":2
				}
			}
		}
	],
	"meshes":[
		{
			"name":"modelShape.001",
			"primitives":[
				{
					"attributes":{
						"POSITION":0,
						"NORMAL":1,
						"TEXCOORD_0":2
					},
					"indices":3,
					"material":0
				}
			]
		}
	],
	"textures":[
		{
			"sampler":0,
			"source":0
		},
		{
			"sampler":0,
			"source":1
		},
		{
			"sampler":0,
			"source":2
		}
	],
	"images":[
		{
			"mimeType":"image/jpeg",
			"name":"rock_moss_set_01_nor_gl",
			"uri":"rock_moss_set_01_nor_gl.jpg"
		},
		{
			"mimeType":"image/jpeg",
			"name":"rock_moss_set_01_diff_1k",
			"uri":"rock_moss_set_01_diff_1k.jpg"
		},
		{
			"mimeType":"image/jpeg",
			"name":"rock_moss_set_01_rough_1k",
			"uri":"rock_moss_set_01_rough_1k.jpg"
		}
	],
	"accessors":[
		{
			"bufferView":0,
			"componentType":5126,
			"count":2741,
			"max":[
				1.0542912483215332,
				1.0996944904327393,
				1.039792776107788
			],
			"min":[
				-1.0542912483215332,
				0,
				-1.039792776107788
			],
			"type":"VEC3"
		},
		{
			"bufferView":1,
			"componentType":5126,
			"count":2741,
			"type":"VEC3"
		},
		{
			"bufferView":2,
			"componentType":5126,
			"count":2741,
			"type":"VEC2"
		},
		{
			"bufferView":3,
			"componentType":5123,
			"count":15000,
			"type":"SCALAR"
		}
	],
	"bufferViews":[
		{
			"buffer":0,
			"byteLength":32892,
			"byteOffset":0,
			"target":34962
		},
		{
			"buffer":0,
			"byteLength":32892,
			"byteOffset":32892,
			"target":34962
		},
		{
			"buffer":0,
			"byteLength":21928,
			"byteOffset":65784,
			"target":34962
		},
		{
			"buffer":0,
			"byteLength":30000,
			"byteOffset":87712,
			"target":34963
		}
	],
	"samplers":[
		{
			"magFilter":9729,
			"minFilter":9987
		}
	],
	"buffers":[
		{
			"byteLength":117712,
			"uri":"moss_rock_03.bin"
		}
	]
}
