# https://github.com/mikedh/trimesh
mtllib material.mtl

o geometry_0
usemtl material_0
v -300.00000000 0.00000000 -140.00000000
v -300.00000000 0.00000000 140.00000000
v -300.00000000 1100.00000000 -140.00000000
v -300.00000000 1100.00000000 140.00000000
v 300.00000000 0.00000000 -140.00000000
v 300.00000000 0.00000000 140.00000000
v 300.00000000 1100.00000000 -140.00000000
v 300.00000000 1100.00000000 140.00000000
f 2 4 1
f 5 2 1
f 1 4 3
f 3 5 1
f 2 8 4
f 6 2 5
f 6 8 2
f 4 8 3
f 7 5 3
f 3 8 7
f 7 6 5
f 8 6 7

o geometry_1
usemtl material_1
v -255.00000000 82.50000000 139.50000000
v -255.00000000 82.50000000 164.50000000
v -255.00000000 1017.50000000 139.50000000
v -255.00000000 1017.50000000 164.50000000
v 255.00000000 82.50000000 139.50000000
v 255.00000000 82.50000000 164.50000000
v 255.00000000 1017.50000000 139.50000000
v 255.00000000 1017.50000000 164.50000000
f 10 12 9
f 13 10 9
f 9 12 11
f 11 13 9
f 10 16 12
f 14 10 13
f 14 16 10
f 12 16 11
f 15 13 11
f 11 16 15
f 15 14 13
f 16 14 15

o geometry_2
usemtl material_2
v -216.00000000 192.50000000 156.00000000
v -216.00000000 192.50000000 174.00000000
v -216.00000000 907.50000000 156.00000000
v -216.00000000 907.50000000 174.00000000
v -84.00000000 192.50000000 156.00000000
v -84.00000000 192.50000000 174.00000000
v -84.00000000 907.50000000 156.00000000
v -84.00000000 907.50000000 174.00000000
f 18 20 17
f 21 18 17
f 17 20 19
f 19 21 17
f 18 24 20
f 22 18 21
f 22 24 18
f 20 24 19
f 23 21 19
f 19 24 23
f 23 22 21
f 24 22 23

o geometry_3
usemtl material_3
v -202.80000000 187.50000000 157.00000000
v -202.80000000 187.50000000 179.00000000
v -202.80000000 197.50000000 157.00000000
v -202.80000000 197.50000000 179.00000000
v -97.20000000 187.50000000 157.00000000
v -97.20000000 187.50000000 179.00000000
v -97.20000000 197.50000000 157.00000000
v -97.20000000 197.50000000 179.00000000
f 26 28 25
f 29 26 25
f 25 28 27
f 27 29 25
f 26 32 28
f 30 26 29
f 30 32 26
f 28 32 27
f 31 29 27
f 27 32 31
f 31 30 29
f 32 30 31

o geometry_4
usemtl material_4
v 102.00000000 905.00000000 165.50000000
v 102.00000000 905.00000000 190.50000000
v 102.00000000 965.00000000 165.50000000
v 102.00000000 965.00000000 190.50000000
v 162.00000000 905.00000000 165.50000000
v 162.00000000 905.00000000 190.50000000
v 162.00000000 965.00000000 165.50000000
v 162.00000000 965.00000000 190.50000000
f 34 36 33
f 37 34 33
f 33 36 35
f 35 37 33
f 34 40 36
f 38 34 37
f 38 40 34
f 36 40 35
f 39 37 35
f 35 40 39
f 39 38 37
f 40 38 39

