# https://github.com/mikedh/trimesh
mtllib material.mtl

o geometry_0
usemtl material_0
v -20.00000000 0.00000000 -11.00000000
v -20.00000000 0.00000000 11.00000000
v -20.00000000 70.00000000 -11.00000000
v -20.00000000 70.00000000 11.00000000
v 20.00000000 0.00000000 -11.00000000
v 20.00000000 0.00000000 11.00000000
v 20.00000000 70.00000000 -11.00000000
v 20.00000000 70.00000000 11.00000000
f 2 4 1
f 5 2 1
f 1 4 3
f 3 5 1
f 2 8 4
f 6 2 5
f 6 8 2
f 4 8 3
f 7 5 3
f 3 8 7
f 7 6 5
f 8 6 7

o geometry_1
usemtl material_1
v -17.00000000 5.25000000 10.95000000
v -17.00000000 5.25000000 13.45000000
v -17.00000000 64.75000000 10.95000000
v -17.00000000 64.75000000 13.45000000
v 17.00000000 5.25000000 10.95000000
v 17.00000000 5.25000000 13.45000000
v 17.00000000 64.75000000 10.95000000
v 17.00000000 64.75000000 13.45000000
f 10 12 9
f 13 10 9
f 9 12 11
f 11 13 9
f 10 16 12
f 14 10 13
f 14 16 10
f 12 16 11
f 15 13 11
f 11 16 15
f 15 14 13
f 16 14 15

o geometry_2
usemtl material_2
v -14.40000000 12.25000000 12.60000000
v -14.40000000 12.25000000 14.40000000
v -14.40000000 57.75000000 12.60000000
v -14.40000000 57.75000000 14.40000000
v -5.60000000 12.25000000 12.60000000
v -5.60000000 12.25000000 14.40000000
v -5.60000000 57.75000000 12.60000000
v -5.60000000 57.75000000 14.40000000
f 18 20 17
f 21 18 17
f 17 20 19
f 19 21 17
f 18 24 20
f 22 18 21
f 22 24 18
f 20 24 19
f 23 21 19
f 19 24 23
f 23 22 21
f 24 22 23

o geometry_3
usemtl material_3
v -13.52000000 11.75000000 12.70000000
v -13.52000000 11.75000000 14.90000000
v -13.52000000 12.75000000 12.70000000
v -13.52000000 12.75000000 14.90000000
v -6.48000000 11.75000000 12.70000000
v -6.48000000 11.75000000 14.90000000
v -6.48000000 12.75000000 12.70000000
v -6.48000000 12.75000000 14.90000000
f 26 28 25
f 29 26 25
f 25 28 27
f 27 29 25
f 26 32 28
f 30 26 29
f 30 32 26
f 28 32 27
f 31 29 27
f 27 32 31
f 31 30 29
f 32 30 31

o geometry_4
usemtl material_4
v 5.80000000 56.50000000 13.55000000
v 5.80000000 56.50000000 16.05000000
v 5.80000000 62.50000000 13.55000000
v 5.80000000 62.50000000 16.05000000
v 11.80000000 56.50000000 13.55000000
v 11.80000000 56.50000000 16.05000000
v 11.80000000 62.50000000 13.55000000
v 11.80000000 62.50000000 16.05000000
f 34 36 33
f 37 34 33
f 33 36 35
f 35 37 33
f 34 40 36
f 38 34 37
f 38 40 34
f 36 40 35
f 39 37 35
f 35 40 39
f 39 38 37
f 40 38 39

