# https://github.com/mikedh/trimesh
mtllib material.mtl

o geometry_0
usemtl material_0
v -400.00000000 720.00000000 -400.00000000
v -370.00000000 720.00000000 -400.00000000
v -370.00000000 0.00000000 -400.00000000
v -400.00000000 0.00000000 -400.00000000
v -378.78679656 720.00000000 -378.78679656
v -378.78679656 0.00000000 -378.78679656
v -400.00000000 720.00000000 -370.00000000
v -400.00000000 0.00000000 -370.00000000
v -421.21320344 720.00000000 -378.78679656
v -421.21320344 0.00000000 -378.78679656
v -430.00000000 720.00000000 -400.00000000
v -430.00000000 0.00000000 -400.00000000
v -421.21320344 720.00000000 -421.21320344
v -421.21320344 0.00000000 -421.21320344
v -400.00000000 720.00000000 -430.00000000
v -400.00000000 0.00000000 -430.00000000
v -378.78679656 720.00000000 -421.21320344
v -378.78679656 0.00000000 -421.21320344
f 2 1 5
f 2 5 3
f 3 5 6
f 3 6 4
f 5 1 7
f 5 7 6
f 6 7 8
f 6 8 4
f 7 1 9
f 7 9 8
f 8 9 10
f 8 10 4
f 9 1 11
f 9 11 10
f 10 11 12
f 10 12 4
f 11 1 13
f 11 13 12
f 12 13 14
f 12 14 4
f 13 1 15
f 13 15 14
f 14 15 16
f 14 16 4
f 15 1 17
f 15 17 16
f 16 17 18
f 16 18 4
f 17 1 2
f 17 2 18
f 18 2 3
f 18 3 4

o geometry_1
usemtl material_0
v 400.00000000 720.00000000 -400.00000000
v 430.00000000 720.00000000 -400.00000000
v 430.00000000 0.00000000 -400.00000000
v 400.00000000 0.00000000 -400.00000000
v 421.21320344 720.00000000 -378.78679656
v 421.21320344 0.00000000 -378.78679656
v 400.00000000 720.00000000 -370.00000000
v 400.00000000 0.00000000 -370.00000000
v 378.78679656 720.00000000 -378.78679656
v 378.78679656 0.00000000 -378.78679656
v 370.00000000 720.00000000 -400.00000000
v 370.00000000 0.00000000 -400.00000000
v 378.78679656 720.00000000 -421.21320344
v 378.78679656 0.00000000 -421.21320344
v 400.00000000 720.00000000 -430.00000000
v 400.00000000 0.00000000 -430.00000000
v 421.21320344 720.00000000 -421.21320344
v 421.21320344 0.00000000 -421.21320344
f 20 19 23
f 20 23 21
f 21 23 24
f 21 24 22
f 23 19 25
f 23 25 24
f 24 25 26
f 24 26 22
f 25 19 27
f 25 27 26
f 26 27 28
f 26 28 22
f 27 19 29
f 27 29 28
f 28 29 30
f 28 30 22
f 29 19 31
f 29 31 30
f 30 31 32
f 30 32 22
f 31 19 33
f 31 33 32
f 32 33 34
f 32 34 22
f 33 19 35
f 33 35 34
f 34 35 36
f 34 36 22
f 35 19 20
f 35 20 36
f 36 20 21
f 36 21 22

o geometry_2
usemtl material_0
v -400.00000000 720.00000000 400.00000000
v -370.00000000 720.00000000 400.00000000
v -370.00000000 0.00000000 400.00000000
v -400.00000000 0.00000000 400.00000000
v -378.78679656 720.00000000 421.21320344
v -378.78679656 0.00000000 421.21320344
v -400.00000000 720.00000000 430.00000000
v -400.00000000 0.00000000 430.00000000
v -421.21320344 720.00000000 421.21320344
v -421.21320344 0.00000000 421.21320344
v -430.00000000 720.00000000 400.00000000
v -430.00000000 0.00000000 400.00000000
v -421.21320344 720.00000000 378.78679656
v -421.21320344 0.00000000 378.78679656
v -400.00000000 720.00000000 370.00000000
v -400.00000000 0.00000000 370.00000000
v -378.78679656 720.00000000 378.78679656
v -378.78679656 0.00000000 378.78679656
f 38 37 41
f 38 41 39
f 39 41 42
f 39 42 40
f 41 37 43
f 41 43 42
f 42 43 44
f 42 44 40
f 43 37 45
f 43 45 44
f 44 45 46
f 44 46 40
f 45 37 47
f 45 47 46
f 46 47 48
f 46 48 40
f 47 37 49
f 47 49 48
f 48 49 50
f 48 50 40
f 49 37 51
f 49 51 50
f 50 51 52
f 50 52 40
f 51 37 53
f 51 53 52
f 52 53 54
f 52 54 40
f 53 37 38
f 53 38 54
f 54 38 39
f 54 39 40

o geometry_3
usemtl material_0
v 400.00000000 720.00000000 400.00000000
v 430.00000000 720.00000000 400.00000000
v 430.00000000 0.00000000 400.00000000
v 400.00000000 0.00000000 400.00000000
v 421.21320344 720.00000000 421.21320344
v 421.21320344 0.00000000 421.21320344
v 400.00000000 720.00000000 430.00000000
v 400.00000000 0.00000000 430.00000000
v 378.78679656 720.00000000 421.21320344
v 378.78679656 0.00000000 421.21320344
v 370.00000000 720.00000000 400.00000000
v 370.00000000 0.00000000 400.00000000
v 378.78679656 720.00000000 378.78679656
v 378.78679656 0.00000000 378.78679656
v 400.00000000 720.00000000 370.00000000
v 400.00000000 0.00000000 370.00000000
v 421.21320344 720.00000000 378.78679656
v 421.21320344 0.00000000 378.78679656
f 56 55 59
f 56 59 57
f 57 59 60
f 57 60 58
f 59 55 61
f 59 61 60
f 60 61 62
f 60 62 58
f 61 55 63
f 61 63 62
f 62 63 64
f 62 64 58
f 63 55 65
f 63 65 64
f 64 65 66
f 64 66 58
f 65 55 67
f 65 67 66
f 66 67 68
f 66 68 58
f 67 55 69
f 67 69 68
f 68 69 70
f 68 70 58
f 69 55 71
f 69 71 70
f 70 71 72
f 70 72 58
f 71 55 56
f 71 56 72
f 72 56 57
f 72 57 58

o geometry_4
usemtl material_1
v -420.00000000 695.00000000 -420.00000000
v -420.00000000 695.00000000 420.00000000
v -420.00000000 745.00000000 -420.00000000
v -420.00000000 745.00000000 420.00000000
v 420.00000000 695.00000000 -420.00000000
v 420.00000000 695.00000000 420.00000000
v 420.00000000 745.00000000 -420.00000000
v 420.00000000 745.00000000 420.00000000
f 74 76 73
f 77 74 73
f 73 76 75
f 75 77 73
f 74 80 76
f 78 74 77
f 78 80 74
f 76 80 75
f 79 77 75
f 75 80 79
f 79 78 77
f 80 78 79

o geometry_5
usemtl material_1
v -450.00000000 720.00000000 -445.00000000
v -450.00000000 720.00000000 -415.00000000
v -450.00000000 850.00000000 -445.00000000
v -450.00000000 850.00000000 -415.00000000
v 450.00000000 720.00000000 -445.00000000
v 450.00000000 720.00000000 -415.00000000
v 450.00000000 850.00000000 -445.00000000
v 450.00000000 850.00000000 -415.00000000
f 82 84 81
f 85 82 81
f 81 84 83
f 83 85 81
f 82 88 84
f 86 82 85
f 86 88 82
f 84 88 83
f 87 85 83
f 83 88 87
f 87 86 85
f 88 86 87

o geometry_6
usemtl material_1
v -450.00000000 720.00000000 415.00000000
v -450.00000000 720.00000000 445.00000000
v -450.00000000 850.00000000 415.00000000
v -450.00000000 850.00000000 445.00000000
v 450.00000000 720.00000000 415.00000000
v 450.00000000 720.00000000 445.00000000
v 450.00000000 850.00000000 415.00000000
v 450.00000000 850.00000000 445.00000000
f 90 92 89
f 93 90 89
f 89 92 91
f 91 93 89
f 90 96 92
f 94 90 93
f 94 96 90
f 92 96 91
f 95 93 91
f 91 96 95
f 95 94 93
f 96 94 95

o geometry_7
usemtl material_1
v -445.00000000 720.00000000 -450.00000000
v -445.00000000 720.00000000 450.00000000
v -445.00000000 850.00000000 -450.00000000
v -445.00000000 850.00000000 450.00000000
v -415.00000000 720.00000000 -450.00000000
v -415.00000000 720.00000000 450.00000000
v -415.00000000 850.00000000 -450.00000000
v -415.00000000 850.00000000 450.00000000
f 98 100 97
f 101 98 97
f 97 100 99
f 99 101 97
f 98 104 100
f 102 98 101
f 102 104 98
f 100 104 99
f 103 101 99
f 99 104 103
f 103 102 101
f 104 102 103

o geometry_8
usemtl material_1
v 415.00000000 720.00000000 -450.00000000
v 415.00000000 720.00000000 450.00000000
v 415.00000000 850.00000000 -450.00000000
v 415.00000000 850.00000000 450.00000000
v 445.00000000 720.00000000 -450.00000000
v 445.00000000 720.00000000 450.00000000
v 445.00000000 850.00000000 -450.00000000
v 445.00000000 850.00000000 450.00000000
f 106 108 105
f 109 106 105
f 105 108 107
f 107 109 105
f 106 112 108
f 110 106 109
f 110 112 106
f 108 112 107
f 111 109 107
f 107 112 111
f 111 110 109
f 112 110 111

