# https://github.com/mikedh/trimesh
mtllib material.mtl

o geometry_0
usemtl material_0
v -35.00000000 0.00000000 -4.00000000
v -35.00000000 0.00000000 4.00000000
v -35.00000000 90.00000000 -4.00000000
v -35.00000000 90.00000000 4.00000000
v 35.00000000 0.00000000 -4.00000000
v 35.00000000 0.00000000 4.00000000
v 35.00000000 90.00000000 -4.00000000
v 35.00000000 90.00000000 4.00000000
f 2 4 1
f 5 2 1
f 1 4 3
f 3 5 1
f 2 8 4
f 6 2 5
f 6 8 2
f 4 8 3
f 7 5 3
f 3 8 7
f 7 6 5
f 8 6 7

o geometry_1
usemtl material_1
v -28.00000000 27.45000000 -6.25000000
v -28.00000000 27.45000000 -5.75000000
v -28.00000000 76.95000000 -6.25000000
v -28.00000000 76.95000000 -5.75000000
v 28.00000000 27.45000000 -6.25000000
v 28.00000000 27.45000000 -5.75000000
v 28.00000000 76.95000000 -6.25000000
v 28.00000000 76.95000000 -5.75000000
f 10 12 9
f 13 10 9
f 9 12 11
f 11 13 9
f 10 16 12
f 14 10 13
f 14 16 10
f 12 16 11
f 15 13 11
f 11 16 15
f 15 14 13
f 16 14 15

o geometry_2
usemtl material_2
v -8.00000000 18.00000000 -15.20000000
v -7.66192093 18.00000000 -15.15139157
v -7.35123102 18.00000000 -15.00950424
v -7.09310051 18.00000000 -14.78583288
v -6.90844161 18.00000000 -14.49849802
v -6.81221427 18.00000000 -14.17077781
v -6.81221427 18.00000000 -13.82922219
v -6.90844161 18.00000000 -13.50150198
v -7.09310051 18.00000000 -13.21416712
v -7.35123102 18.00000000 -12.99049576
v -7.66192093 18.00000000 -12.84860843
v -8.00000000 18.00000000 -12.80000000
v -7.68765567 18.12937726 -15.15139157
v -7.40061562 18.24827314 -15.00950424
v -7.16213412 18.34705541 -14.78583288
v -6.99153154 18.41772131 -14.49849802
v -6.90262907 18.45454592 -14.17077781
v -6.90262907 18.45454592 -13.82922219
v -6.99153154 18.41772131 -13.50150198
v -7.16213412 18.34705541 -13.21416712
v -7.40061562 18.24827314 -12.99049576
v -7.68765567 18.12937726 -12.84860843
v -7.76094200 18.23905800 -15.15139157
v -7.54125105 18.45874895 -15.00950424
v -7.35872522 18.64127478 -14.78583288
v -7.22815166 18.77184834 -14.49849802
v -7.16010866 18.83989134 -14.17077781
v -7.16010866 18.83989134 -13.82922219
v -7.22815166 18.77184834 -13.50150198
v -7.35872522 18.64127478 -13.21416712
v -7.54125105 18.45874895 -12.99049576
v -7.76094200 18.23905800 -12.84860843
v -7.87062274 18.31234433 -15.15139157
v -7.75172686 18.59938438 -15.00950424
v -7.65294459 18.83786588 -14.78583288
v -7.58227869 19.00846846 -14.49849802
v -7.54545408 19.09737093 -14.17077781
v -7.54545408 19.09737093 -13.82922219
v -7.58227869 19.00846846 -13.50150198
v -7.65294459 18.83786588 -13.21416712
v -7.75172686 18.59938438 -12.99049576
v -7.87062274 18.31234433 -12.84860843
v -8.00000000 18.33807907 -15.15139157
v -8.00000000 18.64876898 -15.00950424
v -8.00000000 18.90689949 -14.78583288
v -8.00000000 19.09155839 -14.49849802
v -8.00000000 19.18778573 -14.17077781
v -8.00000000 19.18778573 -13.82922219
v -8.00000000 19.09155839 -13.50150198
v -8.00000000 18.90689949 -13.21416712
v -8.00000000 18.64876898 -12.99049576
v -8.00000000 18.33807907 -12.84860843
v -8.12937726 18.31234433 -15.15139157
v -8.24827314 18.59938438 -15.00950424
v -8.34705541 18.83786588 -14.78583288
v -8.41772131 19.00846846 -14.49849802
v -8.45454592 19.09737093 -14.17077781
v -8.45454592 19.09737093 -13.82922219
v -8.41772131 19.00846846 -13.50150198
v -8.34705541 18.83786588 -13.21416712
v -8.24827314 18.59938438 -12.99049576
v -8.12937726 18.31234433 -12.84860843
v -8.23905800 18.23905800 -15.15139157
v -8.45874895 18.45874895 -15.00950424
v -8.64127478 18.64127478 -14.78583288
v -8.77184834 18.77184834 -14.49849802
v -8.83989134 18.83989134 -14.17077781
v -8.83989134 18.83989134 -13.82922219
v -8.77184834 18.77184834 -13.50150198
v -8.64127478 18.64127478 -13.21416712
v -8.45874895 18.45874895 -12.99049576
v -8.23905800 18.23905800 -12.84860843
v -8.31234433 18.12937726 -15.15139157
v -8.59938438 18.24827314 -15.00950424
v -8.83786588 18.34705541 -14.78583288
v -9.00846846 18.41772131 -14.49849802
v -9.09737093 18.45454592 -14.17077781
v -9.09737093 18.45454592 -13.82922219
v -9.00846846 18.41772131 -13.50150198
v -8.83786588 18.34705541 -13.21416712
v -8.59938438 18.24827314 -12.99049576
v -8.31234433 18.12937726 -12.84860843
v -8.33807907 18.00000000 -15.15139157
v -8.64876898 18.00000000 -15.00950424
v -8.90689949 18.00000000 -14.78583288
v -9.09155839 18.00000000 -14.49849802
v -9.18778573 18.00000000 -14.17077781
v -9.18778573 18.00000000 -13.82922219
v -9.09155839 18.00000000 -13.50150198
v -8.90689949 18.00000000 -13.21416712
v -8.64876898 18.00000000 -12.99049576
v -8.33807907 18.00000000 -12.84860843
v -8.31234433 17.87062274 -15.15139157
v -8.59938438 17.75172686 -15.00950424
v -8.83786588 17.65294459 -14.78583288
v -9.00846846 17.58227869 -14.49849802
v -9.09737093 17.54545408 -14.17077781
v -9.09737093 17.54545408 -13.82922219
v -9.00846846 17.58227869 -13.50150198
v -8.83786588 17.65294459 -13.21416712
v -8.59938438 17.75172686 -12.99049576
v -8.31234433 17.87062274 -12.84860843
v -8.23905800 17.76094200 -15.15139157
v -8.45874895 17.54125105 -15.00950424
v -8.64127478 17.35872522 -14.78583288
v -8.77184834 17.22815166 -14.49849802
v -8.83989134 17.16010866 -14.17077781
v -8.83989134 17.16010866 -13.82922219
v -8.77184834 17.22815166 -13.50150198
v -8.64127478 17.35872522 -13.21416712
v -8.45874895 17.54125105 -12.99049576
v -8.23905800 17.76094200 -12.84860843
v -8.12937726 17.68765567 -15.15139157
v -8.24827314 17.40061562 -15.00950424
v -8.34705541 17.16213412 -14.78583288
v -8.41772131 16.99153154 -14.49849802
v -8.45454592 16.90262907 -14.17077781
v -8.45454592 16.90262907 -13.82922219
v -8.41772131 16.99153154 -13.50150198
v -8.34705541 17.16213412 -13.21416712
v -8.24827314 17.40061562 -12.99049576
v -8.12937726 17.68765567 -12.84860843
v -8.00000000 17.66192093 -15.15139157
v -8.00000000 17.35123102 -15.00950424
v -8.00000000 17.09310051 -14.78583288
v -8.00000000 16.90844161 -14.49849802
v -8.00000000 16.81221427 -14.17077781
v -8.00000000 16.81221427 -13.82922219
v -8.00000000 16.90844161 -13.50150198
v -8.00000000 17.09310051 -13.21416712
v -8.00000000 17.35123102 -12.99049576
v -8.00000000 17.66192093 -12.84860843
v -7.87062274 17.68765567 -15.15139157
v -7.75172686 17.40061562 -15.00950424
v -7.65294459 17.16213412 -14.78583288
v -7.58227869 16.99153154 -14.49849802
v -7.54545408 16.90262907 -14.17077781
v -7.54545408 16.90262907 -13.82922219
v -7.58227869 16.99153154 -13.50150198
v -7.65294459 17.16213412 -13.21416712
v -7.75172686 17.40061562 -12.99049576
v -7.87062274 17.68765567 -12.84860843
v -7.76094200 17.76094200 -15.15139157
v -7.54125105 17.54125105 -15.00950424
v -7.35872522 17.35872522 -14.78583288
v -7.22815166 17.22815166 -14.49849802
v -7.16010866 17.16010866 -14.17077781
v -7.16010866 17.16010866 -13.82922219
v -7.22815166 17.22815166 -13.50150198
v -7.35872522 17.35872522 -13.21416712
v -7.54125105 17.54125105 -12.99049576
v -7.76094200 17.76094200 -12.84860843
v -7.68765567 17.87062274 -15.15139157
v -7.40061562 17.75172686 -15.00950424
v -7.16213412 17.65294459 -14.78583288
v -6.99153154 17.58227869 -14.49849802
v -6.90262907 17.54545408 -14.17077781
v -6.90262907 17.54545408 -13.82922219
v -6.99153154 17.58227869 -13.50150198
v -7.16213412 17.65294459 -13.21416712
v -7.40061562 17.75172686 -12.99049576
v -7.68765567 17.87062274 -12.84860843
f 18 17 29
f 18 29 19
f 19 29 30
f 19 30 20
f 20 30 31
f 20 31 21
f 21 31 32
f 21 32 22
f 22 32 33
f 22 33 23
f 23 33 34
f 23 34 24
f 24 34 35
f 24 35 25
f 25 35 36
f 25 36 26
f 26 36 37
f 26 37 27
f 27 37 38
f 27 38 28
f 29 17 39
f 29 39 30
f 30 39 40
f 30 40 31
f 31 40 41
f 31 41 32
f 32 41 42
f 32 42 33
f 33 42 43
f 33 43 34
f 34 43 44
f 34 44 35
f 35 44 45
f 35 45 36
f 36 45 46
f 36 46 37
f 37 46 47
f 37 47 38
f 38 47 48
f 38 48 28
f 39 17 49
f 39 49 40
f 40 49 50
f 40 50 41
f 41 50 51
f 41 51 42
f 42 51 52
f 42 52 43
f 43 52 53
f 43 53 44
f 44 53 54
f 44 54 45
f 45 54 55
f 45 55 46
f 46 55 56
f 46 56 47
f 47 56 57
f 47 57 48
f 48 57 58
f 48 58 28
f 49 17 59
f 49 59 50
f 50 59 60
f 50 60 51
f 51 60 61
f 51 61 52
f 52 61 62
f 52 62 53
f 53 62 63
f 53 63 54
f 54 63 64
f 54 64 55
f 55 64 65
f 55 65 56
f 56 65 66
f 56 66 57
f 57 66 67
f 57 67 58
f 58 67 68
f 58 68 28
f 59 17 69
f 59 69 60
f 60 69 70
f 60 70 61
f 61 70 71
f 61 71 62
f 62 71 72
f 62 72 63
f 63 72 73
f 63 73 64
f 64 73 74
f 64 74 65
f 65 74 75
f 65 75 66
f 66 75 76
f 66 76 67
f 67 76 77
f 67 77 68
f 68 77 78
f 68 78 28
f 69 17 79
f 69 79 70
f 70 79 80
f 70 80 71
f 71 80 81
f 71 81 72
f 72 81 82
f 72 82 73
f 73 82 83
f 73 83 74
f 74 83 84
f 74 84 75
f 75 84 85
f 75 85 76
f 76 85 86
f 76 86 77
f 77 86 87
f 77 87 78
f 78 87 88
f 78 88 28
f 79 17 89
f 79 89 80
f 80 89 90
f 80 90 81
f 81 90 91
f 81 91 82
f 82 91 92
f 82 92 83
f 83 92 93
f 83 93 84
f 84 93 94
f 84 94 85
f 85 94 95
f 85 95 86
f 86 95 96
f 86 96 87
f 87 96 97
f 87 97 88
f 88 97 98
f 88 98 28
f 89 17 99
f 89 99 90
f 90 99 100
f 90 100 91
f 91 100 101
f 91 101 92
f 92 101 102
f 92 102 93
f 93 102 103
f 93 103 94
f 94 103 104
f 94 104 95
f 95 104 105
f 95 105 96
f 96 105 106
f 96 106 97
f 97 106 107
f 97 107 98
f 98 107 108
f 98 108 28
f 99 17 109
f 99 109 100
f 100 109 110
f 100 110 101
f 101 110 111
f 101 111 102
f 102 111 112
f 102 112 103
f 103 112 113
f 103 113 104
f 104 113 114
f 104 114 105
f 105 114 115
f 105 115 106
f 106 115 116
f 106 116 107
f 107 116 117
f 107 117 108
f 108 117 118
f 108 118 28
f 109 17 119
f 109 119 110
f 110 119 120
f 110 120 111
f 111 120 121
f 111 121 112
f 112 121 122
f 112 122 113
f 113 122 123
f 113 123 114
f 114 123 124
f 114 124 115
f 115 124 125
f 115 125 116
f 116 125 126
f 116 126 117
f 117 126 127
f 117 127 118
f 118 127 128
f 118 128 28
f 119 17 129
f 119 129 120
f 120 129 130
f 120 130 121
f 121 130 131
f 121 131 122
f 122 131 132
f 122 132 123
f 123 132 133
f 123 133 124
f 124 133 134
f 124 134 125
f 125 134 135
f 125 135 126
f 126 135 136
f 126 136 127
f 127 136 137
f 127 137 128
f 128 137 138
f 128 138 28
f 129 17 139
f 129 139 130
f 130 139 140
f 130 140 131
f 131 140 141
f 131 141 132
f 132 141 142
f 132 142 133
f 133 142 143
f 133 143 134
f 134 143 144
f 134 144 135
f 135 144 145
f 135 145 136
f 136 145 146
f 136 146 137
f 137 146 147
f 137 147 138
f 138 147 148
f 138 148 28
f 139 17 149
f 139 149 140
f 140 149 150
f 140 150 141
f 141 150 151
f 141 151 142
f 142 151 152
f 142 152 143
f 143 152 153
f 143 153 144
f 144 153 154
f 144 154 145
f 145 154 155
f 145 155 146
f 146 155 156
f 146 156 147
f 147 156 157
f 147 157 148
f 148 157 158
f 148 158 28
f 149 17 159
f 149 159 150
f 150 159 160
f 150 160 151
f 151 160 161
f 151 161 152
f 152 161 162
f 152 162 153
f 153 162 163
f 153 163 154
f 154 163 164
f 154 164 155
f 155 164 165
f 155 165 156
f 156 165 166
f 156 166 157
f 157 166 167
f 157 167 158
f 158 167 168
f 158 168 28
f 159 17 169
f 159 169 160
f 160 169 170
f 160 170 161
f 161 170 171
f 161 171 162
f 162 171 172
f 162 172 163
f 163 172 173
f 163 173 164
f 164 173 174
f 164 174 165
f 165 174 175
f 165 175 166
f 166 175 176
f 166 176 167
f 167 176 177
f 167 177 168
f 168 177 178
f 168 178 28
f 169 17 18
f 169 18 170
f 170 18 19
f 170 19 171
f 171 19 20
f 171 20 172
f 172 20 21
f 172 21 173
f 173 21 22
f 173 22 174
f 174 22 23
f 174 23 175
f 175 23 24
f 175 24 176
f 176 24 25
f 176 25 177
f 177 25 26
f 177 26 178
f 178 26 27
f 178 27 28

o geometry_3
usemtl material_3
v 0.00000000 18.00000000 -15.20000000
v 0.33807907 18.00000000 -15.15139157
v 0.64876898 18.00000000 -15.00950424
v 0.90689949 18.00000000 -14.78583288
v 1.09155839 18.00000000 -14.49849802
v 1.18778573 18.00000000 -14.17077781
v 1.18778573 18.00000000 -13.82922219
v 1.09155839 18.00000000 -13.50150198
v 0.90689949 18.00000000 -13.21416712
v 0.64876898 18.00000000 -12.99049576
v 0.33807907 18.00000000 -12.84860843
v 0.00000000 18.00000000 -12.80000000
v 0.31234433 18.12937726 -15.15139157
v 0.59938438 18.24827314 -15.00950424
v 0.83786588 18.34705541 -14.78583288
v 1.00846846 18.41772131 -14.49849802
v 1.09737093 18.45454592 -14.17077781
v 1.09737093 18.45454592 -13.82922219
v 1.00846846 18.41772131 -13.50150198
v 0.83786588 18.34705541 -13.21416712
v 0.59938438 18.24827314 -12.99049576
v 0.31234433 18.12937726 -12.84860843
v 0.23905800 18.23905800 -15.15139157
v 0.45874895 18.45874895 -15.00950424
v 0.64127478 18.64127478 -14.78583288
v 0.77184834 18.77184834 -14.49849802
v 0.83989134 18.83989134 -14.17077781
v 0.83989134 18.83989134 -13.82922219
v 0.77184834 18.77184834 -13.50150198
v 0.64127478 18.64127478 -13.21416712
v 0.45874895 18.45874895 -12.99049576
v 0.23905800 18.23905800 -12.84860843
v 0.12937726 18.31234433 -15.15139157
v 0.24827314 18.59938438 -15.00950424
v 0.34705541 18.83786588 -14.78583288
v 0.41772131 19.00846846 -14.49849802
v 0.45454592 19.09737093 -14.17077781
v 0.45454592 19.09737093 -13.82922219
v 0.41772131 19.00846846 -13.50150198
v 0.34705541 18.83786588 -13.21416712
v 0.24827314 18.59938438 -12.99049576
v 0.12937726 18.31234433 -12.84860843
v 0.00000000 18.33807907 -15.15139157
v 0.00000000 18.64876898 -15.00950424
v 0.00000000 18.90689949 -14.78583288
v 0.00000000 19.09155839 -14.49849802
v 0.00000000 19.18778573 -14.17077781
v 0.00000000 19.18778573 -13.82922219
v 0.00000000 19.09155839 -13.50150198
v 0.00000000 18.90689949 -13.21416712
v 0.00000000 18.64876898 -12.99049576
v 0.00000000 18.33807907 -12.84860843
v -0.12937726 18.31234433 -15.15139157
v -0.24827314 18.59938438 -15.00950424
v -0.34705541 18.83786588 -14.78583288
v -0.41772131 19.00846846 -14.49849802
v -0.45454592 19.09737093 -14.17077781
v -0.45454592 19.09737093 -13.82922219
v -0.41772131 19.00846846 -13.50150198
v -0.34705541 18.83786588 -13.21416712
v -0.24827314 18.59938438 -12.99049576
v -0.12937726 18.31234433 -12.84860843
v -0.23905800 18.23905800 -15.15139157
v -0.45874895 18.45874895 -15.00950424
v -0.64127478 18.64127478 -14.78583288
v -0.77184834 18.77184834 -14.49849802
v -0.83989134 18.83989134 -14.17077781
v -0.83989134 18.83989134 -13.82922219
v -0.77184834 18.77184834 -13.50150198
v -0.64127478 18.64127478 -13.21416712
v -0.45874895 18.45874895 -12.99049576
v -0.23905800 18.23905800 -12.84860843
v -0.31234433 18.12937726 -15.15139157
v -0.59938438 18.24827314 -15.00950424
v -0.83786588 18.34705541 -14.78583288
v -1.00846846 18.41772131 -14.49849802
v -1.09737093 18.45454592 -14.17077781
v -1.09737093 18.45454592 -13.82922219
v -1.00846846 18.41772131 -13.50150198
v -0.83786588 18.34705541 -13.21416712
v -0.59938438 18.24827314 -12.99049576
v -0.31234433 18.12937726 -12.84860843
v -0.33807907 18.00000000 -15.15139157
v -0.64876898 18.00000000 -15.00950424
v -0.90689949 18.00000000 -14.78583288
v -1.09155839 18.00000000 -14.49849802
v -1.18778573 18.00000000 -14.17077781
v -1.18778573 18.00000000 -13.82922219
v -1.09155839 18.00000000 -13.50150198
v -0.90689949 18.00000000 -13.21416712
v -0.64876898 18.00000000 -12.99049576
v -0.33807907 18.00000000 -12.84860843
v -0.31234433 17.87062274 -15.15139157
v -0.59938438 17.75172686 -15.00950424
v -0.83786588 17.65294459 -14.78583288
v -1.00846846 17.58227869 -14.49849802
v -1.09737093 17.54545408 -14.17077781
v -1.09737093 17.54545408 -13.82922219
v -1.00846846 17.58227869 -13.50150198
v -0.83786588 17.65294459 -13.21416712
v -0.59938438 17.75172686 -12.99049576
v -0.31234433 17.87062274 -12.84860843
v -0.23905800 17.76094200 -15.15139157
v -0.45874895 17.54125105 -15.00950424
v -0.64127478 17.35872522 -14.78583288
v -0.77184834 17.22815166 -14.49849802
v -0.83989134 17.16010866 -14.17077781
v -0.83989134 17.16010866 -13.82922219
v -0.77184834 17.22815166 -13.50150198
v -0.64127478 17.35872522 -13.21416712
v -0.45874895 17.54125105 -12.99049576
v -0.23905800 17.76094200 -12.84860843
v -0.12937726 17.68765567 -15.15139157
v -0.24827314 17.40061562 -15.00950424
v -0.34705541 17.16213412 -14.78583288
v -0.41772131 16.99153154 -14.49849802
v -0.45454592 16.90262907 -14.17077781
v -0.45454592 16.90262907 -13.82922219
v -0.41772131 16.99153154 -13.50150198
v -0.34705541 17.16213412 -13.21416712
v -0.24827314 17.40061562 -12.99049576
v -0.12937726 17.68765567 -12.84860843
v -0.00000000 17.66192093 -15.15139157
v -0.00000000 17.35123102 -15.00950424
v -0.00000000 17.09310051 -14.78583288
v -0.00000000 16.90844161 -14.49849802
v -0.00000000 16.81221427 -14.17077781
v -0.00000000 16.81221427 -13.82922219
v -0.00000000 16.90844161 -13.50150198
v -0.00000000 17.09310051 -13.21416712
v -0.00000000 17.35123102 -12.99049576
v -0.00000000 17.66192093 -12.84860843
v 0.12937726 17.68765567 -15.15139157
v 0.24827314 17.40061562 -15.00950424
v 0.34705541 17.16213412 -14.78583288
v 0.41772131 16.99153154 -14.49849802
v 0.45454592 16.90262907 -14.17077781
v 0.45454592 16.90262907 -13.82922219
v 0.41772131 16.99153154 -13.50150198
v 0.34705541 17.16213412 -13.21416712
v 0.24827314 17.40061562 -12.99049576
v 0.12937726 17.68765567 -12.84860843
v 0.23905800 17.76094200 -15.15139157
v 0.45874895 17.54125105 -15.00950424
v 0.64127478 17.35872522 -14.78583288
v 0.77184834 17.22815166 -14.49849802
v 0.83989134 17.16010866 -14.17077781
v 0.83989134 17.16010866 -13.82922219
v 0.77184834 17.22815166 -13.50150198
v 0.64127478 17.35872522 -13.21416712
v 0.45874895 17.54125105 -12.99049576
v 0.23905800 17.76094200 -12.84860843
v 0.31234433 17.87062274 -15.15139157
v 0.59938438 17.75172686 -15.00950424
v 0.83786588 17.65294459 -14.78583288
v 1.00846846 17.58227869 -14.49849802
v 1.09737093 17.54545408 -14.17077781
v 1.09737093 17.54545408 -13.82922219
v 1.00846846 17.58227869 -13.50150198
v 0.83786588 17.65294459 -13.21416712
v 0.59938438 17.75172686 -12.99049576
v 0.31234433 17.87062274 -12.84860843
f 180 179 191
f 180 191 181
f 181 191 192
f 181 192 182
f 182 192 193
f 182 193 183
f 183 193 194
f 183 194 184
f 184 194 195
f 184 195 185
f 185 195 196
f 185 196 186
f 186 196 197
f 186 197 187
f 187 197 198
f 187 198 188
f 188 198 199
f 188 199 189
f 189 199 200
f 189 200 190
f 191 179 201
f 191 201 192
f 192 201 202
f 192 202 193
f 193 202 203
f 193 203 194
f 194 203 204
f 194 204 195
f 195 204 205
f 195 205 196
f 196 205 206
f 196 206 197
f 197 206 207
f 197 207 198
f 198 207 208
f 198 208 199
f 199 208 209
f 199 209 200
f 200 209 210
f 200 210 190
f 201 179 211
f 201 211 202
f 202 211 212
f 202 212 203
f 203 212 213
f 203 213 204
f 204 213 214
f 204 214 205
f 205 214 215
f 205 215 206
f 206 215 216
f 206 216 207
f 207 216 217
f 207 217 208
f 208 217 218
f 208 218 209
f 209 218 219
f 209 219 210
f 210 219 220
f 210 220 190
f 211 179 221
f 211 221 212
f 212 221 222
f 212 222 213
f 213 222 223
f 213 223 214
f 214 223 224
f 214 224 215
f 215 224 225
f 215 225 216
f 216 225 226
f 216 226 217
f 217 226 227
f 217 227 218
f 218 227 228
f 218 228 219
f 219 228 229
f 219 229 220
f 220 229 230
f 220 230 190
f 221 179 231
f 221 231 222
f 222 231 232
f 222 232 223
f 223 232 233
f 223 233 224
f 224 233 234
f 224 234 225
f 225 234 235
f 225 235 226
f 226 235 236
f 226 236 227
f 227 236 237
f 227 237 228
f 228 237 238
f 228 238 229
f 229 238 239
f 229 239 230
f 230 239 240
f 230 240 190
f 231 179 241
f 231 241 232
f 232 241 242
f 232 242 233
f 233 242 243
f 233 243 234
f 234 243 244
f 234 244 235
f 235 244 245
f 235 245 236
f 236 245 246
f 236 246 237
f 237 246 247
f 237 247 238
f 238 247 248
f 238 248 239
f 239 248 249
f 239 249 240
f 240 249 250
f 240 250 190
f 241 179 251
f 241 251 242
f 242 251 252
f 242 252 243
f 243 252 253
f 243 253 244
f 244 253 254
f 244 254 245
f 245 254 255
f 245 255 246
f 246 255 256
f 246 256 247
f 247 256 257
f 247 257 248
f 248 257 258
f 248 258 249
f 249 258 259
f 249 259 250
f 250 259 260
f 250 260 190
f 251 179 261
f 251 261 252
f 252 261 262
f 252 262 253
f 253 262 263
f 253 263 254
f 254 263 264
f 254 264 255
f 255 264 265
f 255 265 256
f 256 265 266
f 256 266 257
f 257 266 267
f 257 267 258
f 258 267 268
f 258 268 259
f 259 268 269
f 259 269 260
f 260 269 270
f 260 270 190
f 261 179 271
f 261 271 262
f 262 271 272
f 262 272 263
f 263 272 273
f 263 273 264
f 264 273 274
f 264 274 265
f 265 274 275
f 265 275 266
f 266 275 276
f 266 276 267
f 267 276 277
f 267 277 268
f 268 277 278
f 268 278 269
f 269 278 279
f 269 279 270
f 270 279 280
f 270 280 190
f 271 179 281
f 271 281 272
f 272 281 282
f 272 282 273
f 273 282 283
f 273 283 274
f 274 283 284
f 274 284 275
f 275 284 285
f 275 285 276
f 276 285 286
f 276 286 277
f 277 286 287
f 277 287 278
f 278 287 288
f 278 288 279
f 279 288 289
f 279 289 280
f 280 289 290
f 280 290 190
f 281 179 291
f 281 291 282
f 282 291 292
f 282 292 283
f 283 292 293
f 283 293 284
f 284 293 294
f 284 294 285
f 285 294 295
f 285 295 286
f 286 295 296
f 286 296 287
f 287 296 297
f 287 297 288
f 288 297 298
f 288 298 289
f 289 298 299
f 289 299 290
f 290 299 300
f 290 300 190
f 291 179 301
f 291 301 292
f 292 301 302
f 292 302 293
f 293 302 303
f 293 303 294
f 294 303 304
f 294 304 295
f 295 304 305
f 295 305 296
f 296 305 306
f 296 306 297
f 297 306 307
f 297 307 298
f 298 307 308
f 298 308 299
f 299 308 309
f 299 309 300
f 300 309 310
f 300 310 190
f 301 179 311
f 301 311 302
f 302 311 312
f 302 312 303
f 303 312 313
f 303 313 304
f 304 313 314
f 304 314 305
f 305 314 315
f 305 315 306
f 306 315 316
f 306 316 307
f 307 316 317
f 307 317 308
f 308 317 318
f 308 318 309
f 309 318 319
f 309 319 310
f 310 319 320
f 310 320 190
f 311 179 321
f 311 321 312
f 312 321 322
f 312 322 313
f 313 322 323
f 313 323 314
f 314 323 324
f 314 324 315
f 315 324 325
f 315 325 316
f 316 325 326
f 316 326 317
f 317 326 327
f 317 327 318
f 318 327 328
f 318 328 319
f 319 328 329
f 319 329 320
f 320 329 330
f 320 330 190
f 321 179 331
f 321 331 322
f 322 331 332
f 322 332 323
f 323 332 333
f 323 333 324
f 324 333 334
f 324 334 325
f 325 334 335
f 325 335 326
f 326 335 336
f 326 336 327
f 327 336 337
f 327 337 328
f 328 337 338
f 328 338 329
f 329 338 339
f 329 339 330
f 330 339 340
f 330 340 190
f 331 179 180
f 331 180 332
f 332 180 181
f 332 181 333
f 333 181 182
f 333 182 334
f 334 182 183
f 334 183 335
f 335 183 184
f 335 184 336
f 336 184 185
f 336 185 337
f 337 185 186
f 337 186 338
f 338 186 187
f 338 187 339
f 339 187 188
f 339 188 340
f 340 188 189
f 340 189 190

o geometry_4
usemtl material_4
v 8.00000000 18.00000000 -15.20000000
v 8.33807907 18.00000000 -15.15139157
v 8.64876898 18.00000000 -15.00950424
v 8.90689949 18.00000000 -14.78583288
v 9.09155839 18.00000000 -14.49849802
v 9.18778573 18.00000000 -14.17077781
v 9.18778573 18.00000000 -13.82922219
v 9.09155839 18.00000000 -13.50150198
v 8.90689949 18.00000000 -13.21416712
v 8.64876898 18.00000000 -12.99049576
v 8.33807907 18.00000000 -12.84860843
v 8.00000000 18.00000000 -12.80000000
v 8.31234433 18.12937726 -15.15139157
v 8.59938438 18.24827314 -15.00950424
v 8.83786588 18.34705541 -14.78583288
v 9.00846846 18.41772131 -14.49849802
v 9.09737093 18.45454592 -14.17077781
v 9.09737093 18.45454592 -13.82922219
v 9.00846846 18.41772131 -13.50150198
v 8.83786588 18.34705541 -13.21416712
v 8.59938438 18.24827314 -12.99049576
v 8.31234433 18.12937726 -12.84860843
v 8.23905800 18.23905800 -15.15139157
v 8.45874895 18.45874895 -15.00950424
v 8.64127478 18.64127478 -14.78583288
v 8.77184834 18.77184834 -14.49849802
v 8.83989134 18.83989134 -14.17077781
v 8.83989134 18.83989134 -13.82922219
v 8.77184834 18.77184834 -13.50150198
v 8.64127478 18.64127478 -13.21416712
v 8.45874895 18.45874895 -12.99049576
v 8.23905800 18.23905800 -12.84860843
v 8.12937726 18.31234433 -15.15139157
v 8.24827314 18.59938438 -15.00950424
v 8.34705541 18.83786588 -14.78583288
v 8.41772131 19.00846846 -14.49849802
v 8.45454592 19.09737093 -14.17077781
v 8.45454592 19.09737093 -13.82922219
v 8.41772131 19.00846846 -13.50150198
v 8.34705541 18.83786588 -13.21416712
v 8.24827314 18.59938438 -12.99049576
v 8.12937726 18.31234433 -12.84860843
v 8.00000000 18.33807907 -15.15139157
v 8.00000000 18.64876898 -15.00950424
v 8.00000000 18.90689949 -14.78583288
v 8.00000000 19.09155839 -14.49849802
v 8.00000000 19.18778573 -14.17077781
v 8.00000000 19.18778573 -13.82922219
v 8.00000000 19.09155839 -13.50150198
v 8.00000000 18.90689949 -13.21416712
v 8.00000000 18.64876898 -12.99049576
v 8.00000000 18.33807907 -12.84860843
v 7.87062274 18.31234433 -15.15139157
v 7.75172686 18.59938438 -15.00950424
v 7.65294459 18.83786588 -14.78583288
v 7.58227869 19.00846846 -14.49849802
v 7.54545408 19.09737093 -14.17077781
v 7.54545408 19.09737093 -13.82922219
v 7.58227869 19.00846846 -13.50150198
v 7.65294459 18.83786588 -13.21416712
v 7.75172686 18.59938438 -12.99049576
v 7.87062274 18.31234433 -12.84860843
v 7.76094200 18.23905800 -15.15139157
v 7.54125105 18.45874895 -15.00950424
v 7.35872522 18.64127478 -14.78583288
v 7.22815166 18.77184834 -14.49849802
v 7.16010866 18.83989134 -14.17077781
v 7.16010866 18.83989134 -13.82922219
v 7.22815166 18.77184834 -13.50150198
v 7.35872522 18.64127478 -13.21416712
v 7.54125105 18.45874895 -12.99049576
v 7.76094200 18.23905800 -12.84860843
v 7.68765567 18.12937726 -15.15139157
v 7.40061562 18.24827314 -15.00950424
v 7.16213412 18.34705541 -14.78583288
v 6.99153154 18.41772131 -14.49849802
v 6.90262907 18.45454592 -14.17077781
v 6.90262907 18.45454592 -13.82922219
v 6.99153154 18.41772131 -13.50150198
v 7.16213412 18.34705541 -13.21416712
v 7.40061562 18.24827314 -12.99049576
v 7.68765567 18.12937726 -12.84860843
v 7.66192093 18.00000000 -15.15139157
v 7.35123102 18.00000000 -15.00950424
v 7.09310051 18.00000000 -14.78583288
v 6.90844161 18.00000000 -14.49849802
v 6.81221427 18.00000000 -14.17077781
v 6.81221427 18.00000000 -13.82922219
v 6.90844161 18.00000000 -13.50150198
v 7.09310051 18.00000000 -13.21416712
v 7.35123102 18.00000000 -12.99049576
v 7.66192093 18.00000000 -12.84860843
v 7.68765567 17.87062274 -15.15139157
v 7.40061562 17.75172686 -15.00950424
v 7.16213412 17.65294459 -14.78583288
v 6.99153154 17.58227869 -14.49849802
v 6.90262907 17.54545408 -14.17077781
v 6.90262907 17.54545408 -13.82922219
v 6.99153154 17.58227869 -13.50150198
v 7.16213412 17.65294459 -13.21416712
v 7.40061562 17.75172686 -12.99049576
v 7.68765567 17.87062274 -12.84860843
v 7.76094200 17.76094200 -15.15139157
v 7.54125105 17.54125105 -15.00950424
v 7.35872522 17.35872522 -14.78583288
v 7.22815166 17.22815166 -14.49849802
v 7.16010866 17.16010866 -14.17077781
v 7.16010866 17.16010866 -13.82922219
v 7.22815166 17.22815166 -13.50150198
v 7.35872522 17.35872522 -13.21416712
v 7.54125105 17.54125105 -12.99049576
v 7.76094200 17.76094200 -12.84860843
v 7.87062274 17.68765567 -15.15139157
v 7.75172686 17.40061562 -15.00950424
v 7.65294459 17.16213412 -14.78583288
v 7.58227869 16.99153154 -14.49849802
v 7.54545408 16.90262907 -14.17077781
v 7.54545408 16.90262907 -13.82922219
v 7.58227869 16.99153154 -13.50150198
v 7.65294459 17.16213412 -13.21416712
v 7.75172686 17.40061562 -12.99049576
v 7.87062274 17.68765567 -12.84860843
v 8.00000000 17.66192093 -15.15139157
v 8.00000000 17.35123102 -15.00950424
v 8.00000000 17.09310051 -14.78583288
v 8.00000000 16.90844161 -14.49849802
v 8.00000000 16.81221427 -14.17077781
v 8.00000000 16.81221427 -13.82922219
v 8.00000000 16.90844161 -13.50150198
v 8.00000000 17.09310051 -13.21416712
v 8.00000000 17.35123102 -12.99049576
v 8.00000000 17.66192093 -12.84860843
v 8.12937726 17.68765567 -15.15139157
v 8.24827314 17.40061562 -15.00950424
v 8.34705541 17.16213412 -14.78583288
v 8.41772131 16.99153154 -14.49849802
v 8.45454592 16.90262907 -14.17077781
v 8.45454592 16.90262907 -13.82922219
v 8.41772131 16.99153154 -13.50150198
v 8.34705541 17.16213412 -13.21416712
v 8.24827314 17.40061562 -12.99049576
v 8.12937726 17.68765567 -12.84860843
v 8.23905800 17.76094200 -15.15139157
v 8.45874895 17.54125105 -15.00950424
v 8.64127478 17.35872522 -14.78583288
v 8.77184834 17.22815166 -14.49849802
v 8.83989134 17.16010866 -14.17077781
v 8.83989134 17.16010866 -13.82922219
v 8.77184834 17.22815166 -13.50150198
v 8.64127478 17.35872522 -13.21416712
v 8.45874895 17.54125105 -12.99049576
v 8.23905800 17.76094200 -12.84860843
v 8.31234433 17.87062274 -15.15139157
v 8.59938438 17.75172686 -15.00950424
v 8.83786588 17.65294459 -14.78583288
v 9.00846846 17.58227869 -14.49849802
v 9.09737093 17.54545408 -14.17077781
v 9.09737093 17.54545408 -13.82922219
v 9.00846846 17.58227869 -13.50150198
v 8.83786588 17.65294459 -13.21416712
v 8.59938438 17.75172686 -12.99049576
v 8.31234433 17.87062274 -12.84860843
f 342 341 353
f 342 353 343
f 343 353 354
f 343 354 344
f 344 354 355
f 344 355 345
f 345 355 356
f 345 356 346
f 346 356 357
f 346 357 347
f 347 357 358
f 347 358 348
f 348 358 359
f 348 359 349
f 349 359 360
f 349 360 350
f 350 360 361
f 350 361 351
f 351 361 362
f 351 362 352
f 353 341 363
f 353 363 354
f 354 363 364
f 354 364 355
f 355 364 365
f 355 365 356
f 356 365 366
f 356 366 357
f 357 366 367
f 357 367 358
f 358 367 368
f 358 368 359
f 359 368 369
f 359 369 360
f 360 369 370
f 360 370 361
f 361 370 371
f 361 371 362
f 362 371 372
f 362 372 352
f 363 341 373
f 363 373 364
f 364 373 374
f 364 374 365
f 365 374 375
f 365 375 366
f 366 375 376
f 366 376 367
f 367 376 377
f 367 377 368
f 368 377 378
f 368 378 369
f 369 378 379
f 369 379 370
f 370 379 380
f 370 380 371
f 371 380 381
f 371 381 372
f 372 381 382
f 372 382 352
f 373 341 383
f 373 383 374
f 374 383 384
f 374 384 375
f 375 384 385
f 375 385 376
f 376 385 386
f 376 386 377
f 377 386 387
f 377 387 378
f 378 387 388
f 378 388 379
f 379 388 389
f 379 389 380
f 380 389 390
f 380 390 381
f 381 390 391
f 381 391 382
f 382 391 392
f 382 392 352
f 383 341 393
f 383 393 384
f 384 393 394
f 384 394 385
f 385 394 395
f 385 395 386
f 386 395 396
f 386 396 387
f 387 396 397
f 387 397 388
f 388 397 398
f 388 398 389
f 389 398 399
f 389 399 390
f 390 399 400
f 390 400 391
f 391 400 401
f 391 401 392
f 392 401 402
f 392 402 352
f 393 341 403
f 393 403 394
f 394 403 404
f 394 404 395
f 395 404 405
f 395 405 396
f 396 405 406
f 396 406 397
f 397 406 407
f 397 407 398
f 398 407 408
f 398 408 399
f 399 408 409
f 399 409 400
f 400 409 410
f 400 410 401
f 401 410 411
f 401 411 402
f 402 411 412
f 402 412 352
f 403 341 413
f 403 413 404
f 404 413 414
f 404 414 405
f 405 414 415
f 405 415 406
f 406 415 416
f 406 416 407
f 407 416 417
f 407 417 408
f 408 417 418
f 408 418 409
f 409 418 419
f 409 419 410
f 410 419 420
f 410 420 411
f 411 420 421
f 411 421 412
f 412 421 422
f 412 422 352
f 413 341 423
f 413 423 414
f 414 423 424
f 414 424 415
f 415 424 425
f 415 425 416
f 416 425 426
f 416 426 417
f 417 426 427
f 417 427 418
f 418 427 428
f 418 428 419
f 419 428 429
f 419 429 420
f 420 429 430
f 420 430 421
f 421 430 431
f 421 431 422
f 422 431 432
f 422 432 352
f 423 341 433
f 423 433 424
f 424 433 434
f 424 434 425
f 425 434 435
f 425 435 426
f 426 435 436
f 426 436 427
f 427 436 437
f 427 437 428
f 428 437 438
f 428 438 429
f 429 438 439
f 429 439 430
f 430 439 440
f 430 440 431
f 431 440 441
f 431 441 432
f 432 441 442
f 432 442 352
f 433 341 443
f 433 443 434
f 434 443 444
f 434 444 435
f 435 444 445
f 435 445 436
f 436 445 446
f 436 446 437
f 437 446 447
f 437 447 438
f 438 447 448
f 438 448 439
f 439 448 449
f 439 449 440
f 440 449 450
f 440 450 441
f 441 450 451
f 441 451 442
f 442 451 452
f 442 452 352
f 443 341 453
f 443 453 444
f 444 453 454
f 444 454 445
f 445 454 455
f 445 455 446
f 446 455 456
f 446 456 447
f 447 456 457
f 447 457 448
f 448 457 458
f 448 458 449
f 449 458 459
f 449 459 450
f 450 459 460
f 450 460 451
f 451 460 461
f 451 461 452
f 452 461 462
f 452 462 352
f 453 341 463
f 453 463 454
f 454 463 464
f 454 464 455
f 455 464 465
f 455 465 456
f 456 465 466
f 456 466 457
f 457 466 467
f 457 467 458
f 458 467 468
f 458 468 459
f 459 468 469
f 459 469 460
f 460 469 470
f 460 470 461
f 461 470 471
f 461 471 462
f 462 471 472
f 462 472 352
f 463 341 473
f 463 473 464
f 464 473 474
f 464 474 465
f 465 474 475
f 465 475 466
f 466 475 476
f 466 476 467
f 467 476 477
f 467 477 468
f 468 477 478
f 468 478 469
f 469 478 479
f 469 479 470
f 470 479 480
f 470 480 471
f 471 480 481
f 471 481 472
f 472 481 482
f 472 482 352
f 473 341 483
f 473 483 474
f 474 483 484
f 474 484 475
f 475 484 485
f 475 485 476
f 476 485 486
f 476 486 477
f 477 486 487
f 477 487 478
f 478 487 488
f 478 488 479
f 479 488 489
f 479 489 480
f 480 489 490
f 480 490 481
f 481 490 491
f 481 491 482
f 482 491 492
f 482 492 352
f 483 341 493
f 483 493 484
f 484 493 494
f 484 494 485
f 485 494 495
f 485 495 486
f 486 495 496
f 486 496 487
f 487 496 497
f 487 497 488
f 488 497 498
f 488 498 489
f 489 498 499
f 489 499 490
f 490 499 500
f 490 500 491
f 491 500 501
f 491 501 492
f 492 501 502
f 492 502 352
f 493 341 342
f 493 342 494
f 494 342 343
f 494 343 495
f 495 343 344
f 495 344 496
f 496 344 345
f 496 345 497
f 497 345 346
f 497 346 498
f 498 346 347
f 498 347 499
f 499 347 348
f 499 348 500
f 500 348 349
f 500 349 501
f 501 349 350
f 501 350 502
f 502 350 351
f 502 351 352

