# Object Export From Tinkercad Server 2015

mtllib obj.mtl

o obj_0
v 0.2676 		-2.0325 		1.1
v 0 		-2.05 		1.1
v 0 		0 		1.1
v 0.5306 		-1.9801 		1.1
v 0.7845 		-1.894 		1.1
v 1.025 		-1.7754 		1.1
v 1.248 		-1.6264 		1.1
v 1.4496 		-1.4496 		1.1
v 1.6264 		-1.248 		1.1
v 1.7754 		-1.025 		1.1
v 1.894 		-0.7845 		1.1
v 1.9801 		-0.5306 		1.1
v 2.0325 		-0.2676 		1.1
v 2.05 		0 		1.1
v 2.0325 		0.2676 		1.1
v 1.9801 		0.5306 		1.1
v 1.894 		0.7845 		1.1
v 1.7754 		1.025 		1.1
v 1.6264 		1.248 		1.1
v 1.4496 		1.4496 		1.1
v 1.248 		1.6264 		1.1
v 1.025 		1.7754 		1.1
v 0.7845 		1.894 		1.1
v 0.5306 		1.9801 		1.1
v 0.2676 		2.0325 		1.1
v 0 		2.05 		1.1
v -0.2676 		2.0325 		1.1
v -0.5306 		1.9801 		1.1
v -0.7845 		1.894 		1.1
v -1.025 		1.7754 		1.1
v -1.248 		1.6264 		1.1
v -1.4496 		1.4496 		1.1
v -1.6264 		1.248 		1.1
v -1.7754 		1.025 		1.1
v -1.894 		0.7845 		1.1
v -1.9801 		0.5306 		1.1
v -2.0325 		0.2676 		1.1
v -2.05 		0 		1.1
v -2.0325 		-0.2676 		1.1
v -1.9801 		-0.5306 		1.1
v -1.894 		-0.7845 		1.1
v -1.7754 		-1.025 		1.1
v -1.6264 		-1.248 		1.1
v -1.4496 		-1.4496 		1.1
v -1.248 		-1.6264 		1.1
v -1.025 		-1.7754 		1.1
v -0.7845 		-1.894 		1.1
v -0.5306 		-1.9801 		1.1
v -0.2676 		-2.0325 		1.1
v 0 		-2.05 		4.6143
v 0.2676 		-2.0325 		4.6143
v 0 		0 		4.6143
v 0.5306 		-1.9801 		4.6143
v 0.7845 		-1.894 		4.6143
v 1.025 		-1.7754 		4.6143
v 1.248 		-1.6264 		4.6143
v 1.4496 		-1.4496 		4.6143
v 1.6264 		-1.248 		4.6143
v 1.7754 		-1.025 		4.6143
v 1.894 		-0.7845 		4.6143
v 1.9801 		-0.5306 		4.6143
v 2.0325 		-0.2676 		4.6143
v 2.05 		0 		4.6143
v 2.0325 		0.2676 		4.6143
v 1.9801 		0.5306 		4.6143
v 1.894 		0.7845 		4.6143
v 1.7754 		1.025 		4.6143
v 1.6264 		1.248 		4.6143
v 1.4496 		1.4496 		4.6143
v 1.248 		1.6264 		4.6143
v 1.025 		1.7754 		4.6143
v 0.7845 		1.894 		4.6143
v 0.5306 		1.9801 		4.6143
v 0.2676 		2.0325 		4.6143
v 0 		2.05 		4.6143
v -0.2676 		2.0325 		4.6143
v -0.5306 		1.9801 		4.6143
v -0.7845 		1.894 		4.6143
v -1.025 		1.7754 		4.6143
v -1.248 		1.6264 		4.6143
v -1.4496 		1.4496 		4.6143
v -1.6264 		1.248 		4.6143
v -1.7754 		1.025 		4.6143
v -1.894 		0.7845 		4.6143
v -1.9801 		0.5306 		4.6143
v -2.0325 		0.2676 		4.6143
v -2.05 		0 		4.6143
v -2.0325 		-0.2676 		4.6143
v -1.9801 		-0.5306 		4.6143
v -1.894 		-0.7845 		4.6143
v -1.7754 		-1.025 		4.6143
v -1.6264 		-1.248 		4.6143
v -1.4496 		-1.4496 		4.6143
v -1.248 		-1.6264 		4.6143
v -1.025 		-1.7754 		4.6143
v -0.7845 		-1.894 		4.6143
v -0.5306 		-1.9801 		4.6143
v -0.2676 		-2.0325 		4.6143
# 98 vertices

g group_0_1206582

usemtl color_1206582
s 0

f 1 	2 	3
f 4 	1 	3
f 5 	4 	3
f 6 	5 	3
f 7 	6 	3
f 8 	7 	3
f 9 	8 	3
f 10 	9 	3
f 11 	10 	3
f 12 	11 	3
f 13 	12 	3
f 14 	13 	3
f 15 	14 	3
f 16 	15 	3
f 17 	16 	3
f 18 	17 	3
f 19 	18 	3
f 20 	19 	3
f 21 	20 	3
f 22 	21 	3
f 23 	22 	3
f 24 	23 	3
f 25 	24 	3
f 26 	25 	3
f 27 	26 	3
f 28 	27 	3
f 29 	28 	3
f 30 	29 	3
f 31 	30 	3
f 32 	31 	3
f 33 	32 	3
f 34 	33 	3
f 35 	34 	3
f 36 	35 	3
f 37 	36 	3
f 38 	37 	3
f 39 	38 	3
f 40 	39 	3
f 41 	40 	3
f 42 	41 	3
f 43 	42 	3
f 44 	43 	3
f 45 	44 	3
f 46 	45 	3
f 47 	46 	3
f 48 	47 	3
f 49 	48 	3
f 2 	49 	3
f 50 	51 	52
f 51 	53 	52
f 53 	54 	52
f 54 	55 	52
f 55 	56 	52
f 56 	57 	52
f 57 	58 	52
f 58 	59 	52
f 59 	60 	52
f 60 	61 	52
f 61 	62 	52
f 62 	63 	52
f 63 	64 	52
f 64 	65 	52
f 65 	66 	52
f 66 	67 	52
f 67 	68 	52
f 68 	69 	52
f 69 	70 	52
f 70 	71 	52
f 71 	72 	52
f 72 	73 	52
f 73 	74 	52
f 74 	75 	52
f 75 	76 	52
f 76 	77 	52
f 77 	78 	52
f 78 	79 	52
f 79 	80 	52
f 80 	81 	52
f 81 	82 	52
f 82 	83 	52
f 83 	84 	52
f 84 	85 	52
f 85 	86 	52
f 86 	87 	52
f 87 	88 	52
f 88 	89 	52
f 89 	90 	52
f 90 	91 	52
f 91 	92 	52
f 92 	93 	52
f 93 	94 	52
f 94 	95 	52
f 95 	96 	52
f 96 	97 	52
f 97 	98 	52
f 98 	50 	52
f 2 	1 	1
f 1 	4 	4
f 4 	5 	5
f 5 	6 	6
f 6 	7 	7
f 7 	8 	8
f 8 	9 	9
f 9 	10 	10
f 10 	11 	11
f 11 	12 	12
f 12 	13 	13
f 13 	14 	14
f 14 	15 	15
f 15 	16 	16
f 16 	17 	17
f 17 	18 	18
f 18 	19 	19
f 19 	20 	20
f 20 	21 	21
f 21 	22 	22
f 22 	23 	23
f 23 	24 	24
f 24 	25 	25
f 25 	26 	26
f 26 	27 	27
f 27 	28 	28
f 28 	29 	29
f 29 	30 	30
f 30 	31 	31
f 31 	32 	32
f 32 	33 	33
f 33 	34 	34
f 34 	35 	35
f 35 	36 	36
f 36 	37 	37
f 37 	38 	38
f 38 	39 	39
f 39 	40 	40
f 40 	41 	41
f 41 	42 	42
f 42 	43 	43
f 43 	44 	44
f 44 	45 	45
f 45 	46 	46
f 46 	47 	47
f 47 	48 	48
f 48 	49 	49
f 49 	2 	2
f 2 	1 	51
f 2 	51 	50
f 1 	4 	53
f 1 	53 	51
f 4 	5 	54
f 4 	54 	53
f 5 	6 	55
f 5 	55 	54
f 6 	7 	56
f 6 	56 	55
f 7 	8 	57
f 7 	57 	56
f 8 	9 	58
f 8 	58 	57
f 9 	10 	59
f 9 	59 	58
f 10 	11 	60
f 10 	60 	59
f 11 	12 	61
f 11 	61 	60
f 12 	13 	62
f 12 	62 	61
f 13 	14 	63
f 13 	63 	62
f 14 	15 	64
f 14 	64 	63
f 15 	16 	65
f 15 	65 	64
f 16 	17 	66
f 16 	66 	65
f 17 	18 	67
f 17 	67 	66
f 18 	19 	68
f 18 	68 	67
f 19 	20 	69
f 19 	69 	68
f 20 	21 	70
f 20 	70 	69
f 21 	22 	71
f 21 	71 	70
f 22 	23 	72
f 22 	72 	71
f 23 	24 	73
f 23 	73 	72
f 24 	25 	74
f 24 	74 	73
f 25 	26 	75
f 25 	75 	74
f 26 	27 	76
f 26 	76 	75
f 27 	28 	77
f 27 	77 	76
f 28 	29 	78
f 28 	78 	77
f 29 	30 	79
f 29 	79 	78
f 30 	31 	80
f 30 	80 	79
f 31 	32 	81
f 31 	81 	80
f 32 	33 	82
f 32 	82 	81
f 33 	34 	83
f 33 	83 	82
f 34 	35 	84
f 34 	84 	83
f 35 	36 	85
f 35 	85 	84
f 36 	37 	86
f 36 	86 	85
f 37 	38 	87
f 37 	87 	86
f 38 	39 	88
f 38 	88 	87
f 39 	40 	89
f 39 	89 	88
f 40 	41 	90
f 40 	90 	89
f 41 	42 	91
f 41 	91 	90
f 42 	43 	92
f 42 	92 	91
f 43 	44 	93
f 43 	93 	92
f 44 	45 	94
f 44 	94 	93
f 45 	46 	95
f 45 	95 	94
f 46 	47 	96
f 46 	96 	95
f 47 	48 	97
f 47 	97 	96
f 48 	49 	98
f 48 	98 	97
f 49 	2 	50
f 49 	50 	98
f 50 	51 	51
f 51 	53 	53
f 53 	54 	54
f 54 	55 	55
f 55 	56 	56
f 56 	57 	57
f 57 	58 	58
f 58 	59 	59
f 59 	60 	60
f 60 	61 	61
f 61 	62 	62
f 62 	63 	63
f 63 	64 	64
f 64 	65 	65
f 65 	66 	66
f 66 	67 	67
f 67 	68 	68
f 68 	69 	69
f 69 	70 	70
f 70 	71 	71
f 71 	72 	72
f 72 	73 	73
f 73 	74 	74
f 74 	75 	75
f 75 	76 	76
f 76 	77 	77
f 77 	78 	78
f 78 	79 	79
f 79 	80 	80
f 80 	81 	81
f 81 	82 	82
f 82 	83 	83
f 83 	84 	84
f 84 	85 	85
f 85 	86 	86
f 86 	87 	87
f 87 	88 	88
f 88 	89 	89
f 89 	90 	90
f 90 	91 	91
f 91 	92 	92
f 92 	93 	93
f 93 	94 	94
f 94 	95 	95
f 95 	96 	96
f 96 	97 	97
f 97 	98 	98
f 98 	50 	50
# 288 faces

 #end of obj_0

o obj_1
v -1.006 		0 		0
v -1.369 		1.369 		0.778
v -1.377 		1.377 		0.811
v -1 		0.132 		6.158
v 0.437 		-1.63 		0.372
v -1.536 		1.178 		0.778
v 0.43 		-1.039 		6.083
v -0.941 		1.63 		5.175
v -0.72 		1.739 		5.175
v -1.008 		0 		6.158
v -1 		0 		6.1627
v 0 		-1.496 		5.767
v -0.916 		1.586 		5.288
v 0.195 		-1.483 		5.767
v -0.701 		1.692 		5.288
v 1.525 		0.201 		0.231
v 1.354 		0 		0.115
v -1.132 		1.476 		0.616
v 1.163 		0.312 		0.053
v 1.193 		0.157 		0.053
v -0.664 		1.602 		5.462
v -1.161 		1.513 		0.71
v 1.284 		0.985 		5.625
v 0.7871 		-0.6157 		6.163
v 0.793 		-0.609 		6.1631
v 1.401 		0.809 		5.625
v 1.502 		0.867 		5.462
v 0.707 		-0.707 		6.75
v -1.315 		1.315 		0.616
v -1.349 		1.349 		0.71
v 1.308 		0.35 		0.115
v 1.486 		0.398 		0.231
v 0.707 		-0.707 		6.163
v -0.619 		1.495 		5.625
v 0.387 		-1.445 		5.767
v 1.882 		0 		5.175
v -1.476 		1.132 		0.616
v 1.866 		0.246 		5.175
v 1.112 		0.461 		0.053
v -0.867 		1.502 		5.462
v 1.816 		0.239 		5.288
v 1.831 		0 		5.288
v -0.809 		1.401 		5.625
v 0.234 		-1.775 		0.502
v 0.463 		-1.729 		0.502
v 0.873 		-0.504 		6.158
v -1.513 		1.161 		0.71
v 0.8611 		-0.5073 		6.1628
v 0.866 		-0.5 		6.1628
v -0.985 		1.284 		5.625
v 0.798 		0.613 		0
v 0.955 		0.733 		0.053
v 0.7932 		-0.6088 		6.1631
v -1.545 		1.186 		0.811
v -1.587 		1.218 		0.963
v 0.866 		-0.5 		6.75
v 0.712 		0.712 		0
v 0.851 		0.851 		0.053
v 0.793 		-0.609 		6.75
v 0.957 		0.957 		0.115
v 0.613 		0.798 		0
v 0.733 		0.955 		0.053
v 0 		-1.006 		0
v -1.027 		1.339 		0.372
v -0.261 		1.983 		4.77
v 0 		2 		4.77
v -1.09 		1.42 		0.502
v 0 		1.956 		4.957
v -0.501 		-1.87 		0.778
v -0.255 		1.939 		4.957
v -0.251 		1.906 		5.069
v 0 		1.922 		5.069
v -1.088 		1.088 		0.231
v -0.504 		-1.882 		0.811
v 1.734 		0 		5.462
v -1.193 		1.193 		0.372
v -1.266 		1.266 		0.502
v 1.719 		0.226 		5.462
v 0.619 		-1.495 		5.625
v -0.253 		-1.919 		0.778
v 1.604 		0.211 		5.625
v 1.618 		0 		5.625
v -0.254 		-1.931 		0.811
v -0.261 		-1.983 		0.963
v 0.867 		-1.502 		5.462
v -0.506 		1.889 		4.957
v 0.809 		-1.401 		5.625
v -0.497 		1.856 		5.069
v -1.339 		1.027 		0.372
v 0 		-1.936 		0.778
v 1.818 		0.487 		5.175
v 0.985 		-1.284 		5.625
v 0 		-1.948 		0.811
v -0.518 		1.932 		4.77
v -1.42 		1.09 		0.502
v 0 		-2 		0.963
v -0.765 		1.848 		4.77
v 1.769 		0.474 		5.288
v -0.749 		1.807 		4.957
v 1.675 		0.449 		5.462
v -0.481 		-1.797 		0.616
v -0.494 		-1.842 		0.71
v -0.736 		1.776 		5.069
v 0.503 		0.872 		0
v 1.563 		0.419 		5.625
v 0.385 		0.93 		0
v 0.866 		-0.5 		6.1628
v 0.932 		-0.386 		6.158
v 0.92 		-0.391 		6.163
v 0.924 		-0.383 		6.163
v -0.243 		-1.844 		0.616
v 0.26 		0.972 		0
v -1 		1.732 		4.77
v -0.249 		-1.891 		0.71
v -0.978 		1.694 		4.957
v 0.131 		0.998 		0
v 0 		1.006 		0
v -0.961 		1.664 		5.069
v 1.006 		0 		0
v 0.998 		0.131 		0
v 0 		-1.86 		0.616
v 0.972 		0.26 		0
v 0.93 		0.385 		0
v 0 		-1.907 		0.71
v 0.872 		0.503 		0
v 0 		0.903 		6.75
v 0.118 		0.895 		6.75
v 0.234 		0.872 		6.75
v -0.968 		-1.676 		0.778
v 0.345 		0.834 		6.75
v -0.974 		-1.687 		0.811
v 0.451 		0.782 		6.75
v 0.549 		0.716 		6.75
v 0.638 		0.638 		6.75
v 0 		1.936 		0.778
v 0.72 		-1.739 		5.175
v 0.716 		0.549 		6.75
v 0.5 		0.866 		6.75
v -0.253 		1.919 		0.778
v 0.782 		0.451 		6.75
v 0.609 		0.793 		6.75
v -0.254 		1.931 		0.811
v 0 		1.948 		0.811
v 0.701 		-1.692 		5.288
v 0.834 		0.345 		6.75
v 0.707 		0.707 		6.75
v 0.872 		0.234 		6.75
v 0.793 		0.609 		6.75
v 0.664 		-1.602 		5.462
v -1 		-1.732 		0.963
v 0.895 		0.118 		6.75
v 0.866 		0.5 		6.75
v -0.741 		-1.788 		0.778
v -1.676 		0.968 		0.778
v 0.903 		0 		6.75
v -1.687 		0.974 		0.811
v 0.131 		0.991 		6.75
v 0 		1 		6.75
v 0.383 		0.924 		6.75
v 0.259 		0.966 		6.75
v 0.941 		-1.63 		5.175
v 1 		0 		6.75
v 0.991 		0.131 		6.75
v -0.261 		1.983 		0.963
v 0.966 		0.259 		6.75
v 0.924 		0.383 		6.75
v 0 		2 		0.963
v -0.903 		0 		6.75
v -0.895 		0.118 		6.75
v -0.872 		0.234 		6.75
v -0.834 		0.345 		6.75
v -0.782 		0.451 		6.75
v -0.745 		-1.8 		0.811
v -0.716 		0.549 		6.75
v -0.638 		0.638 		6.75
v 0.916 		-1.586 		5.288
v -1.732 		1 		0.963
v -0.549 		0.716 		6.75
v -0.866 		0.5 		6.75
v -0.501 		1.87 		0.778
v -0.451 		0.782 		6.75
v -0.793 		0.609 		6.75
v -0.345 		0.834 		6.75
v -0.707 		0.707 		6.75
v -1.788 		0.741 		0.778
v -0.234 		0.872 		6.75
v -0.609 		0.793 		6.75
v -0.118 		0.895 		6.75
v -0.5 		0.866 		6.75
v -0.765 		-1.848 		0.963
v -0.131 		0.991 		6.75
v -0.259 		0.966 		6.75
v -0.383 		0.924 		6.75
v -0.924 		0.383 		6.75
v -0.966 		0.259 		6.75
v -0.991 		0.131 		6.75
v -1 		0 		6.75
v 0.895 		-0.118 		6.75
v 0.872 		-0.234 		6.75
v 0.834 		-0.345 		6.75
v 0.782 		-0.451 		6.75
v 0.924 		-0.383 		6.75
v 0.716 		-0.549 		6.75
v 0.638 		-0.638 		6.75
v -1.058 		1.058 		5.767
v 0.549 		-0.716 		6.75
v 0.451 		-0.782 		6.75
v 0.345 		-0.834 		6.75
v 0.234 		-0.872 		6.75
v 0.609 		-0.793 		6.75
v 0.118 		-0.895 		6.75
v 0.5 		-0.866 		6.75
v 0 		-0.903 		6.75
v 0.991 		-0.131 		6.75
v 0.966 		-0.259 		6.75
v 0 		-1 		6.75
v 0.131 		-0.991 		6.75
v 0.259 		-0.966 		6.75
v 0.383 		-0.924 		6.75
v -0.118 		-0.895 		6.75
v -0.234 		-0.872 		6.75
v 0.9241 		-0.3827 		6.163
v -0.345 		-0.834 		6.75
v -0.451 		-0.782 		6.75
v -0.518 		-1.932 		0.963
v -0.549 		-0.716 		6.75
v 0.974 		-0.261 		6.158
v -0.638 		-0.638 		6.75
v 0.966 		-0.259 		6.1628
v 0.9632 		-0.2673 		6.1628
v -0.716 		-0.549 		6.75
v -0.5 		-0.866 		6.75
v -1.056 		1.376 		5.462
v -0.782 		-0.451 		6.75
v -0.609 		-0.793 		6.75
v -0.834 		-0.345 		6.75
v -0.707 		-0.707 		6.75
v -0.872 		-0.234 		6.75
v -0.793 		-0.609 		6.75
v -0.895 		-0.118 		6.75
v -0.866 		-0.5 		6.75
v -0.504 		1.882 		0.811
v -1.226 		1.226 		5.462
v -0.131 		-0.991 		6.75
v -1.144 		1.144 		5.625
v -0.383 		-0.924 		6.75
v -0.259 		-0.966 		6.75
v -0.991 		-0.131 		6.75
v -0.966 		-0.259 		6.75
v -0.924 		-0.383 		6.75
v 1 		0.132 		6.158
v 0.9917 		0.121 		6.1633
v 1 		0 		6.1627
v 0.991 		0.1308 		6.1633
v -0.93 		-1.611 		0.616
v 1.587 		1.218 		4.77
v 0.991 		0.131 		6.1633
v -1.376 		1.056 		5.462
v 1.552 		1.191 		4.957
v 1.525 		1.17 		5.069
v -0.954 		-1.652 		0.71
v 0 		1.86 		0.616
v -0.243 		1.844 		0.616
v -0.249 		1.891 		0.71
v 0.974 		0.261 		6.158
v 0.966 		0.2589 		6.1629
v 0.966 		0.259 		6.1628
v 1.414 		1.414 		4.77
v 1.383 		1.383 		4.957
v -0.712 		-1.719 		0.616
v -1.146 		1.493 		5.175
v -1.115 		1.453 		5.288
v 1 		-0.132 		6.158
v 0.9677 		0.25 		6.1629
v 1.359 		1.359 		5.069
v -0.73 		-1.762 		0.71
v -1.331 		1.331 		5.175
v 0.9892 		-0.1404 		6.1633
v 0.991 		-0.131 		6.1633
v 0.966 		-0.2589 		6.1629
v 1.218 		1.587 		4.77
v -1.8 		0.745 		0.811
v -0.461 		-1.112 		0.053
v 1.191 		1.552 		4.957
v 0.932 		0.386 		6.158
v 1.17 		1.525 		5.069
v -0.312 		-1.163 		0.053
v 0.9271 		0.374 		6.163
v 0.9241 		0.3827 		6.163
v -1.848 		0.765 		0.963
v 0 		1.907 		0.71
v 0.924 		0.383 		6.163
v -0.35 		-1.308 		0.115
v -0.398 		-1.486 		0.231
v 1 		1.732 		4.77
v 0.991 		-0.1308 		6.1633
v 0.9994 		-0.0087 		6.1627
v -1.295 		1.295 		5.288
v -1.932 		0.518 		0.963
v 1.932 		0.518 		4.77
v -1.493 		1.146 		5.175
v -1.453 		1.115 		5.288
v 0 		-1.882 		5.175
v 1.848 		0.765 		4.77
v 0.246 		-1.866 		5.175
v 1.807 		0.749 		4.957
v 0.239 		-1.816 		5.288
v 0 		-1.831 		5.288
v -1.611 		0.93 		0.616
v -0.157 		-1.193 		0.053
v -0.481 		1.797 		0.616
v -0.177 		-1.342 		0.115
v -1.652 		0.954 		0.71
v 0.873 		0.504 		6.158
v -0.494 		1.842 		0.71
v 0.866 		0.5 		6.1628
v 0.8699 		0.4921 		6.1627
v -0.201 		-1.525 		0.231
v 0.866 		0.5 		6.1628
v -1.719 		0.712 		0.616
v -0.518 		1.932 		0.963
v -1.762 		0.73 		0.71
v 0 		-1.204 		0.053
v -0.741 		1.788 		0.778
v -0.745 		1.8 		0.811
v 0 		-1.354 		0.115
v -0.765 		1.848 		0.963
v -1 		-0.132 		6.158
v -1.87 		0.501 		0.778
v -1.882 		0.504 		0.811
v -0.9917 		-0.121 		6.1633
v -0.991 		-0.1308 		6.1633
v -0.991 		-0.131 		6.1633
v 0.8 		0.614 		6.158
v -0.968 		1.676 		0.778
v -1.919 		0.253 		0.778
v 0.7932 		0.6088 		6.1631
v 0.7983 		0.601 		6.1631
v -0.974 		1.687 		0.811
v -1.931 		0.254 		0.811
v -1.983 		0.261 		0.963
v -1 		1.732 		0.963
v 0.793 		0.609 		6.1631
v 0 		-1.734 		5.462
v -1.936 		0 		0.778
v 0.226 		-1.719 		5.462
v 0.211 		-1.604 		5.625
v 0 		-1.618 		5.625
v -0.9677 		-0.25 		6.1629
v -0.712 		1.719 		0.616
v -0.974 		-0.261 		6.158
v -0.966 		-0.2589 		6.1629
v -1.948 		0 		0.811
v -0.966 		-0.259 		6.1628
v -2 		0 		0.963
v -0.73 		1.762 		0.71
v 0.487 		-1.818 		5.175
v -1.797 		0.481 		0.616
v -1.842 		0.494 		0.71
v -1.187 		0.91 		5.767
v -1.087 		0.834 		5.889
v -0.93 		1.611 		0.616
v -0.954 		1.652 		0.71
v 0.474 		-1.769 		5.288
v 0.449 		-1.675 		5.462
v -1.295 		0.748 		5.767
v -1.844 		0.243 		0.616
v 1.776 		0.736 		5.069
v -0.932 		-0.386 		6.158
v -1.891 		0.249 		0.71
v 0.419 		-1.563 		5.625
v -0.9271 		-0.374 		6.163
v -0.9241 		-0.3827 		6.163
v -1.187 		0.685 		5.889
v 1.732 		1 		4.77
v -0.924 		-0.383 		6.163
v -1.86 		0 		0.616
v 1.694 		0.978 		4.957
v -1.079 		0.623 		5.994
v -1.907 		0 		0.71
v 1.664 		0.961 		5.069
v -0.437 		-1.63 		0.372
v -1.074 		0.824 		0.115
v -0.463 		-1.729 		0.502
v -1.22 		0.936 		0.231
v -0.22 		-1.673 		0.372
v 1.732 		-1 		4.77
v -1.042 		0.602 		0.053
v -0.234 		-1.775 		0.502
v -1.172 		0.677 		0.115
v 1.218 		-1.587 		4.77
v 1.191 		-1.552 		4.957
v -1.332 		0.769 		0.231
v 0 		-1.538 		0.231
v 1.17 		-1.525 		5.069
v 0 		1.538 		0.231
v 0 		-1.687 		0.372
v 0 		-1.79 		0.502
v -0.22 		1.673 		0.372
v 0 		1.687 		0.372
v -1.461 		0.844 		0.372
v 0 		1.79 		0.502
v 1.414 		-1.414 		4.77
v -0.234 		1.775 		0.502
v -0.824 		-1.074 		0.115
v 1.383 		-1.383 		4.957
v -1.382 		0.572 		5.767
v -1.266 		0.524 		5.889
v -0.437 		1.63 		0.372
v -0.463 		1.729 		0.502
v -1.251 		0.518 		0.115
v 1.359 		-1.359 		5.069
v 1.983 		0.261 		4.77
v 2 		0 		4.77
v 1.956 		0 		4.957
v 1.939 		0.255 		4.957
v 1.906 		0.251 		5.069
v 1.922 		0 		5.069
v -1.421 		0.589 		0.231
v 1.587 		-1.218 		4.77
v 1.552 		-1.191 		4.957
v -0.873 		-0.504 		6.158
v -0.866 		-0.5 		6.1628
v -0.8699 		-0.4921 		6.1627
v 1.525 		-1.17 		5.069
v -0.936 		-1.22 		0.231
v -0.866 		-0.5 		6.1628
v -0.602 		-1.042 		0.053
v -0.677 		-1.172 		0.115
v 0.713 		0.713 		6.158
v 0.7131 		0.7001 		6.163
v -1.55 		0.895 		0.502
v -0.769 		-1.332 		0.231
v 0.707 		0.707 		6.163
v -1.559 		0.646 		0.372
v -1.654 		0.685 		0.502
v 0.518 		-1.932 		4.77
v 0.765 		-1.848 		4.77
v 0.749 		-1.807 		4.957
v -0.844 		-1.461 		0.372
v 1.889 		0.506 		4.957
v 1.856 		0.497 		5.069
v 0.736 		-1.776 		5.069
v -1.112 		0.461 		0.053
v -1.163 		0.312 		0.053
v 1 		-1.732 		4.77
v 0.978 		-1.694 		4.957
v -1.308 		0.35 		0.115
v -0.8 		-0.614 		6.158
v 1.008 		0 		6.158
v -1.486 		0.398 		0.231
v -0.7932 		-0.6088 		6.1631
v -0.7983 		-0.601 		6.1631
v 0.614 		0.8 		6.158
v 0.961 		-1.664 		5.069
v 0 		1.204 		0.053
v -0.518 		-1.251 		0.115
v 0.609 		0.793 		6.1631
v 0.6157 		0.7871 		6.163
v 1.151 		-0.477 		5.994
v 0.261 		-1.983 		4.77
v 0 		-2 		4.77
v -1.193 		0.157 		0.053
v 0 		-1.956 		4.957
v -1.342 		0.177 		0.115
v 0.255 		-1.939 		4.957
v 0.251 		-1.906 		5.069
v 0 		-1.922 		5.069
v 1.039 		-0.43 		6.083
v 1.324 		-0.355 		5.889
v -1.525 		0.201 		0.231
v -1.151 		0.477 		5.994
v -0.793 		-0.609 		6.1631
v 0.506 		-1.889 		4.957
v 1.203 		-0.322 		5.994
v 1.086 		-0.291 		6.083
v 0.497 		-1.856 		5.069
v -1.039 		0.43 		6.083
v -1.324 		0.355 		5.889
v -1.203 		0.322 		5.994
v 1.359 		-0.179 		5.889
v -1.086 		0.291 		6.083
v -0.132 		-1 		6.158
v 1.235 		-0.163 		5.994
v -1.359 		0.179 		5.889
v 0 		-1.008 		6.158
v 0 		-1 		6.1627
v -0.157 		1.193 		0.053
v 0.6088 		0.7932 		6.1631
v -0.177 		1.342 		0.115
v 0 		1.354 		0.115
v 0.504 		0.873 		6.158
v 0.5073 		0.8611 		6.1628
v -1.235 		0.163 		5.994
v 0.5 		0.866 		6.1628
v -0.201 		1.525 		0.231
v -1.115 		0.147 		6.083
v -0.713 		-0.713 		6.158
v -0.7131 		-0.7001 		6.163
v -0.707 		-0.707 		6.163
v -0.312 		1.163 		0.053
v -0.35 		1.308 		0.115
v -1.37 		0 		5.889
v -0.398 		1.486 		0.231
v -1.246 		0 		5.994
v -0.477 		-1.151 		5.994
v -0.461 		1.112 		0.053
v -0.43 		-1.039 		6.083
v -1.124 		0 		6.083
v -0.355 		-1.324 		5.889
v 0.5 		0.866 		6.1628
v 0.386 		0.932 		6.158
v -1.445 		0.387 		5.767
v 0.391 		0.92 		6.163
v 0.383 		0.924 		6.163
v -0.589 		-1.421 		0.231
v 1.115 		-0.147 		6.083
v -1.483 		0.195 		5.767
v -0.614 		-0.8 		6.158
v -1.204 		0 		0.053
v -0.895 		-1.55 		0.502
v -0.646 		1.559 		0.372
v -0.685 		1.654 		0.502
v -0.646 		-1.559 		0.372
v -0.685 		-1.654 		0.502
v -0.609 		-0.793 		6.1631
v -0.6157 		-0.7871 		6.163
v -1.496 		0 		5.767
v -1.354 		0 		0.115
v -1.63 		0.437 		0.372
v -1.729 		0.463 		0.502
v 1.37 		0 		5.889
v 1.246 		0 		5.994
v -1.673 		0.22 		0.372
v -1.284 		0.985 		5.625
v 1.124 		0 		6.083
v -1.63 		0.941 		5.175
v -1.775 		0.234 		0.502
v -0.798 		0.613 		0
v -0.712 		0.712 		0
v -0.613 		0.798 		0
v -1.586 		0.916 		5.288
v -0.503 		0.872 		0
v -0.385 		0.93 		0
v -0.26 		0.972 		0
v -0.131 		0.998 		0
v -0.998 		0.131 		0
v -0.972 		0.26 		0
v -0.93 		0.385 		0
v -0.872 		0.503 		0
v 1.445 		-0.387 		5.767
v 0.998 		-0.131 		0
v 0.972 		-0.26 		0
v 0.93 		-0.385 		0
v 0.872 		-0.503 		0
v 0.798 		-0.613 		0
v 0.712 		-0.712 		0
v 0.613 		-0.798 		0
v 0.503 		-0.872 		0
v 0.385 		-0.93 		0
v 0.26 		-0.972 		0
v 0.131 		-0.998 		0
v -1.538 		0 		0.231
v -1.502 		0.867 		5.462
v -0.872 		-0.503 		0
v -0.93 		-0.385 		0
v -0.972 		-0.26 		0
v -0.998 		-0.131 		0
v -1.687 		0 		0.372
v -1.401 		0.809 		5.625
v -1.79 		0 		0.502
v -0.131 		-0.998 		0
v -0.26 		-0.972 		0
v -0.385 		-0.93 		0
v -0.503 		-0.872 		0
v -0.613 		-0.798 		0
v -0.712 		-0.712 		0
v -0.798 		-0.613 		0
v -0.322 		-1.203 		5.994
v 1.483 		-0.195 		5.767
v -0.291 		-1.086 		6.083
v -1.739 		0.72 		5.175
v -1.692 		0.701 		5.288
v -1.602 		0.664 		5.462
v -1.495 		0.619 		5.625
v 1.496 		0 		5.767
v -0.179 		-1.359 		5.889
v 0.3827 		0.9241 		6.163
v 1.187 		-0.91 		5.767
v -0.163 		-1.235 		5.994
v 0.261 		0.974 		6.158
v 1.087 		-0.834 		5.889
v 0.259 		0.966 		6.1628
v 0.2673 		0.9632 		6.1628
v -0.147 		-1.115 		6.083
v 1.295 		-0.748 		5.767
v 1.187 		-0.685 		5.889
v -0.895 		1.55 		0.502
v 0 		-1.37 		5.889
v 0 		-1.246 		5.994
v -0.518 		1.251 		0.115
v 0.2589 		0.966 		6.1629
v -0.504 		-0.873 		6.158
v -0.5073 		-0.8611 		6.1628
v -0.589 		1.421 		0.231
v -0.5 		-0.866 		6.1628
v 0 		-1.124 		6.083
v 0.132 		1 		6.158
v -0.602 		1.042 		0.053
v 0.1404 		0.9892 		6.1633
v -0.387 		-1.445 		5.767
v 0.131 		0.991 		6.1633
v -0.677 		1.172 		0.115
v -0.769 		1.332 		0.231
v -0.6088 		-0.7932 		6.1631
v -0.844 		1.461 		0.372
v -0.195 		-1.483 		5.767
v 1.079 		-0.623 		5.994
v -0.824 		1.074 		0.115
v 1.178 		1.536 		0.778
v 1.186 		1.545 		0.811
v -0.936 		1.22 		0.231
v 1.218 		1.587 		0.963
v -1.818 		0.487 		5.175
v -1.769 		0.474 		5.288
v 1.382 		-0.572 		5.767
v -1.675 		0.449 		5.462
v 1.266 		-0.524 		5.889
v -0.91 		-1.187 		5.767
v -0.834 		-1.087 		5.889
v -1.563 		0.419 		5.625
v -0.748 		-1.295 		5.767
v -0.5 		-0.866 		6.1628
v 1.818 		-0.487 		5.175
v -0.386 		-0.932 		6.158
v 1.769 		-0.474 		5.288
v -0.391 		-0.92 		6.163
v -1.866 		0.246 		5.175
v -0.383 		-0.924 		6.163
v -1.816 		0.239 		5.288
v -0.685 		-1.187 		5.889
v -1.719 		0.226 		5.462
v 0.1308 		0.991 		6.1633
v 0 		1 		6.1627
v 0.0087 		0.9994 		6.1627
v -0.623 		-1.079 		5.994
v -1.604 		0.211 		5.625
v -1.919 		-0.253 		0.778
v -1.882 		0 		5.175
v -1.931 		-0.254 		0.811
v -1.831 		0 		5.288
v -1.734 		0 		5.462
v -0.733 		0.955 		0.053
v -1.983 		-0.261 		0.963
v -0.572 		-1.382 		5.767
v -1.618 		0 		5.625
v -0.524 		-1.266 		5.889
v -1.87 		-0.501 		0.778
v -0.851 		0.851 		0.053
v -0.957 		0.957 		0.115
v -1.218 		1.587 		4.77
v -1.882 		-0.504 		0.811
v -1.191 		1.552 		4.957
v -1.17 		1.525 		5.069
v -0.132 		1 		6.158
v -0.121 		0.9917 		6.1633
v -0.1308 		0.991 		6.1633
v -0.487 		-1.818 		5.175
v -1.414 		1.414 		4.77
v -0.131 		0.991 		6.1633
v -1.383 		1.383 		4.957
v -0.474 		-1.769 		5.288
v -1.359 		1.359 		5.069
v -0.955 		0.733 		0.053
v -0.449 		-1.675 		5.462
v 1.536 		1.178 		0.778
v -1.587 		1.218 		4.77
v -1.552 		1.191 		4.957
v 1.545 		1.186 		0.811
v -1.525 		1.17 		5.069
v 1.675 		-0.449 		5.462
v 1.587 		1.218 		0.963
v -0.3827 		-0.9241 		6.163
v -0.261 		-0.974 		6.158
v -0.259 		-0.966 		6.1628
v -0.2673 		-0.9632 		6.1628
v 1.563 		-0.419 		5.625
v 1.369 		1.369 		0.778
v -0.419 		-1.563 		5.625
v 1.377 		1.377 		0.811
v 1.414 		1.414 		0.963
v -1.732 		1 		4.77
v -1.694 		0.978 		4.957
v -0.25 		0.9677 		6.1629
v -0.261 		0.974 		6.158
v -0.2589 		0.966 		6.1629
v -0.259 		0.966 		6.1628
v 1.866 		-0.246 		5.175
v 1.816 		-0.239 		5.288
v -1.664 		0.961 		5.069
v -0.1404 		-0.9892 		6.1633
v -1.848 		0.765 		4.77
v -0.131 		-0.991 		6.1633
v 1.87 		-0.501 		0.778
v -1.807 		0.749 		4.957
v 1.719 		-0.226 		5.462
v -0.2589 		-0.966 		6.1629
v -1.776 		0.736 		5.069
v 1.882 		-0.504 		0.811
v 1.604 		-0.211 		5.625
v 1.476 		1.132 		0.616
v 1.919 		-0.253 		0.778
v 1.513 		1.161 		0.71
v 1.931 		-0.254 		0.811
v 1.983 		-0.261 		0.963
v -1.932 		0.518 		4.77
v 1.315 		1.315 		0.616
v 1.349 		1.349 		0.71
v 1.132 		1.476 		0.616
v 1.284 		-0.985 		5.625
v 1.63 		-0.941 		5.175
v 1.936 		0 		0.778
v 1.586 		-0.916 		5.288
v 1.161 		1.513 		0.71
v 1.948 		0 		0.811
v -1.889 		0.506 		4.957
v -0.1308 		-0.991 		6.1633
v 2 		0 		0.963
v 1.502 		-0.867 		5.462
v -0.0087 		-0.9994 		6.1627
v -1.856 		0.497 		5.069
v 1.401 		-0.809 		5.625
v 1.797 		-0.481 		0.616
v -1.983 		0.261 		4.77
v 1.842 		-0.494 		0.71
v -1.939 		0.255 		4.957
v 1.339 		1.027 		0.372
v 1.42 		1.09 		0.502
v 1.739 		-0.72 		5.175
v 1.692 		-0.701 		5.288
v 1.088 		1.088 		0.231
v -1.906 		0.251 		5.069
v 1.602 		-0.664 		5.462
v 1.495 		-0.619 		5.625
v 1.193 		1.193 		0.372
v 1.266 		1.266 		0.502
v 1.844 		-0.243 		0.616
v 1.891 		-0.249 		0.71
v -1.844 		-0.243 		0.616
v -1.891 		-0.249 		0.71
v 1.027 		1.339 		0.372
v 1.86 		0 		0.616
v 0.969 		0.969 		5.889
v 1.907 		0 		0.71
v -1.797 		-0.481 		0.616
v 1.09 		1.42 		0.502
v 1.676 		-0.968 		0.778
v 1.687 		-0.974 		0.811
v 0.968 		1.676 		0.778
v -1.842 		-0.494 		0.71
v 0.974 		0.562 		6.083
v 0.974 		1.687 		0.811
v 0.988 		0.758 		5.994
v 1.732 		-1 		0.963
v 1.788 		-0.741 		0.778
v 1 		1.732 		0.963
v -0.386 		0.932 		6.158
v -0.246 		-1.866 		5.175
v 0.741 		1.788 		0.778
v -0.239 		-1.816 		5.288
v -0.374 		0.9271 		6.163
v -0.3827 		0.9241 		6.163
v 0.745 		1.8 		0.811
v -0.383 		0.924 		6.163
v -0.226 		-1.719 		5.462
v 0.881 		0.881 		5.994
v -0.211 		-1.604 		5.625
v -1.932 		-0.518 		0.963
v 0.765 		1.848 		0.963
v -1.788 		-0.741 		0.778
v -1.8 		-0.745 		0.811
v -0.504 		0.873 		6.158
v 0.892 		0.684 		6.083
v -0.5 		0.866 		6.1628
v -0.4921 		0.8699 		6.1627
v -1.848 		-0.765 		0.963
v -0.5 		0.866 		6.1628
v -0.985 		-1.284 		5.625
v 0.518 		1.932 		0.963
v -2 		0 		4.77
v -1.956 		0 		4.957
v 1.8 		-0.745 		0.811
v -0.941 		-1.63 		5.175
v -0.916 		-1.586 		5.288
v 0.93 		1.611 		0.616
v 1.848 		-0.765 		0.963
v -0.867 		-1.502 		5.462
v 0.954 		1.652 		0.71
v -0.809 		-1.401 		5.625
v -0.72 		-1.739 		5.175
v 0.712 		1.719 		0.616
v -0.701 		-1.692 		5.288
v 0.795 		0.795 		6.083
v -0.664 		-1.602 		5.462
v -0.619 		-1.495 		5.625
v 0.758 		0.988 		5.994
v 0.73 		1.762 		0.71
v -0.614 		0.8 		6.158
v -0.6088 		0.7932 		6.1631
v -0.601 		0.7983 		6.1631
v -0.609 		0.793 		6.1631
v 0.501 		1.87 		0.778
v 0.504 		1.882 		0.811
v 0.684 		0.892 		6.083
v 0.253 		1.919 		0.778
v -0.506 		-1.889 		4.957
v 0.254 		1.931 		0.811
v -0.497 		-1.856 		5.069
v -1.922 		0 		5.069
v 0.261 		1.983 		0.963
v -0.261 		-1.983 		4.77
v -0.255 		-1.939 		4.957
v -0.251 		-1.906 		5.069
v 1.932 		-0.518 		0.963
v 1.611 		-0.93 		0.616
v -1 		-1.732 		4.77
v -0.978 		-1.694 		4.957
v -0.713 		0.713 		6.158
v -0.7001 		0.7131 		6.163
v -0.961 		-1.664 		5.069
v -0.707 		0.707 		6.163
v 0.562 		0.974 		6.083
v -0.765 		-1.848 		4.77
v -0.749 		-1.807 		4.957
v -0.736 		-1.776 		5.069
v -1.676 		-0.968 		0.778
v -1.687 		-0.974 		0.811
v -1.732 		-1 		0.963
v 1.889 		-0.506 		4.957
v -1.359 		-0.179 		5.889
v 1.856 		-0.497 		5.069
v -0.518 		-1.932 		4.77
v 1.983 		-0.261 		4.77
v 1.939 		-0.255 		4.957
v -1.235 		-0.163 		5.994
v -1.115 		-0.147 		6.083
v -1.719 		-0.712 		0.616
v 1.652 		-0.954 		0.71
v 0.481 		1.797 		0.616
v 0.494 		1.842 		0.71
v 1.906 		-0.251 		5.069
v 1.719 		-0.712 		0.616
v 0.118 		0.895 		4.998
v 0 		0.903 		4.998
v 0.234 		0.872 		4.998
v 0.345 		0.834 		4.998
v -1.324 		-0.355 		5.889
v 0.451 		0.782 		4.998
v 0.549 		0.716 		4.998
v -1.203 		-0.322 		5.994
v 0.638 		0.638 		4.998
v 0.716 		0.549 		4.998
v 1.694 		-0.978 		4.957
v -0.8 		0.614 		6.158
v -1.086 		-0.291 		6.083
v 0.782 		0.451 		4.998
v 0.834 		0.345 		4.998
v 1.762 		-0.73 		0.71
v 0.872 		0.234 		4.998
v 0.895 		0.118 		4.998
v 1.664 		-0.961 		5.069
v 0.903 		0 		4.998
v -0.793 		0.609 		6.1631
v -0.7871 		0.6157 		6.163
v -1.151 		-0.477 		5.994
v 1.63 		-0.437 		0.372
v 1.848 		-0.765 		4.77
v -0.562 		0.974 		6.083
v -1.039 		-0.43 		6.083
v 1.807 		-0.749 		4.957
v -0.758 		0.988 		5.994
v 1.729 		-0.463 		0.502
v 1.673 		-0.22 		0.372
v 1.776 		-0.736 		5.069
v -0.969 		0.969 		5.889
v -1.483 		-0.195 		5.767
v 1.932 		-0.518 		4.77
v -1.445 		-0.387 		5.767
v -0.7932 		0.6088 		6.1631
v -0.684 		0.892 		6.083
v -0.873 		0.504 		6.158
v -0.8611 		0.5073 		6.1628
v -0.866 		0.5 		6.1628
v 0 		1.008 		6.158
v -1.382 		-0.572 		5.767
v -0.881 		0.881 		5.994
v 0.91 		1.187 		5.767
v -1.266 		-0.524 		5.889
v 0.834 		1.087 		5.889
v -1.295 		-0.748 		5.767
v 0.748 		1.295 		5.767
v 0.243 		1.844 		0.616
v 0.249 		1.891 		0.71
v -1.762 		-0.73 		0.71
v -1.187 		-0.685 		5.889
v 1.775 		-0.234 		0.502
v -1.611 		-0.93 		0.616
v 0.685 		1.187 		5.889
v -1.652 		-0.954 		0.71
v -1.079 		-0.623 		5.994
v 0.623 		1.079 		5.994
v 1.538 		0 		0.231
v 1.687 		0 		0.372
v -1.187 		-0.91 		5.767
v 1.79 		0 		0.502
v -1.087 		-0.834 		5.889
v 0.895 		1.55 		0.502
v -1.193 		-0.157 		0.053
v 0.646 		1.559 		0.372
v -1.342 		-0.177 		0.115
v 0.685 		1.654 		0.502
v 1.112 		-0.461 		0.053
v 0.572 		1.382 		5.767
v 0.524 		1.266 		5.889
v 1.163 		-0.312 		0.053
v -0.795 		0.795 		6.083
v -1.525 		-0.201 		0.231
v -0.988 		0.758 		5.994
v -1.163 		-0.312 		0.053
v 1.308 		-0.35 		0.115
v 1.486 		-0.398 		0.231
v -1.308 		-0.35 		0.115
v 0.824 		1.074 		0.115
v -1.866 		-0.246 		5.175
v -1.816 		-0.239 		5.288
v 0.936 		1.22 		0.231
v 1.536 		-1.178 		0.778
v 1.545 		-1.186 		0.811
v 1.193 		-0.157 		0.053
v 1.587 		-1.218 		0.963
v 1.342 		-0.177 		0.115
v -0.892 		0.684 		6.083
v 0.602 		1.042 		0.053
v -1.719 		-0.226 		5.462
v 0.677 		1.172 		0.115
v -1.604 		-0.211 		5.625
v 1.525 		-0.201 		0.231
v 0.769 		1.332 		0.231
v -1.818 		-0.487 		5.175
v 0.844 		1.461 		0.372
v 1.178 		-1.536 		0.778
v 1.204 		0 		0.053
v -0.974 		0.562 		6.083
v 1.369 		-1.369 		0.778
v 1.377 		-1.377 		0.811
v -1.769 		-0.474 		5.288
v 1.414 		-1.414 		0.963
v -1.675 		-0.449 		5.462
v 0.518 		1.251 		0.115
v -1.563 		-0.419 		5.625
v 1.55 		-0.895 		0.502
v 0.589 		1.421 		0.231
v 1.559 		-0.646 		0.372
v 0.477 		1.151 		5.994
v 1.654 		-0.685 		0.502
v 0.43 		1.039 		6.083
v 0.355 		1.324 		5.889
v 0.437 		1.63 		0.372
v -0.895 		0.118 		4.998
v 0.463 		1.729 		0.502
v -0.903 		0 		4.998
v 1.074 		-0.824 		0.115
v -0.872 		0.234 		4.998
v -0.834 		0.345 		4.998
v 0.22 		1.673 		0.372
v 1.22 		-0.936 		0.231
v -0.782 		0.451 		4.998
v -0.716 		0.549 		4.998
v -0.638 		0.638 		4.998
v -0.549 		0.716 		4.998
v -1.495 		-0.619 		5.625
v 1.042 		-0.602 		0.053
v 1.172 		-0.677 		0.115
v -0.451 		0.782 		4.998
v -1.486 		-0.398 		0.231
v -0.345 		0.834 		4.998
v -1.502 		-0.867 		5.462
v -0.234 		0.872 		4.998
v 1.132 		-1.476 		0.616
v -0.118 		0.895 		4.998
v -1.401 		-0.809 		5.625
v -1.112 		-0.461 		0.053
v 0.322 		1.203 		5.994
v 0.291 		1.086 		6.083
v 1.332 		-0.769 		0.231
v 0.562 		-0.974 		6.083
v -1.284 		-0.985 		5.625
v 0.758 		-0.988 		5.994
v 1.461 		-0.844 		0.372
v 0.179 		1.359 		5.889
v 0.234 		1.775 		0.502
v 0.969 		-0.969 		5.889
v -1.673 		-0.22 		0.372
v 1.251 		-0.518 		0.115
v 0.163 		1.235 		5.994
v -1.775 		-0.234 		0.502
v 1.161 		-1.513 		0.71
v -1.63 		-0.437 		0.372
v 0.147 		1.115 		6.083
v -1.729 		-0.463 		0.502
v 1.315 		-1.315 		0.616
v 1.349 		-1.349 		0.71
v 0.461 		1.112 		0.053
v 0.684 		-0.892 		6.083
v 1.476 		-1.132 		0.616
v -1.251 		-0.518 		0.115
v 0.312 		1.163 		0.053
v -1.421 		-0.589 		0.231
v 0 		1.37 		5.889
v 0 		1.246 		5.994
v -1.042 		-0.602 		0.053
v 0.881 		-0.881 		5.994
v 1.513 		-1.161 		0.71
v 0.35 		1.308 		0.115
v -1.172 		-0.677 		0.115
v 0.398 		1.486 		0.231
v -1.332 		-0.769 		0.231
v 1.421 		-0.589 		0.231
v -1.461 		-0.844 		0.372
v -1.074 		-0.824 		0.115
v 0.988 		-0.758 		5.994
v 0.157 		1.193 		0.053
v -1.22 		-0.936 		0.231
v 0.177 		1.342 		0.115
v 1.186 		-1.545 		0.811
v 1.218 		-1.587 		0.963
v 0.201 		1.525 		0.231
v 0.795 		-0.795 		6.083
v -1.559 		-0.646 		0.372
v -1.654 		-0.685 		0.502
v 1.027 		-1.339 		0.372
v 1.09 		-1.42 		0.502
v 0.733 		-0.955 		0.053
v 1.088 		-1.088 		0.231
v 1.193 		-1.193 		0.372
v 0.892 		-0.684 		6.083
v 1.266 		-1.266 		0.502
v 0 		1.124 		6.083
v 1.932 		0.518 		0.963
v 0.387 		1.445 		5.767
v 1.339 		-1.027 		0.372
v 1.788 		0.741 		0.778
v 1.8 		0.745 		0.811
v 1.848 		0.765 		0.963
v 0.195 		1.483 		5.767
v 0.851 		-0.851 		0.053
v -0.866 		0.5 		6.1628
v -0.932 		0.386 		6.158
v 0.957 		-0.957 		0.115
v -0.92 		0.391 		6.163
v 0.974 		-0.562 		6.083
v 0 		1.496 		5.767
v 1.42 		-1.09 		0.502
v 0.955 		-0.733 		0.053
v -1.739 		-0.72 		5.175
v 0.985 		1.284 		5.625
v -1.692 		-0.701 		5.288
v 0.941 		1.63 		5.175
v -1.602 		-0.664 		5.462
v 0.916 		1.586 		5.288
v 0.518 		-1.932 		0.963
v -0.924 		0.383 		6.163
v -1.63 		-0.941 		5.175
v 1.676 		0.968 		0.778
v 0.867 		1.502 		5.462
v 1.687 		0.974 		0.811
v -1.586 		-0.916 		5.288
v 1.732 		1 		0.963
v 0.809 		1.401 		5.625
v 0.72 		1.739 		5.175
v 0.895 		-0.118 		4.998
v 0.701 		1.692 		5.288
v 0.872 		-0.234 		4.998
v 0.834 		-0.345 		4.998
v 0.664 		1.602 		5.462
v 1.719 		0.712 		0.616
v 0.782 		-0.451 		4.998
v 0.619 		1.495 		5.625
v 0.716 		-0.549 		4.998
v -0.9241 		0.3827 		6.163
v 0.638 		-0.638 		4.998
v -0.974 		0.261 		6.158
v 0.549 		-0.716 		4.998
v -0.966 		0.259 		6.1628
v -0.9632 		0.2673 		6.1628
v 0.451 		-0.782 		4.998
v 0.345 		-0.834 		4.998
v 1.762 		0.73 		0.71
v 0.234 		-0.872 		4.998
v 0.118 		-0.895 		4.998
v 0 		-0.903 		4.998
v 1.611 		0.93 		0.616
v 1.652 		0.954 		0.71
v -1.058 		-1.058 		5.767
v 0.741 		-1.788 		0.778
v 0.745 		-1.8 		0.811
v -0.974 		-0.562 		6.083
v -1.55 		-0.895 		0.502
v -0.988 		-0.758 		5.994
v -1.376 		-1.056 		5.462
v 0.765 		-1.848 		0.963
v -1.226 		-1.226 		5.462
v -1.144 		-1.144 		5.625
v -0.969 		-0.969 		5.889
v 0.968 		-1.676 		0.778
v 0.974 		-1.687 		0.811
v 1.919 		0.253 		0.778
v 1.931 		0.254 		0.811
v 1 		-1.732 		0.963
v 1.983 		0.261 		0.963
v -1.056 		-1.376 		5.462
v 0.712 		-1.719 		0.616
v -0.892 		-0.684 		6.083
v 0.73 		-1.762 		0.71
v -1.493 		-1.146 		5.175
v -1.453 		-1.115 		5.288
v 0.93 		-1.611 		0.616
v -0.955 		-0.733 		0.053
v -0.881 		-0.881 		5.994
v 0.954 		-1.652 		0.71
v 0.487 		1.818 		5.175
v 0.474 		1.769 		5.288
v -0.966 		0.2589 		6.1629
v -1.331 		-1.331 		5.175
v -0.851 		-0.851 		0.053
v -0.957 		-0.957 		0.115
v -0.9892 		0.1404 		6.1633
v -0.991 		0.131 		6.1633
v -1.536 		-1.178 		0.778
v -1.295 		-1.295 		5.288
v -1.369 		-1.369 		0.778
v -1.377 		-1.377 		0.811
v -1.146 		-1.493 		5.175
v -1.414 		-1.414 		0.963
v -1.115 		-1.453 		5.288
v -0.733 		-0.955 		0.053
v -1.178 		-1.536 		0.778
v -0.991 		0.1308 		6.1633
v -0.9994 		0.0087 		6.1627
v -1.476 		-1.132 		0.616
v -1.513 		-1.161 		0.71
v 0.449 		1.675 		5.462
v -1.315 		-1.315 		0.616
v -1.349 		-1.349 		0.71
v -1.983 		-0.261 		4.77
v 1.058 		1.058 		5.767
v -1.939 		-0.255 		4.957
v -1.906 		-0.251 		5.069
v 0.419 		1.563 		5.625
v -1.132 		-1.476 		0.616
v -1.161 		-1.513 		0.71
v -1.889 		-0.506 		4.957
v -1.856 		-0.497 		5.069
v 1.376 		1.056 		5.462
v 1.226 		1.226 		5.462
v 1.144 		1.144 		5.625
v 0.253 		-1.919 		0.778
v -1.932 		-0.518 		4.77
v 0.254 		-1.931 		0.811
v -1.848 		-0.765 		4.77
v -1.807 		-0.749 		4.957
v 0.132 		-1 		6.158
v -0.795 		-0.795 		6.083
v 0.121 		-0.9917 		6.1633
v 0.261 		-1.983 		0.963
v -0.758 		-0.988 		5.994
v 0.1308 		-0.991 		6.1633
v 1.056 		1.376 		5.462
v 0.131 		-0.991 		6.1633
v -1.776 		-0.736 		5.069
v 0.501 		-1.87 		0.778
v -1.545 		-1.186 		0.811
v -1.587 		-1.218 		0.963
v 0.261 		-0.974 		6.158
v 0.2589 		-0.966 		6.1629
v 0.259 		-0.966 		6.1628
v 0.504 		-1.882 		0.811
v 0.246 		1.866 		5.175
v 1.493 		1.146 		5.175
v 0.239 		1.816 		5.288
v 1.453 		1.115 		5.288
v 0.25 		-0.9677 		6.1629
v 1.331 		1.331 		5.175
v 0.226 		1.719 		5.462
v -1.186 		-1.545 		0.811
v -1.218 		-1.587 		0.963
v 0.211 		1.604 		5.625
v 1.295 		1.295 		5.288
v 0 		1.882 		5.175
v 0.243 		-1.844 		0.616
v 1.146 		1.493 		5.175
v 0.249 		-1.891 		0.71
v 1.115 		1.453 		5.288
v 0 		1.831 		5.288
v 0 		1.734 		5.462
v 0.386 		-0.932 		6.158
v 0 		1.618 		5.625
v 0.374 		-0.9271 		6.163
v 0.481 		-1.797 		0.616
v 0.3827 		-0.9241 		6.163
v -1.732 		-1 		4.77
v 0.383 		-0.924 		6.163
v -1.694 		-0.978 		4.957
v 0.494 		-1.842 		0.71
v -1.339 		-1.027 		0.372
v -1.42 		-1.09 		0.502
v 0.518 		-1.251 		0.115
v -1.088 		-1.088 		0.231
v -1.664 		-0.961 		5.069
v 0.589 		-1.421 		0.231
v -1.193 		-1.193 		0.372
v -1.266 		-1.266 		0.502
v 0.602 		-1.042 		0.053
v 0.677 		-1.172 		0.115
v 0.504 		-0.873 		6.158
v 0.769 		-1.332 		0.231
v 0.5 		-0.866 		6.1628
v 0.978 		1.694 		4.957
v 0.4921 		-0.8699 		6.1627
v 1.87 		0.501 		0.778
v 0.5 		-0.866 		6.1628
v 0.961 		1.664 		5.069
v 1.382 		0.572 		5.767
v 0.844 		-1.461 		0.372
v 1.882 		0.504 		0.811
v 0.765 		1.848 		4.77
v 0.749 		1.807 		4.957
v 0.736 		1.776 		5.069
v 0.824 		-1.074 		0.115
v 0.936 		-1.22 		0.231
v -1.587 		-1.218 		4.77
v 0.518 		1.932 		4.77
v -1.552 		-1.191 		4.957
v -1.525 		-1.17 		5.069
v 0.506 		1.889 		4.957
v 1.844 		0.243 		0.616
v 1.891 		0.249 		0.71
v 0.497 		1.856 		5.069
v -1.027 		-1.339 		0.372
v -1.414 		-1.414 		4.77
v -1.383 		-1.383 		4.957
v 0.646 		-1.559 		0.372
v 0.261 		1.983 		4.77
v 0.255 		1.939 		4.957
v 0.685 		-1.654 		0.502
v 1.797 		0.481 		0.616
v -1.359 		-1.359 		5.069
v 0.614 		-0.8 		6.158
v 0.6088 		-0.7932 		6.1631
v 0.601 		-0.7983 		6.1631
v 1.842 		0.494 		0.71
v -1.09 		-1.42 		0.502
v 0.251 		1.906 		5.069
v 1.266 		0.524 		5.889
v 0.895 		-1.55 		0.502
v 0.609 		-0.793 		6.1631
v 1.295 		0.748 		5.767
v -1.218 		-1.587 		4.77
v 0.157 		-1.193 		0.053
v -0.684 		-0.892 		6.083
v 0.177 		-1.342 		0.115
v -1.191 		-1.552 		4.957
v 1.187 		0.685 		5.889
v -1.17 		-1.525 		5.069
v 0.201 		-1.525 		0.231
v 1.079 		0.623 		5.994
v 1.187 		0.91 		5.767
v 1.087 		0.834 		5.889
v 0.312 		-1.163 		0.053
v -0.562 		-0.974 		6.083
v 0.35 		-1.308 		0.115
v 0.398 		-1.486 		0.231
v 0.713 		-0.713 		6.158
v 0.7001 		-0.7131 		6.163
v 0.461 		-1.112 		0.053
v 1.359 		0.179 		5.889
v 1.235 		0.163 		5.994
v 1.115 		0.147 		6.083
v 0.22 		-1.673 		0.372
v -0.118 		-0.895 		4.998
v -0.234 		-0.872 		4.998
v -0.345 		-0.834 		4.998
v -0.451 		-0.782 		4.998
v -0.549 		-0.716 		4.998
v 1.324 		0.355 		5.889
v -0.638 		-0.638 		4.998
v -0.716 		-0.549 		4.998
v 1.203 		0.322 		5.994
v -0.782 		-0.451 		4.998
v 1.086 		0.291 		6.083
v -0.834 		-0.345 		4.998
v -0.872 		-0.234 		4.998
v -0.895 		-0.118 		4.998
v -1.178 		1.536 		0.778
v 1.151 		0.477 		5.994
v 0.8 		-0.614 		6.158
v -1.186 		1.545 		0.811
v -1.218 		1.587 		0.963
v 1.039 		0.43 		6.083
v 1.559 		0.646 		0.372
v 1.654 		0.685 		0.502
v -0.179 		1.359 		5.889
v -1.414 		1.414 		0.963
v -0.163 		1.235 		5.994
v 1.55 		0.895 		0.502
v -0.147 		1.115 		6.083
v 1.483 		0.195 		5.767
v 1.251 		0.518 		0.115
v 1.445 		0.387 		5.767
v 1.421 		0.589 		0.231
v -0.355 		1.324 		5.889
v 1.042 		0.602 		0.053
v -0.322 		1.203 		5.994
v -0.291 		1.086 		6.083
v 1.172 		0.677 		0.115
v 1.332 		0.769 		0.231
v 1.739 		0.72 		5.175
v 1.692 		0.701 		5.288
v 1.602 		0.664 		5.462
v -0.477 		1.151 		5.994
v 1.461 		0.844 		0.372
v 1.63 		0.941 		5.175
v -0.43 		1.039 		6.083
v 1.586 		0.916 		5.288
v 1.074 		0.824 		0.115
v 1.22 		0.936 		0.231
v -0.195 		1.483 		5.767
v -0.387 		1.445 		5.767
v 1.495 		0.619 		5.625
v 1.673 		0.22 		0.372
v -0.572 		1.382 		5.767
v -0.524 		1.266 		5.889
v 1.775 		0.234 		0.502
v -0.748 		1.295 		5.767
v 1.63 		0.437 		0.372
v 1.729 		0.463 		0.502
v -0.685 		1.187 		5.889
v -0.623 		1.079 		5.994
v 1.058 		-1.058 		5.767
v 1.342 		0.177 		0.115
v -0.91 		1.187 		5.767
v -0.834 		1.087 		5.889
v 1.056 		-1.376 		5.462
v 1.226 		-1.226 		5.462
v 1.144 		-1.144 		5.625
v -0.246 		1.866 		5.175
v -0.239 		1.816 		5.288
v 1.376 		-1.056 		5.462
v -0.226 		1.719 		5.462
v -0.211 		1.604 		5.625
v 1.146 		-1.493 		5.175
v 1.115 		-1.453 		5.288
v 1.331 		-1.331 		5.175
v 1.295 		-1.295 		5.288
v -0.487 		1.818 		5.175
v 1.493 		-1.146 		5.175
v 1.453 		-1.115 		5.288
v -0.474 		1.769 		5.288
v -0.449 		1.675 		5.462
v 0.572 		-1.382 		5.767
v 0.524 		-1.266 		5.889
v -0.419 		1.563 		5.625
v 0.748 		-1.295 		5.767
v 0.685 		-1.187 		5.889
v 0.623 		-1.079 		5.994
v 0.91 		-1.187 		5.767
v 0.834 		-1.087 		5.889
v 0.179 		-1.359 		5.889
v 0.163 		-1.235 		5.994
v 0.147 		-1.115 		6.083
v 0.355 		-1.324 		5.889
v 0.322 		-1.203 		5.994
v 0.291 		-1.086 		6.083
v 0.477 		-1.151 		5.994
# 1384 vertices

g group_1_16448250

usemtl color_16448250
s 0

f 106 	111 	113
f 104 	101 	100
f 106 	113 	107
f 111 	119 	113
f 221 	137 	117
f 127 	128 	120
f 114 	129 	130
f 127 	120 	116
f 1438 	114 	130
f 133 	1476 	112
f 133 	1479 	1476
f 111 	138 	119
f 136 	139 	140
f 138 	132 	119
f 137 	1416 	129
f 138 	141 	132
f 157 	122 	123
f 103 	143 	142
f 157 	126 	122
f 117 	137 	129
f 135 	128 	127
f 1416 	130 	129
f 128 	135 	145
f 145 	104 	100
f 144 	205 	147
f 144 	147 	146
f 100 	128 	145
f 1350 	1353 	143
f 103 	1350 	143
f 1420 	1416 	137
f 206 	207 	144
f 1468 	1479 	133
f 104 	152 	101
f 151 	1404 	146
f 1433 	1423 	150
f 155 	150 	149
f 155 	156 	150
f 407 	145 	135
f 145 	411 	104
f 150 	156 	1433
f 252 	152 	104
f 159 	160 	156
f 146 	147 	154
f 163 	166 	164
f 163 	168 	166
f 168 	169 	170
f 445 	112 	110
f 136 	140 	134
f 171 	174 	162
f 139 	173 	140
f 174 	175 	165
f 168 	170 	166
f 173 	139 	176
f 176 	179 	180
f 169 	1297 	170
f 178 	172 	167
f 178 	181 	172
f 174 	165 	162
f 175 	116 	165
f 183 	185 	177
f 191 	182 	181
f 184 	169 	168
f 116 	175 	127
f 184 	186 	169
f 176 	180 	173
f 188 	181 	178
f 483 	174 	171
f 181 	188 	191
f 187 	175 	174
f 192 	168 	163
f 175 	187 	193
f 192 	184 	168
f 182 	191 	194
f 189 	139 	136
f 193 	135 	127
f 196 	139 	189
f 184 	195 	197
f 196 	198 	176
f 123 	151 	157
f 193 	127 	175
f 159 	156 	155
f 186 	184 	197
f 160 	158 	156
f 151 	146 	157
f 158 	160 	1031
f 184 	192 	195
f 154 	157 	146
f 159 	202 	160
f 196 	176 	139
f 197 	201 	186
f 179 	198 	203
f 202 	1041 	160
f 1031 	160 	1041
f 200 	167 	251
f 205 	144 	207
f 206 	320 	208
f 206 	208 	207
f 209 	212 	200
f 369 	111 	106
f 211 	213 	197
f 211 	197 	195
f 209 	200 	199
f 201 	197 	213
f 212 	167 	200
f 216 	201 	213
f 167 	212 	178
f 220 	117 	118
f 216 	107 	201
f 147 	205 	154
f 118 	218 	220
f 219 	212 	209
f 220 	221 	117
f 212 	219 	222
f 222 	188 	178
f 137 	221 	223
f 222 	178 	212
f 230 	257 	228
f 244 	239 	232
f 230 	231 	236
f 235 	246 	232
f 238 	250 	235
f 231 	232 	239
f 236 	231 	239
f 237 	240 	241
f 243 	264 	238
f 245 	264 	243
f 250 	246 	235
f 244 	232 	246
f 249 	261 	245
f 227 	374 	251
f 253 	261 	249
f 250 	238 	264
f 251 	271 	229
f 252 	254 	152
f 225 	255 	224
f 256 	224 	255
f 255 	225 	226
f 228 	257 	226
f 236 	257 	230
f 258 	226 	257
f 255 	226 	258
f 251 	229 	227
f 153 	152 	254
f 237 	241 	233
f 260 	261 	253
f 261 	263 	245
f 264 	245 	263
f 240 	262 	265
f 380 	275 	254
f 270 	292 	269
f 240 	265 	241
f 282 	280 	273
f 272 	277 	270
f 242 	259 	274
f 254 	275 	153
f 276 	285 	273
f 279 	287 	276
f 272 	273 	280
f 277 	272 	280
f 281 	291 	279
f 167 	172 	271
f 284 	291 	281
f 287 	285 	276
f 282 	273 	285
f 172 	288 	271
f 286 	289 	284
f 224 	289 	286
f 287 	279 	291
f 271 	288 	248
f 198 	179 	176
f 291 	284 	290
f 289 	290 	284
f 256 	289 	224
f 205 	207 	154
f 259 	242 	234
f 292 	293 	268
f 268 	269 	292
f 292 	270 	277
f 293 	294 	268
f 267 	268 	294
f 266 	267 	294
f 266 	294 	295
f 247 	274 	183
f 183 	177 	247
f 154 	300 	299
f 302 	157 	301
f 271 	248 	229
f 189 	1425 	196
f 301 	154 	299
f 304 	308 	302
f 305 	310 	304
f 126 	157 	302
f 154 	301 	157
f 1426 	198 	196
f 306 	317 	305
f 126 	302 	308
f 300 	154 	207
f 307 	317 	306
f 1426 	1427 	198
f 208 	300 	207
f 251 	167 	271
f 309 	315 	307
f 308 	304 	310
f 311 	315 	309
f 1427 	203 	198
f 296 	312 	253
f 260 	253 	312
f 312 	296 	297
f 298 	300 	297
f 298 	299 	300
f 313 	297 	300
f 312 	297 	313
f 314 	315 	311
f 315 	316 	307
f 317 	307 	316
f 310 	305 	317
f 288 	172 	323
f 322 	344 	321
f 335 	333 	326
f 325 	327 	328
f 181 	182 	323
f 322 	324 	330
f 329 	337 	326
f 332 	339 	329
f 324 	326 	333
f 330 	324 	333
f 331 	148 	141
f 320 	206 	328
f 325 	328 	206
f 334 	348 	332
f 331 	341 	148
f 336 	348 	334
f 339 	337 	329
f 335 	326 	337
f 141 	138 	331
f 338 	346 	336
f 266 	346 	338
f 339 	332 	348
f 340 	240 	278
f 378 	325 	376
f 318 	342 	311
f 314 	311 	342
f 342 	318 	319
f 321 	344 	319
f 330 	344 	322
f 345 	319 	344
f 342 	319 	345
f 148 	341 	343
f 295 	346 	266
f 346 	347 	336
f 348 	336 	347
f 343 	1449 	148
f 278 	240 	237
f 340 	262 	240
f 181 	323 	172
f 351 	548 	350
f 419 	262 	340
f 303 	1449 	343
f 349 	352 	350
f 352 	349 	355
f 278 	422 	340
f 351 	350 	260
f 356 	343 	341
f 350 	352 	261
f 261 	260 	350
f 352 	355 	261
f 363 	364 	372
f 313 	300 	328
f 208 	320 	300
f 364 	363 	365
f 363 	372 	349
f 366 	367 	357
f 320 	328 	300
f 327 	313 	328
f 111 	369 	370
f 138 	370 	331
f 366 	357 	354
f 359 	353 	368
f 355 	349 	372
f 370 	138 	111
f 358 	367 	373
f 359 	368 	374
f 365 	263 	364
f 227 	359 	374
f 382 	384 	373
f 377 	371 	394
f 376 	371 	377
f 367 	358 	357
f 199 	200 	374
f 325 	378 	327
f 371 	376 	325
f 364 	263 	372
f 199 	374 	368
f 263 	261 	372
f 355 	372 	261
f 200 	251 	374
f 379 	367 	366
f 254 	283 	380
f 312 	313 	376
f 382 	367 	379
f 373 	367 	382
f 383 	386 	363
f 376 	377 	312
f 1291 	373 	384
f 365 	363 	386
f 283 	254 	252
f 386 	383 	387
f 671 	670 	385
f 388 	275 	380
f 378 	376 	313
f 313 	327 	378
f 361 	362 	389
f 384 	382 	1326
f 387 	383 	390
f 388 	800 	275
f 365 	386 	263
f 427 	283 	457
f 427 	380 	283
f 393 	1326 	382
f 548 	351 	395
f 394 	371 	395
f 393 	382 	379
f 274 	247 	242
f 375 	370 	369
f 370 	375 	396
f 396 	331 	370
f 394 	395 	312
f 388 	380 	428
f 396 	341 	331
f 1459 	274 	259
f 388 	428 	397
f 377 	394 	312
f 800 	388 	397
f 399 	400 	396
f 260 	312 	395
f 403 	405 	406
f 351 	260 	395
f 399 	396 	375
f 341 	400 	356
f 361 	389 	360
f 264 	263 	386
f 362 	233 	389
f 386 	387 	264
f 400 	341 	396
f 237 	233 	362
f 387 	390 	264
f 385 	670 	408
f 409 	362 	361
f 408 	410 	391
f 1179 	296 	253
f 145 	407 	411
f 296 	1179 	297
f 1181 	297 	1179
f 1182 	298 	297
f 1182 	297 	1181
f 408 	391 	385
f 298 	1182 	299
f 1185 	299 	1182
f 412 	414 	415
f 409 	413 	362
f 1187 	301 	299
f 1187 	299 	1185
f 392 	410 	416
f 413 	278 	237
f 412 	417 	414
f 454 	278 	413
f 301 	1187 	302
f 1189 	302 	1187
f 390 	383 	415
f 412 	415 	383
f 237 	362 	413
f 304 	302 	1189
f 392 	416 	480
f 411 	252 	104
f 424 	416 	410
f 432 	436 	412
f 410 	392 	391
f 1197 	307 	306
f 416 	484 	480
f 411 	407 	418
f 411 	418 	420
f 408 	161 	421
f 420 	283 	252
f 417 	250 	414
f 250 	415 	414
f 278 	454 	422
f 670 	161 	408
f 421 	410 	408
f 252 	411 	420
f 340 	422 	423
f 421 	424 	410
f 635 	400 	399
f 419 	340 	423
f 492 	416 	424
f 456 	420 	418
f 309 	307 	1197
f 419 	423 	425
f 1199 	311 	309
f 283 	420 	457
f 415 	250 	264
f 427 	428 	380
f 109 	108 	429
f 426 	430 	429
f 390 	415 	264
f 430 	426 	431
f 447 	431 	426
f 432 	435 	436
f 433 	423 	422
f 434 	428 	427
f 433 	437 	423
f 434 	438 	428
f 417 	412 	436
f 425 	423 	437
f 438 	439 	397
f 437 	440 	425
f 435 	432 	441
f 441 	432 	529
f 438 	397 	428
f 346 	295 	429
f 109 	429 	295
f 403 	406 	401
f 429 	430 	346
f 405 	442 	406
f 442 	405 	444
f 430 	431 	346
f 444 	445 	446
f 449 	447 	426
f 443 	438 	434
f 449 	450 	447
f 438 	443 	451
f 449 	452 	450
f 451 	439 	438
f 444 	446 	442
f 451 	453 	439
f 110 	446 	445
f 448 	413 	409
f 108 	102 	607
f 413 	448 	454
f 455 	405 	403
f 456 	457 	420
f 455 	462 	405
f 347 	346 	447
f 460 	461 	454
f 456 	465 	457
f 431 	447 	346
f 462 	463 	444
f 473 	476 	404
f 402 	473 	404
f 452 	347 	450
f 447 	450 	347
f 668 	464 	458
f 466 	540 	404
f 467 	470 	449
f 462 	444 	405
f 457 	465 	468
f 445 	463 	469
f 452 	449 	470
f 470 	467 	471
f 464 	472 	459
f 427 	457 	468
f 463 	445 	444
f 427 	468 	434
f 112 	445 	469
f 471 	467 	474
f 520 	522 	467
f 112 	469 	133
f 464 	459 	458
f 475 	468 	465
f 477 	1026 	472
f 468 	475 	478
f 234 	462 	455
f 234 	242 	462
f 452 	470 	347
f 478 	443 	434
f 466 	404 	476
f 463 	462 	242
f 468 	478 	434
f 476 	479 	466
f 392 	480 	622
f 242 	247 	463
f 247 	469 	463
f 1026 	459 	472
f 1425 	466 	479
f 199 	368 	482
f 247 	177 	469
f 481 	483 	171
f 483 	187 	174
f 133 	469 	177
f 484 	487 	482
f 460 	454 	448
f 484 	482 	480
f 454 	461 	422
f 422 	461 	433
f 486 	488 	481
f 487 	199 	482
f 488 	483 	481
f 435 	246 	436
f 441 	246 	435
f 487 	209 	199
f 488 	491 	483
f 491 	187 	483
f 484 	416 	492
f 484 	492 	495
f 495 	496 	487
f 490 	504 	493
f 495 	487 	484
f 187 	491 	499
f 209 	496 	219
f 497 	500 	498
f 496 	209 	487
f 499 	530 	187
f 500 	497 	502
f 501 	504 	490
f 502 	360 	500
f 502 	361 	360
f 472 	464 	505
f 472 	505 	506
f 473 	354 	476
f 497 	602 	507
f 506 	570 	477
f 507 	502 	497
f 354 	357 	476
f 501 	490 	489
f 507 	508 	502
f 357 	358 	479
f 508 	409 	361
f 493 	504 	510
f 508 	361 	502
f 506 	477 	472
f 479 	476 	357
f 504 	519 	510
f 511 	513 	512
f 511 	514 	513
f 508 	507 	620
f 514 	515 	516
f 491 	488 	509
f 517 	491 	509
f 250 	436 	246
f 517 	533 	499
f 348 	347 	470
f 514 	516 	513
f 518 	504 	501
f 470 	471 	348
f 504 	518 	519
f 515 	134 	516
f 471 	474 	348
f 517 	499 	491
f 136 	134 	515
f 520 	521 	522
f 510 	519 	523
f 436 	250 	417
f 520 	525 	521
f 523 	1461 	510
f 474 	467 	522
f 523 	1464 	1461
f 526 	527 	503
f 519 	518 	485
f 517 	509 	546
f 528 	529 	432
f 547 	551 	520
f 193 	187 	530
f 524 	527 	531
f 530 	407 	135
f 528 	532 	529
f 530 	135 	193
f 552 	557 	528
f 533 	534 	530
f 527 	524 	503
f 533 	628 	534
f 628 	629 	534
f 499 	533 	530
f 407 	534 	418
f 544 	545 	537
f 629 	418 	534
f 398 	514 	511
f 536 	544 	537
f 534 	407 	530
f 539 	514 	398
f 539 	515 	514
f 539 	540 	515
f 540 	189 	136
f 541 	575 	537
f 540 	136 	515
f 402 	404 	539
f 525 	339 	521
f 486 	647 	542
f 398 	402 	539
f 521 	339 	522
f 542 	509 	488
f 542 	543 	509
f 466 	189 	540
f 537 	545 	541
f 545 	553 	541
f 542 	488 	486
f 540 	539 	404
f 244 	246 	529
f 441 	529 	246
f 646 	645 	543
f 234 	455 	541
f 474 	522 	348
f 339 	348 	522
f 509 	543 	546
f 490 	553 	545
f 547 	550 	551
f 517 	546 	549
f 532 	244 	529
f 549 	533 	517
f 548 	395 	371
f 553 	259 	234
f 1360 	1347 	619
f 234 	541 	553
f 672 	381 	526
f 545 	544 	489
f 489 	490 	545
f 673 	672 	526
f 490 	493 	553
f 381 	555 	527
f 552 	587 	556
f 556 	557 	552
f 493 	259 	553
f 532 	528 	557
f 381 	385 	555
f 559 	562 	560
f 561 	563 	546
f 559 	564 	562
f 564 	565 	566
f 611 	506 	505
f 564 	566 	562
f 543 	561 	546
f 565 	401 	566
f 549 	563 	569
f 403 	401 	565
f 550 	547 	571
f 535 	564 	559
f 572 	564 	535
f 568 	573 	558
f 572 	565 	564
f 573 	574 	567
f 627 	569 	563
f 572 	575 	565
f 525 	520 	551
f 575 	455 	403
f 563 	549 	546
f 575 	403 	565
f 536 	537 	572
f 535 	536 	572
f 573 	567 	558
f 575 	572 	537
f 577 	570 	506
f 556 	239 	557
f 577 	578 	570
f 541 	455 	575
f 578 	580 	576
f 1169 	536 	535
f 337 	551 	550
f 571 	337 	550
f 532 	557 	244
f 578 	576 	570
f 557 	239 	244
f 573 	579 	582
f 586 	588 	589
f 587 	552 	591
f 590 	591 	552
f 583 	592 	578
f 590 	593 	591
f 586 	589 	554
f 594 	494 	588
f 610 	612 	590
f 498 	494 	594
f 551 	337 	339
f 525 	551 	339
f 583 	578 	577
f 494 	589 	588
f 592 	595 	580
f 498 	594 	497
f 596 	597 	547
f 571 	547 	597
f 643 	599 	586
f 596 	598 	597
f 592 	603 	595
f 599 	588 	586
f 603 	607 	595
f 592 	580 	578
f 239 	587 	591
f 588 	599 	600
f 594 	588 	600
f 556 	587 	239
f 626 	601 	583
f 600 	602 	594
f 592 	601 	603
f 497 	594 	602
f 592 	583 	601
f 599 	642 	605
f 593 	236 	591
f 239 	591 	236
f 607 	102 	595
f 605 	600 	599
f 590 	609 	593
f 602 	600 	699
f 699 	703 	602
f 381 	527 	526
f 571 	597 	337
f 527 	555 	531
f 610 	686 	613
f 610 	613 	612
f 614 	531 	555
f 745 	616 	611
f 582 	579 	630
f 614 	622 	538
f 692 	686 	610
f 590 	612 	609
f 579 	573 	568
f 574 	582 	615
f 614 	538 	531
f 335 	337 	597
f 506 	611 	577
f 622 	619 	538
f 611 	616 	577
f 598 	335 	597
f 555 	385 	391
f 391 	392 	614
f 703 	507 	602
f 555 	391 	614
f 626 	583 	616
f 392 	622 	614
f 628 	549 	569
f 99 	618 	561
f 617 	625 	596
f 577 	616 	583
f 508 	620 	621
f 622 	623 	619
f 618 	563 	561
f 617 	713 	624
f 624 	625 	617
f 563 	618 	627
f 582 	574 	573
f 598 	596 	625
f 569 	627 	661
f 353 	623 	368
f 482 	368 	623
f 611 	505 	729
f 623 	353 	619
f 533 	549 	628
f 622 	480 	623
f 611 	729 	745
f 480 	482 	623
f 629 	456 	418
f 582 	630 	631
f 754 	626 	616
f 628 	569 	632
f 631 	615 	582
f 631 	634 	615
f 356 	633 	343
f 210 	664 	214
f 204 	664 	210
f 202 	664 	204
f 159 	664 	202
f 155 	664 	159
f 149 	664 	155
f 214 	664 	215
f 569 	661 	632
f 633 	303 	343
f 633 	458 	303
f 654 	655 	220
f 220 	218 	654
f 218 	217 	654
f 653 	654 	217
f 629 	632 	636
f 371 	615 	634
f 635 	640 	400
f 638 	639 	637
f 637 	639 	641
f 637 	641 	642
f 637 	642 	643
f 215 	664 	644
f 371 	634 	548
f 646 	643 	645
f 647 	643 	646
f 648 	643 	647
f 637 	643 	648
f 99 	645 	643
f 643 	644 	664
f 664 	665 	643
f 624 	333 	625
f 217 	650 	651
f 217 	651 	652
f 217 	652 	653
f 223 	221 	673
f 681 	662 	640
f 632 	629 	628
f 636 	456 	629
f 456 	636 	465
f 640 	356 	400
f 657 	220 	656
f 656 	220 	655
f 658 	220 	657
f 659 	220 	658
f 660 	220 	659
f 662 	356 	640
f 149 	223 	673
f 664 	149 	663
f 99 	643 	666
f 666 	643 	665
f 598 	625 	335
f 662 	633 	356
f 632 	661 	667
f 662 	668 	633
f 667 	669 	636
f 608 	677 	604
f 671 	221 	670
f 672 	221 	671
f 673 	221 	672
f 674 	149 	673
f 675 	149 	674
f 676 	149 	675
f 663 	149 	676
f 670 	221 	161
f 660 	161 	220
f 808 	678 	649
f 677 	679 	606
f 458 	633 	668
f 593 	609 	236
f 609 	612 	236
f 680 	640 	635
f 680 	681 	640
f 568 	678 	579
f 677 	606 	604
f 681 	682 	662
f 568 	649 	678
f 682 	683 	668
f 180 	684 	678
f 684 	579 	678
f 257 	236 	612
f 685 	688 	677
f 685 	677 	608
f 613 	257 	612
f 1334 	393 	877
f 877 	1340 	1334
f 579 	684 	630
f 682 	668 	662
f 683 	464 	668
f 505 	464 	683
f 689 	691 	692
f 688 	679 	677
f 689 	692 	610
f 511 	1147 	398
f 688 	685 	697
f 1147 	402 	398
f 706 	708 	689
f 688 	693 	679
f 333 	335 	625
f 409 	508 	621
f 698 	693 	688
f 696 	448 	621
f 830 	694 	687
f 195 	425 	211
f 448 	409 	621
f 686 	692 	257
f 613 	686 	257
f 724 	695 	694
f 485 	862 	975
f 258 	257 	692
f 690 	694 	695
f 826 	1218 	512
f 696 	460 	448
f 688 	697 	698
f 1176 	473 	402
f 473 	1176 	354
f 691 	258 	692
f 605 	699 	600
f 689 	700 	691
f 701 	731 	704
f 701 	704 	702
f 393 	864 	877
f 703 	620 	507
f 693 	698 	705
f 703 	712 	620
f 581 	693 	705
f 164 	1351 	265
f 705 	584 	581
f 163 	164 	262
f 265 	262 	164
f 707 	605 	641
f 192 	163 	419
f 262 	419 	163
f 733 	735 	701
f 700 	689 	708
f 192 	419 	195
f 425 	195 	419
f 707 	699 	605
f 440 	211 	425
f 710 	706 	741
f 708 	706 	710
f 707 	711 	699
f 711 	712 	703
f 512 	941 	826
f 713 	617 	702
f 701 	702 	617
f 709 	608 	755
f 711 	703 	699
f 708 	258 	700
f 712 	714 	620
f 714 	621 	620
f 714 	696 	621
f 694 	690 	687
f 751 	717 	711
f 608 	715 	685
f 717 	712 	711
f 717 	720 	712
f 608 	709 	715
f 729 	505 	683
f 162 	714 	720
f 110 	685 	715
f 714 	162 	696
f 722 	723 	681
f 723 	725 	682
f 720 	714 	712
f 681 	723 	682
f 110 	697 	685
f 667 	636 	632
f 715 	709 	875
f 722 	681 	680
f 465 	669 	475
f 636 	669 	465
f 724 	726 	695
f 726 	558 	716
f 683 	682 	725
f 716 	695 	726
f 333 	702 	330
f 624 	713 	333
f 729 	683 	725
f 704 	330 	702
f 713 	702 	333
f 568 	726 	649
f 568 	558 	726
f 726 	724 	649
f 736 	738 	723
f 728 	730 	739
f 258 	691 	700
f 708 	255 	258
f 736 	723 	722
f 738 	725 	723
f 710 	255 	708
f 725 	738 	740
f 730 	728 	727
f 992 	742 	743
f 725 	740 	729
f 740 	745 	729
f 644 	554 	215
f 710 	741 	255
f 644 	586 	554
f 746 	748 	451
f 644 	643 	586
f 741 	743 	255
f 643 	642 	599
f 747 	738 	736
f 642 	641 	605
f 256 	255 	743
f 738 	747 	749
f 749 	750 	740
f 746 	451 	443
f 742 	256 	743
f 752 	453 	748
f 639 	751 	707
f 749 	740 	738
f 224 	952 	225
f 951 	225 	952
f 750 	745 	740
f 730 	753 	739
f 754 	745 	750
f 953 	226 	225
f 953 	225 	951
f 753 	755 	739
f 639 	638 	751
f 616 	745 	754
f 226 	953 	228
f 954 	228 	953
f 748 	453 	451
f 755 	604 	744
f 956 	230 	228
f 956 	228 	954
f 759 	213 	211
f 707 	641 	639
f 230 	956 	231
f 957 	231 	956
f 711 	707 	751
f 744 	739 	755
f 232 	231 	957
f 216 	213 	761
f 1378 	744 	604
f 964 	238 	235
f 751 	638 	757
f 243 	238 	964
f 757 	758 	717
f 748 	756 	760
f 709 	755 	753
f 759 	761 	213
f 216 	761 	762
f 758 	720 	717
f 757 	772 	758
f 733 	781 	737
f 733 	737 	735
f 756 	748 	746
f 752 	748 	760
f 608 	604 	755
f 742 	992 	764
f 762 	106 	216
f 760 	876 	752
f 763 	765 	764
f 731 	701 	735
f 369 	106 	762
f 765 	763 	768
f 793 	792 	763
f 767 	769 	761
f 782 	733 	679
f 757 	717 	751
f 720 	758 	171
f 767 	761 	759
f 762 	769 	771
f 637 	772 	757
f 735 	330 	731
f 735 	344 	330
f 704 	731 	330
f 857 	719 	718
f 369 	762 	771
f 721 	864 	379
f 638 	637 	757
f 868 	873 	773
f 769 	762 	761
f 369 	771 	375
f 758 	772 	481
f 481 	171 	758
f 737 	344 	735
f 775 	769 	767
f 774 	786 	777
f 775 	776 	769
f 693 	581 	782
f 772 	486 	481
f 771 	769 	776
f 693 	782 	679
f 776 	778 	771
f 777 	780 	1176
f 771 	778 	375
f 637 	648 	772
f 778 	399 	375
f 648 	486 	772
f 782 	805 	783
f 782 	783 	784
f 790 	791 	776
f 648 	647 	486
f 780 	354 	1176
f 646 	543 	542
f 797 	804 	779
f 784 	781 	733
f 782 	784 	733
f 776 	775 	790
f 788 	780 	777
f 647 	646 	542
f 780 	789 	366
f 798 	399 	778
f 784 	345 	344
f 764 	289 	256
f 742 	764 	256
f 788 	789 	780
f 764 	765 	289
f 737 	781 	344
f 788 	719 	789
f 765 	768 	289
f 649 	724 	785
f 790 	800 	791
f 786 	788 	777
f 784 	783 	345
f 768 	763 	792
f 354 	780 	366
f 344 	781 	784
f 822 	718 	786
f 793 	794 	792
f 778 	776 	791
f 645 	561 	543
f 99 	561 	645
f 796 	797 	734
f 798 	778 	791
f 581 	799 	782
f 788 	718 	719
f 798 	635 	399
f 789 	719 	721
f 584 	828 	581
f 796 	734 	732
f 799 	581 	801
f 825 	801 	581
f 366 	721 	379
f 779 	734 	797
f 718 	788 	786
f 825 	581 	828
f 791 	800 	803
f 789 	721 	366
f 803 	806 	798
f 785 	779 	804
f 804 	808 	785
f 805 	782 	799
f 649 	785 	808
f 810 	807 	802
f 803 	798 	791
f 810 	812 	807
f 806 	635 	798
f 134 	797 	796
f 635 	806 	680
f 134 	140 	797
f 799 	801 	342
f 823 	813 	812
f 814 	803 	800
f 815 	816 	811
f 803 	814 	824
f 342 	345 	799
f 793 	795 	794
f 140 	173 	804
f 815 	811 	809
f 140 	804 	797
f 173 	808 	804
f 816 	774 	811
f 808 	173 	180
f 774 	816 	786
f 678 	808 	180
f 783 	805 	345
f 806 	803 	824
f 817 	816 	815
f 799 	345 	805
f 822 	816 	817
f 820 	812 	810
f 822 	786 	816
f 812 	820 	823
f 813 	823 	826
f 584 	585 	828
f 806 	824 	829
f 829 	722 	680
f 827 	830 	818
f 829 	680 	806
f 893 	822 	817
f 832 	834 	824
f 825 	828 	342
f 822 	896 	718
f 687 	818 	830
f 801 	825 	342
f 314 	342 	828
f 837 	821 	819
f 837 	838 	821
f 832 	824 	814
f 585 	314 	828
f 838 	827 	821
f 829 	834 	840
f 833 	802 	863
f 838 	841 	827
f 841 	842 	830
f 839 	843 	835
f 1388 	318 	311
f 1388 	311 	1199
f 843 	844 	836
f 1389 	319 	318
f 1389 	318 	1388
f 845 	846 	833
f 319 	1389 	321
f 1390 	321 	1389
f 760 	756 	878
f 1391 	322 	321
f 1391 	321 	1390
f 843 	836 	835
f 841 	830 	827
f 322 	1391 	324
f 1392 	324 	1391
f 836 	844 	809
f 842 	694 	830
f 326 	324 	1392
f 809 	844 	815
f 845 	833 	831
f 694 	842 	724
f 847 	848 	478
f 846 	802 	833
f 1397 	332 	329
f 802 	846 	810
f 334 	332 	1397
f 732 	734 	838
f 847 	478 	475
f 848 	443 	478
f 338 	1069 	266
f 838 	837 	732
f 850 	846 	845
f 746 	443 	848
f 734 	779 	841
f 846 	850 	852
f 849 	844 	843
f 852 	820 	810
f 844 	849 	854
f 841 	838 	734
f 854 	817 	815
f 852 	810 	846
f 842 	779 	785
f 854 	815 	844
f 779 	842 	841
f 853 	848 	847
f 724 	842 	785
f 857 	860 	719
f 768 	792 	289
f 860 	721 	719
f 890 	862 	856
f 855 	966 	863
f 290 	289 	792
f 709 	753 	787
f 787 	875 	709
f 792 	794 	290
f 795 	290 	794
f 848 	853 	858
f 721 	860 	864
f 858 	756 	746
f 393 	379 	864
f 857 	905 	867
f 746 	848 	858
f 866 	868 	770
f 865 	869 	793
f 795 	793 	869
f 865 	870 	869
f 866 	770 	766
f 945 	858 	853
f 945 	1002 	858
f 773 	770 	868
f 860 	867 	871
f 870 	865 	872
f 880 	883 	865
f 851 	874 	861
f 787 	773 	873
f 873 	875 	787
f 867 	860 	857
f 877 	864 	871
f 756 	1002 	878
f 401 	868 	866
f 291 	290 	869
f 760 	878 	879
f 401 	406 	868
f 871 	864 	860
f 869 	870 	291
f 795 	869 	290
f 876 	760 	879
f 872 	291 	870
f 406 	442 	873
f 861 	881 	859
f 880 	882 	883
f 880 	885 	882
f 876 	879 	884
f 872 	865 	883
f 406 	873 	868
f 442 	875 	873
f 871 	867 	910
f 875 	442 	446
f 834 	829 	824
f 910 	911 	871
f 446 	110 	715
f 840 	722 	829
f 446 	715 	875
f 877 	871 	911
f 722 	840 	736
f 911 	887 	877
f 1340 	877 	887
f 888 	889 	834
f 856 	863 	890
f 834 	889 	840
f 911 	915 	887
f 888 	834 	832
f 802 	807 	890
f 863 	856 	855
f 894 	862 	890
f 896 	822 	893
f 895 	897 	886
f 874 	881 	861
f 897 	730 	727
f 885 	287 	882
f 975 	862 	894
f 899 	896 	893
f 897 	727 	886
f 863 	802 	890
f 857 	718 	896
f 898 	892 	891
f 898 	900 	892
f 901 	881 	874
f 900 	895 	892
f 900 	902 	895
f 894 	890 	807
f 902 	903 	897
f 899 	905 	896
f 872 	883 	291
f 902 	897 	895
f 874 	904 	901
f 882 	287 	883
f 903 	730 	897
f 857 	896 	905
f 287 	291 	883
f 903 	753 	730
f 766 	900 	898
f 906 	908 	880
f 906 	907 	908
f 766 	770 	900
f 412 	881 	432
f 948 	867 	905
f 770 	773 	902
f 893 	817 	1015
f 881 	412 	859
f 907 	906 	909
f 926 	927 	906
f 902 	900 	770
f 885 	880 	908
f 787 	903 	773
f 412 	383 	859
f 903 	902 	773
f 904 	912 	901
f 753 	903 	787
f 913 	911 	910
f 913 	915 	911
f 840 	889 	917
f 887 	915 	918
f 917 	747 	736
f 917 	736 	840
f 919 	920 	914
f 562 	921 	920
f 528 	901 	912
f 918 	1340 	887
f 285 	908 	907
f 916 	920 	921
f 909 	285 	907
f 233 	915 	913
f 233 	241 	915
f 920 	916 	914
f 921 	766 	916
f 766 	921 	866
f 560 	562 	920
f 894 	807 	922
f 439 	832 	814
f 439 	888 	832
f 922 	975 	894
f 325 	206 	574
f 560 	920 	919
f 812 	813 	922
f 426 	429 	108
f 325 	615 	371
f 812 	922 	807
f 921 	562 	566
f 566 	401 	866
f 566 	866 	921
f 885 	908 	287
f 901 	432 	881
f 285 	287 	908
f 695 	716 	1129
f 528 	432 	901
f 426 	963 	449
f 909 	906 	927
f 926 	929 	927
f 1159 	716 	558
f 931 	925 	924
f 931 	932 	925
f 932 	933 	928
f 884 	1268 	876
f 690 	695 	1129
f 934 	879 	878
f 934 	935 	879
f 932 	928 	925
f 884 	879 	935
f 935 	936 	884
f 933 	891 	928
f 1268 	884 	936
f 891 	933 	898
f 940 	932 	931
f 932 	940 	914
f 955 	943 	938
f 552 	912 	930
f 933 	932 	914
f 941 	942 	937
f 914 	916 	933
f 590 	552 	930
f 938 	603 	601
f 766 	898 	916
f 603 	938 	943
f 1280 	936 	935
f 898 	933 	916
f 943 	944 	607
f 912 	552 	528
f 241 	918 	915
f 241 	265 	918
f 962 	972 	926
f 943 	607 	603
f 108 	944 	426
f 513 	949 	942
f 947 	948 	905
f 939 	942 	949
f 949 	732 	939
f 942 	939 	937
f 947 	905 	899
f 689 	610 	1092
f 949 	796 	732
f 813 	826 	941
f 919 	914 	940
f 285 	927 	282
f 909 	927 	285
f 512 	513 	942
f 944 	108 	607
f 512 	942 	941
f 559 	560 	194
f 949 	513 	516
f 516 	134 	796
f 955 	958 	943
f 959 	232 	957
f 929 	282 	927
f 958 	944 	943
f 516 	796 	949
f 960 	235 	232
f 960 	232 	959
f 519 	485 	961
f 958 	963 	944
f 523 	519 	961
f 235 	960 	964
f 946 	923 	950
f 965 	243 	964
f 946 	950 	966
f 963 	426 	944
f 243 	965 	245
f 967 	245 	965
f 968 	249 	245
f 968 	245 	967
f 855 	946 	966
f 969 	523 	961
f 249 	968 	253
f 970 	253 	968
f 987 	971 	962
f 971 	972 	962
f 819 	1464 	969
f 929 	926 	972
f 831 	833 	966
f 969 	1464 	523
f 967 	965 	968
f 970 	968 	965
f 970 	965 	964
f 970 	964 	960
f 970 	960 	959
f 970 	959 	957
f 970 	957 	956
f 970 	956 	954
f 970 	954 	953
f 970 	953 	951
f 970 	951 	952
f 831 	966 	950
f 1217 	544 	536
f 1431 	976 	865
f 833 	863 	966
f 518 	1038 	485
f 924 	248 	931
f 288 	931 	248
f 288 	323 	931
f 931 	323 	940
f 996 	958 	955
f 940 	323 	919
f 182 	919 	323
f 973 	963 	958
f 919 	182 	560
f 194 	560 	182
f 975 	961 	485
f 973 	977 	963
f 975 	978 	961
f 853 	1138 	945
f 559 	1273 	535
f 979 	988 	976
f 831 	950 	980
f 978 	982 	969
f 983 	994 	979
f 1008 	977 	973
f 978 	969 	961
f 982 	819 	969
f 458 	459 	983
f 929 	972 	282
f 819 	982 	837
f 984 	938 	601
f 922 	985 	975
f 985 	978 	975
f 985 	937 	978
f 862 	485 	1038
f 982 	978 	937
f 601 	626 	984
f 983 	303 	458
f 939 	982 	937
f 280 	282 	972
f 939 	732 	837
f 986 	938 	984
f 971 	280 	972
f 986 	955 	938
f 837 	982 	939
f 922 	813 	985
f 941 	985 	813
f 941 	937 	985
f 1035 	946 	855
f 976 	880 	865
f 993 	955 	986
f 993 	996 	955
f 989 	990 	962
f 987 	962 	990
f 989 	991 	990
f 1155 	989 	1158
f 743 	741 	706
f 992 	743 	706
f 976 	988 	880
f 986 	1079 	993
f 996 	973 	958
f 983 	459 	994
f 1161 	1149 	1059
f 988 	979 	994
f 988 	994 	1024
f 948 	910 	867
f 874 	997 	904
f 1177 	999 	995
f 1000 	1001 	948
f 996 	998 	1003
f 756 	858 	1002
f 1003 	973 	996
f 980 	981 	1004
f 997 	999 	1006
f 1000 	948 	947
f 1005 	1007 	1002
f 998 	996 	993
f 910 	948 	1001
f 904 	997 	1006
f 910 	1001 	913
f 981 	980 	974
f 1003 	1008 	973
f 1005 	1002 	945
f 1004 	831 	980
f 999 	997 	995
f 977 	1008 	1205
f 1002 	1007 	878
f 831 	1004 	845
f 878 	1007 	934
f 904 	1006 	1009
f 360 	1001 	1000
f 1001 	360 	389
f 1010 	1011 	981
f 389 	233 	913
f 1004 	1011 	1013
f 1012 	1003 	998
f 389 	913 	1001
f 1004 	981 	1011
f 459 	1026 	994
f 666 	618 	99
f 845 	1013 	850
f 1026 	1024 	994
f 666 	1016 	618
f 1013 	845 	1004
f 1016 	1018 	627
f 1017 	1019 	1015
f 1016 	1027 	1018
f 1066 	1068 	1019
f 1021 	1006 	999
f 1006 	1021 	1022
f 1016 	627 	618
f 1062 	1009 	1022
f 893 	1019 	899
f 661 	1018 	1025
f 1068 	899 	1019
f 1019 	893 	1015
f 1022 	1009 	1006
f 1066 	1019 	1017
f 627 	1018 	661
f 1014 	1003 	1012
f 1014 	1008 	1003
f 1012 	1202 	1014
f 880 	988 	906
f 1018 	1027 	1030
f 1024 	906 	988
f 839 	158 	1031
f 1032 	1033 	749
f 1031 	1034 	839
f 1034 	849 	843
f 1034 	1046 	849
f 1040 	926 	1024
f 650 	1037 	1023
f 906 	1024 	926
f 1037 	1039 	1028
f 1015 	854 	849
f 1032 	749 	747
f 1040 	1024 	1026
f 1034 	843 	839
f 1033 	750 	749
f 1041 	1043 	1031
f 750 	1033 	1042
f 1042 	1044 	754
f 1026 	477 	1040
f 1038 	518 	501
f 1043 	1034 	1031
f 1037 	1028 	1023
f 1029 	1039 	1045
f 1042 	1056 	1044
f 1042 	754 	750
f 1043 	1046 	1034
f 1045 	1039 	115
f 1044 	626 	754
f 115 	1010 	1045
f 855 	856 	1036
f 626 	1044 	984
f 1039 	1029 	1028
f 855 	1036 	1035
f 1045 	981 	974
f 1036 	856 	1038
f 981 	1045 	1010
f 862 	1038 	856
f 1045 	974 	1029
f 1048 	849 	1046
f 217 	1050 	1037
f 849 	1048 	1015
f 477 	1051 	1040
f 1047 	1033 	1032
f 817 	854 	1015
f 1051 	962 	1040
f 1054 	1033 	1047
f 477 	570 	1051
f 1054 	1056 	1042
f 202 	204 	1041
f 1050 	1039 	1037
f 962 	926 	1040
f 1148 	1022 	1021
f 115 	1039 	1050
f 1054 	1042 	1033
f 1044 	1056 	1058
f 576 	1051 	570
f 1057 	1046 	1043
f 923 	1113 	1059
f 1060 	1046 	1057
f 1060 	1017 	1048
f 1017 	1015 	1048
f 962 	1051 	989
f 1061 	1063 	1059
f 576 	989 	1051
f 1062 	930 	1009
f 1060 	1048 	1046
f 1061 	974 	1063
f 1058 	984 	1044
f 923 	1063 	950
f 1156 	989 	576
f 984 	1058 	986
f 1063 	923 	1059
f 1156 	576 	580
f 974 	1061 	1029
f 501 	489 	1055
f 1063 	974 	980
f 1121 	1035 	1052
f 1165 	1056 	1054
f 1063 	980 	950
f 1165 	1167 	1056
f 1068 	947 	899
f 1053 	1035 	1036
f 1036 	1038 	1055
f 1055 	1038 	501
f 1055 	1053 	1036
f 1058 	1079 	986
f 1035 	1053 	1052
f 1025 	1018 	1030
f 1080 	1081 	1070
f 1030 	1083 	1025
f 1081 	1074 	1070
f 1085 	1079 	1167
f 1085 	1089 	1079
f 1065 	1062 	1022
f 1089 	998 	993
f 664 	1090 	1027
f 1065 	1091 	1062
f 1091 	1092 	1064
f 1089 	993 	1079
f 1081 	1093 	1074
f 1030 	1027 	1090
f 1076 	970 	1077
f 1075 	970 	1076
f 1072 	970 	1075
f 1071 	970 	1072
f 1067 	970 	1071
f 1069 	970 	1067
f 1078 	1077 	970
f 952 	1088 	970
f 1088 	1086 	970
f 1086 	1084 	970
f 1084 	1082 	970
f 1078 	970 	1082
f 1091 	1064 	1062
f 1095 	1089 	1208
f 1096 	1112 	1094
f 1068 	1073 	1099
f 1100 	1120 	1096
f 1025 	1101 	667
f 1025 	1083 	1101
f 500 	1000 	1099
f 1083 	1106 	1101
f 1102 	1081 	1020
f 1073 	1068 	1066
f 1091 	1098 	1103
f 1099 	947 	1068
f 687 	690 	1100
f 661 	1025 	667
f 1101 	669 	667
f 947 	1099 	1000
f 1104 	669 	1101
f 1100 	690 	1120
f 1104 	475 	669
f 1104 	847 	475
f 1098 	1117 	1103
f 494 	498 	1073
f 498 	500 	1099
f 1098 	1091 	1065
f 1101 	1106 	1104
f 500 	360 	1000
f 1106 	1108 	1104
f 1092 	1103 	1107
f 1108 	853 	847
f 1109 	1110 	1105
f 498 	1099 	1073
f 1108 	847 	1104
f 1137 	1138 	1108
f 1109 	1105 	1087
f 1041 	204 	1111
f 1103 	1092 	1091
f 1111 	1057 	1043
f 1110 	1049 	1105
f 1137 	1108 	1106
f 1111 	1115 	1057
f 1052 	1049 	1110
f 1111 	1043 	1041
f 1090 	1114 	1030
f 1111 	210 	1115
f 1114 	1083 	1030
f 1114 	1116 	1083
f 210 	214 	1115
f 1117 	1118 	1103
f 1106 	1083 	1116
f 204 	210 	1111
f 1323 	1094 	1112
f 1113 	1110 	1109
f 1020 	1023 	1102
f 1023 	1028 	1102
f 1121 	1110 	1113
f 1119 	1114 	1090
f 1122 	1057 	1115
f 1119 	1123 	1114
f 1020 	1081 	1080
f 1123 	1125 	1116
f 1122 	1124 	1060
f 1081 	1102 	1093
f 1052 	1110 	1121
f 1017 	1060 	1124
f 1123 	1128 	1125
f 1112 	1096 	1120
f 1102 	1126 	1093
f 1126 	1061 	1097
f 1123 	1116 	1114
f 1061 	1059 	1097
f 1137 	1116 	1125
f 923 	946 	1121
f 1126 	1097 	1093
f 1127 	1137 	1125
f 690 	1129 	1120
f 1121 	1113 	923
f 1122 	1060 	1057
f 1035 	1121 	946
f 1028 	1029 	1126
f 1226 	1123 	1119
f 1124 	1066 	1017
f 1126 	1102 	1028
f 1061 	1126 	1029
f 1130 	1115 	214
f 1125 	1128 	1131
f 1130 	1132 	1122
f 1313 	1127 	1131
f 1020 	1080 	652
f 1127 	1125 	1131
f 1080 	653 	652
f 651 	1023 	1020
f 1314 	1206 	1313
f 1115 	1130 	1122
f 652 	651 	1020
f 1124 	1132 	1135
f 651 	650 	1023
f 1134 	1055 	489
f 650 	217 	1037
f 1134 	489 	1217
f 1120 	1136 	1112
f 1052 	1133 	1049
f 1053 	1134 	1133
f 1053 	1055 	1134
f 1132 	1124 	1122
f 1316 	1313 	1131
f 1367 	660 	659
f 1052 	1053 	1133
f 1135 	1073 	1066
f 1116 	1137 	1106
f 1206 	945 	1138
f 1135 	1066 	1124
f 1137 	1127 	1138
f 1136 	1120 	1129
f 1127 	1206 	1138
f 215 	554 	1130
f 656 	1141 	1321
f 214 	215 	1130
f 554 	1132 	1130
f 1142 	1143 	1139
f 1143 	1145 	1140
f 1132 	554 	589
f 1118 	1107 	1103
f 589 	1135 	1132
f 1143 	1149 	1145
f 1118 	1146 	1107
f 1129 	716 	1144
f 494 	1135 	589
f 1143 	1140 	1139
f 971 	987 	280
f 494 	1073 	1135
f 1145 	1087 	1140
f 1146 	992 	706
f 1087 	1145 	1109
f 990 	280 	987
f 1070 	1074 	1142
f 1074 	1149 	1143
f 1144 	716 	1159
f 656 	655 	1141
f 655 	1154 	1141
f 991 	277 	990
f 1148 	1065 	1022
f 1136 	1356 	1112
f 1321 	657 	656
f 280 	990 	277
f 1065 	1148 	1153
f 1141 	1337 	1322
f 1144 	1136 	1129
f 1148 	1295 	1153
f 1147 	1151 	1152
f 1144 	1381 	1136
f 989 	1155 	991
f 1089 	1095 	998
f 1074 	1093 	1149
f 1065 	1153 	1098
f 998 	1095 	1012
f 1093 	1097 	1149
f 1097 	1059 	1149
f 1074 	1143 	1142
f 1337 	1141 	1154
f 1305 	1160 	1153
f 1338 	1157 	1142
f 1149 	1161 	1145
f 1295 	1305 	1153
f 1157 	1070 	1142
f 1161 	1113 	1109
f 1160 	1098 	1153
f 1059 	1113 	1161
f 654 	1162 	1154
f 1098 	1160 	1117
f 1161 	1109 	1145
f 1163 	1054 	1047
f 654 	653 	1162
f 1163 	1165 	1054
f 655 	654 	1154
f 1162 	1157 	1154
f 1058 	1056 	1167
f 1156 	1188 	1170
f 1156 	1170 	1158
f 1167 	1079 	1058
f 1159 	558 	567
f 1156 	1158 	989
f 1152 	402 	1147
f 567 	144 	1159
f 206 	144 	567
f 580 	1190 	1156
f 1172 	1151 	1150
f 1172 	1174 	1151
f 853 	1108 	1138
f 1152 	1151 	1174
f 1165 	1171 	1175
f 1174 	1176 	1152
f 402 	1152 	1176
f 991 	1155 	277
f 1173 	1177 	1164
f 1171 	1165 	1163
f 567 	574 	206
f 1167 	1175 	1085
f 1174 	1172 	774
f 995 	1164 	1177
f 774 	777 	1174
f 574 	615 	325
f 1175 	1167 	1165
f 1336 	1178 	1166
f 1178 	1168 	1166
f 253 	970 	1179
f 777 	1176 	1174
f 1178 	1180 	1168
f 277 	1158 	292
f 1180 	1173 	1168
f 1180 	1183 	1173
f 1170 	292 	1158
f 1223 	1175 	1171
f 1183 	1186 	1177
f 277 	1155 	1158
f 1191 	304 	1189
f 1190 	1192 	1193
f 1202 	886 	727
f 304 	1191 	305
f 1194 	305 	1191
f 1183 	1177 	1173
f 1190 	1193 	1156
f 1188 	1156 	1193
f 1195 	306 	305
f 1195 	305 	1194
f 1186 	999 	1177
f 306 	1195 	1197
f 999 	1186 	1021
f 1198 	309 	1197
f 580 	595 	1190
f 309 	1198 	1199
f 1200 	1201 	1196
f 1197 	1195 	1198
f 1199 	1198 	1195
f 1199 	1195 	1194
f 1199 	1194 	1191
f 1189 	1388 	1191
f 1187 	1388 	1189
f 1185 	1388 	1187
f 1182 	1388 	1185
f 1181 	1388 	1182
f 1179 	1388 	1181
f 970 	1395 	1179
f 1200 	809 	1201
f 1211 	1202 	1012
f 963 	977 	449
f 1157 	1162 	1070
f 1204 	1209 	1169
f 1257 	1021 	1186
f 467 	977 	1205
f 1200 	1196 	1184
f 886 	1202 	1211
f 1201 	1150 	1196
f 1014 	1207 	1008
f 1150 	1201 	1172
f 1214 	1209 	1204
f 1206 	1005 	945
f 1127 	1313 	1206
f 836 	809 	1200
f 1008 	1207 	1205
f 1208 	1089 	1085
f 1206 	1314 	1005
f 1201 	809 	811
f 811 	774 	1172
f 1210 	1211 	1095
f 1209 	536 	1169
f 1172 	1201 	811
f 227 	229 	1293
f 1014 	1202 	1212
f 1211 	1012 	1095
f 1212 	1227 	1207
f 1213 	1204 	1203
f 1213 	1214 	1204
f 1212 	1207 	1014
f 1188 	1193 	292
f 1215 	1216 	823
f 1214 	1217 	1209
f 727 	728 	1212
f 1209 	1217 	536
f 1258 	619 	353
f 1210 	1095 	1208
f 1202 	727 	1212
f 1214 	1213 	1049
f 1215 	823 	820
f 449 	977 	467
f 1049 	1133 	1214
f 826 	1216 	1218
f 1133 	1134 	1217
f 1219 	1211 	1210
f 227 	1245 	359
f 467 	1205 	520
f 1217 	1214 	1133
f 1162 	653 	1080
f 489 	544 	1217
f 503 	524 	1316
f 1070 	1162 	1080
f 1207 	1221 	1205
f 1221 	520 	1205
f 1219 	886 	1211
f 1225 	1222 	1220
f 665 	1027 	1016
f 666 	665 	1016
f 1219 	892 	895
f 665 	664 	1027
f 895 	886 	1219
f 1090 	664 	663
f 663 	1119 	1090
f 1207 	1227 	1221
f 1170 	1188 	292
f 1175 	1223 	1224
f 1220 	1363 	1225
f 676 	1226 	1119
f 1225 	1228 	1222
f 293 	292 	1193
f 1229 	1230 	1180
f 1192 	293 	1193
f 1227 	1212 	728
f 1208 	1085 	1224
f 676 	1119 	663
f 1190 	1231 	1192
f 728 	1274 	1227
f 1224 	1085 	1175
f 1274 	1271 	1227
f 1128 	1123 	1226
f 676 	675 	1226
f 1190 	595 	102
f 1226 	675 	1233
f 102 	1235 	1190
f 1231 	1190 	1235
f 1221 	547 	520
f 1233 	1234 	1128
f 1347 	531 	538
f 108 	1247 	102
f 538 	619 	1347
f 1271 	1221 	1227
f 1232 	1224 	1223
f 1233 	1244 	1234
f 1246 	1236 	102
f 1235 	102 	1236
f 1271 	547 	1221
f 1224 	1232 	1238
f 1238 	1208 	1224
f 1233 	1128 	1226
f 1238 	1210 	1208
f 1234 	1316 	1131
f 1232 	1372 	1241
f 1131 	1128 	1234
f 1241 	1243 	1238
f 674 	1244 	1233
f 1243 	1210 	1238
f 1192 	1231 	293
f 675 	674 	1233
f 1231 	1235 	293
f 1241 	1238 	1232
f 1243 	1219 	1210
f 503 	1234 	1244
f 294 	293 	1235
f 892 	1219 	1243
f 503 	1316 	1234
f 674 	673 	1244
f 1240 	1245 	1293
f 673 	526 	1244
f 1236 	294 	1235
f 503 	1244 	526
f 1293 	1242 	1240
f 108 	109 	1247
f 891 	892 	1243
f 1245 	1240 	1239
f 1246 	102 	1247
f 1241 	891 	1243
f 671 	385 	381
f 1247 	295 	294
f 672 	671 	381
f 1183 	1180 	1230
f 1005 	1314 	1248
f 1229 	1180 	1178
f 1250 	1183 	1230
f 1246 	1247 	294
f 1236 	1246 	294
f 349 	350 	548
f 1183 	1250 	1186
f 928 	891 	1241
f 1251 	1252 	1249
f 1288 	1292 	1250
f 1398 	363 	349
f 1253 	889 	888
f 1251 	1249 	1248
f 1253 	1255 	889
f 1252 	1237 	1249
f 1255 	1256 	917
f 1239 	1237 	1252
f 1250 	1257 	1186
f 1360 	1258 	1251
f 1255 	1260 	1256
f 1258 	1252 	1251
f 1255 	917 	889
f 1256 	747 	917
f 747 	1256 	1032
f 1148 	1021 	1257
f 109 	295 	1247
f 1258 	1259 	1252
f 266 	1069 	267
f 1067 	267 	1069
f 1259 	1245 	1239
f 267 	1067 	268
f 1071 	268 	1067
f 1256 	1260 	1261
f 1072 	269 	268
f 1072 	268 	1071
f 1228 	1203 	1222
f 1261 	1047 	1032
f 1239 	1252 	1259
f 1203 	1228 	1213
f 269 	1072 	270
f 1075 	270 	1072
f 1076 	272 	270
f 1076 	270 	1075
f 1261 	1032 	1256
f 1140 	1087 	1225
f 272 	1076 	273
f 1077 	273 	1076
f 1228 	1225 	1087
f 1258 	1360 	619
f 1078 	276 	273
f 1078 	273 	1077
f 1087 	1105 	1228
f 353 	359 	1259
f 276 	1078 	279
f 1082 	279 	1078
f 1049 	1213 	1105
f 1084 	281 	279
f 1084 	279 	1082
f 353 	1259 	1258
f 1105 	1213 	1228
f 281 	1084 	284
f 1086 	284 	1084
f 359 	1245 	1259
f 1263 	1264 	121
f 1088 	286 	284
f 1088 	284 	1086
f 1248 	1007 	1005
f 286 	1088 	224
f 952 	224 	1088
f 1265 	1267 	191
f 1266 	1255 	1253
f 1249 	1007 	1248
f 1266 	1260 	1255
f 1249 	1237 	934
f 1260 	1268 	1269
f 1263 	121 	1262
f 1375 	1264 	1254
f 1265 	191 	188
f 1260 	1269 	1261
f 1254 	1264 	1164
f 585 	584 	1272
f 194 	1267 	1273
f 1272 	1270 	1275
f 1375 	121 	1264
f 1274 	1368 	1271
f 1275 	1270 	1277
f 1260 	1266 	1268
f 1267 	194 	191
f 1269 	1278 	1261
f 559 	194 	1273
f 739 	744 	1274
f 1237 	935 	934
f 314 	585 	1272
f 1276 	1264 	1263
f 739 	1274 	728
f 1007 	1249 	934
f 1164 	1264 	1276
f 744 	1368 	1274
f 1272 	1275 	315
f 315 	314 	1272
f 1257 	1295 	1148
f 1277 	315 	1275
f 1237 	1280 	935
f 1280 	1281 	936
f 1283 	1282 	1284
f 1267 	1279 	1285
f 1286 	1288 	1230
f 1280 	1237 	1239
f 1282 	1304 	1306
f 1240 	1281 	1280
f 1204 	1169 	1285
f 1240 	1242 	1281
f 1279 	1267 	1265
f 1302 	1292 	1288
f 1273 	1267 	1285
f 1286 	1230 	1229
f 1282 	1283 	1290
f 1239 	1240 	1280
f 1250 	1230 	1288
f 373 	1291 	1287
f 1273 	1285 	1169
f 1290 	1270 	1282
f 1277 	1270 	1290
f 1169 	535 	1273
f 1257 	1250 	1292
f 1293 	1294 	1242
f 1292 	1295 	1257
f 229 	1294 	1293
f 1203 	1279 	1222
f 229 	248 	1294
f 358 	373 	1287
f 1203 	1204 	1285
f 1291 	1289 	1287
f 1366 	1242 	1294
f 1289 	1291 	1296
f 1290 	316 	315
f 1203 	1285 	1279
f 1296 	1262 	1289
f 1277 	1290 	315
f 1296 	1263 	1262
f 1284 	316 	1283
f 1283 	316 	1290
f 1297 	1288 	1286
f 142 	1298 	219
f 384 	1299 	1291
f 1298 	1300 	222
f 1299 	1301 	1296
f 1288 	1297 	1302
f 1302 	1303 	1292
f 1303 	1295 	1292
f 1298 	222 	219
f 1295 	1303 	1305
f 1300 	188 	222
f 188 	1300 	1265
f 1299 	1296 	1291
f 1284 	1282 	1306
f 143 	1307 	1298
f 1301 	1276 	1263
f 1304 	1308 	1306
f 1047 	1261 	1278
f 1047 	1278 	1163
f 1301 	1263 	1296
f 1094 	1323 	1304
f 997 	874 	851
f 1308 	1304 	1310
f 1323 	1327 	1304
f 1309 	1311 	1269
f 143 	1298 	142
f 1307 	1300 	1298
f 1284 	1306 	316
f 1312 	1300 	1307
f 1009 	912 	904
f 1312 	1279 	1265
f 1309 	1269 	1268
f 1312 	1265 	1300
f 227 	1293 	1245
f 317 	316 	1306
f 995 	1254 	1164
f 1306 	1308 	317
f 1312 	1307 	1220
f 930 	912 	1009
f 995 	851 	1254
f 1308 	1310 	317
f 1294 	248 	1366
f 1220 	1222 	1312
f 995 	997 	851
f 1312 	1222 	1279
f 1166 	1168 	1301
f 930 	1062 	1064
f 1301 	1168 	1276
f 1278 	1269 	1311
f 1064 	610 	590
f 1301 	1299 	1166
f 1064 	1092 	610
f 1278 	1311 	1317
f 1318 	1380 	1315
f 1317 	1171 	1163
f 1064 	590 	930
f 1316 	1319 	1313
f 1319 	1320 	1314
f 1168 	1173 	1276
f 1173 	1164 	1276
f 1278 	1317 	1163
f 1318 	103 	1380
f 1319 	1347 	1320
f 706 	689 	1107
f 689 	1092 	1107
f 1216 	826 	823
f 1107 	1146 	706
f 1321 	1322 	1315
f 511 	512 	1218
f 1322 	1324 	1318
f 1323 	1325 	1327
f 1323 	1329 	1325
f 1341 	1317 	1311
f 393 	1334 	1326
f 1310 	1304 	1327
f 1322 	1318 	1315
f 384 	1326 	1330
f 1350 	1318 	1324
f 1166 	1299 	1330
f 1319 	1314 	1313
f 1330 	1336 	1166
f 1320 	1248 	1314
f 1216 	1328 	1333
f 1330 	1299 	384
f 1248 	1320 	1251
f 1326 	1334 	1335
f 1335 	1336 	1330
f 1151 	1147 	1333
f 1141 	1322 	1321
f 1328 	1216 	1215
f 925 	928 	1372
f 1218 	1216 	1333
f 1335 	1330 	1326
f 1337 	1324 	1322
f 1218 	1333 	1147
f 1337 	1338 	1324
f 1332 	1338 	1139
f 511 	1218 	1147
f 1140 	1363 	1139
f 1340 	1335 	1334
f 1328 	1359 	1196
f 1339 	1311 	1309
f 1335 	1340 	1343
f 1150 	1328 	1196
f 1339 	1341 	1311
f 1324 	1338 	1332
f 1336 	1335 	1343
f 1150 	1151 	1333
f 1341 	1342 	1317
f 1346 	1336 	1343
f 1317 	1342 	1171
f 1325 	310 	1327
f 1150 	1333 	1328
f 1225 	1363 	1140
f 1346 	1178 	1336
f 1154 	1157 	1337
f 1329 	310 	1325
f 1344 	1345 	852
f 1223 	1171 	1342
f 1347 	1319 	524
f 1346 	1229 	1178
f 1337 	1157 	1338
f 1348 	1349 	1341
f 1142 	1139 	1338
f 524 	531 	1347
f 918 	1351 	1340
f 1350 	103 	1318
f 1344 	852 	850
f 1351 	1352 	1343
f 1345 	820 	852
f 317 	1327 	310
f 1363 	1220 	1353
f 820 	1345 	1215
f 1344 	1444 	1354
f 1350 	1332 	1353
f 1348 	1341 	1339
f 1354 	1345 	1344
f 1355 	1342 	1349
f 317 	1310 	1327
f 1351 	1343 	1340
f 1307 	1353 	1220
f 1307 	143 	1353
f 1323 	1112 	1356
f 524 	1319 	1316
f 1356 	1357 	1358
f 1324 	1332 	1350
f 1354 	1359 	1345
f 1359 	1328 	1215
f 1349 	1342 	1341
f 1356 	1358 	1323
f 1346 	1352 	1361
f 1355 	1232 	1223
f 1363 	1353 	1332
f 1357 	1356 	1364
f 1381 	1382 	1356
f 596 	547 	1271
f 1352 	1346 	1343
f 1332 	1139 	1363
f 124 	1365 	1331
f 1372 	1232 	1355
f 1356 	1136 	1381
f 1359 	1215 	1345
f 1342 	1355 	1223
f 660 	421 	161
f 1366 	1349 	1348
f 421 	660 	1367
f 1367 	1369 	424
f 1349 	1366 	1370
f 1329 	1323 	1358
f 1355 	1349 	1370
f 1362 	1365 	1371
f 1370 	1372 	1355
f 1357 	308 	1358
f 1378 	617 	1368
f 1367 	424 	421
f 1364 	308 	1357
f 1365 	1362 	1331
f 924 	925 	1370
f 1370 	1366 	924
f 925 	1372 	1370
f 596 	1271 	1368
f 1407 	1374 	859
f 861 	859 	1374
f 928 	1241 	1372
f 1368 	744 	1378
f 492 	424 	1369
f 495 	1373 	1387
f 1380 	1387 	1373
f 1375 	1371 	1365
f 1329 	1358 	310
f 1375 	1376 	1371
f 1367 	659 	1377
f 1376 	1374 	1371
f 153 	775 	767
f 1374 	1376 	861
f 1368 	617 	596
f 153 	790 	775
f 659 	658 	1377
f 1377 	1369 	1367
f 888 	453 	752
f 888 	752 	1253
f 1376 	1375 	1254
f 752 	876 	1266
f 752 	1266 	1253
f 1379 	1369 	1377
f 876 	1268 	1266
f 1376 	1254 	851
f 308 	310 	1358
f 1268 	936 	1309
f 1379 	1373 	1369
f 851 	861 	1376
f 1339 	1309 	1281
f 936 	1281 	1309
f 1373 	1379 	1380
f 1348 	1339 	1242
f 1281 	1242 	1339
f 684 	180 	179
f 1348 	1242 	1366
f 1364 	1356 	1382
f 1366 	248 	924
f 1381 	131 	1382
f 1380 	103 	1387
f 211 	440 	759
f 1144 	1404 	1381
f 759 	1406 	767
f 658 	1383 	1377
f 1383 	1315 	1379
f 790 	153 	275
f 1315 	1380 	1379
f 275 	800 	790
f 397 	814 	800
f 1377 	1383 	1379
f 397 	439 	814
f 453 	888 	439
f 1384 	631 	630
f 1378 	701 	617
f 631 	1384 	1385
f 1385 	1386 	634
f 1402 	437 	433
f 1378 	604 	606
f 658 	657 	1383
f 606 	701 	1378
f 1385 	1396 	1386
f 657 	1321 	1383
f 701 	606 	733
f 1321 	1315 	1383
f 1373 	492 	1369
f 1360 	1320 	1347
f 440 	437 	1405
f 308 	1382 	126
f 1360 	1251 	1320
f 116 	461 	460
f 103 	142 	1387
f 606 	679 	733
f 221 	220 	161
f 492 	1373 	495
f 1382 	308 	1364
f 131 	126 	1382
f 1387 	496 	495
f 1387 	142 	496
f 1361 	1229 	1346
f 1385 	634 	631
f 1229 	1361 	1286
f 1386 	349 	548
f 165 	696 	162
f 1270 	1272 	584
f 918 	265 	1351
f 164 	166 	1352
f 1386 	548 	634
f 1384 	1417 	1393
f 164 	1352 	1351
f 1392 	1394 	326
f 460 	696 	165
f 1393 	1385 	1384
f 1361 	1352 	166
f 1393 	1396 	1385
f 1395 	329 	326
f 1395 	326 	1394
f 687 	1447 	818
f 1361 	166 	170
f 329 	1395 	1397
f 170 	1297 	1286
f 1386 	1396 	1398
f 171 	162 	720
f 1399 	334 	1397
f 170 	1286 	1361
f 1398 	349 	1386
f 334 	1399 	336
f 1400 	336 	1399
f 219 	496 	142
f 460 	165 	116
f 1401 	338 	336
f 1401 	336 	1400
f 120 	461 	116
f 338 	1401 	1069
f 120 	1402 	433
f 1362 	1403 	1396
f 1399 	970 	1400
f 1401 	1400 	970
f 1397 	970 	1399
f 1395 	970 	1397
f 1394 	1179 	1395
f 1392 	1179 	1394
f 1391 	1179 	1392
f 1390 	1179 	1391
f 1389 	1179 	1390
f 1388 	1179 	1389
f 1199 	1191 	1388
f 1069 	1401 	970
f 1371 	1403 	1362
f 461 	120 	433
f 437 	1402 	1405
f 1362 	1396 	1393
f 763 	764 	992
f 440 	1405 	1406
f 1404 	122 	1381
f 131 	1381 	122
f 1403 	1398 	1396
f 1406 	759 	440
f 1359 	1354 	1184
f 1404 	1144 	1159
f 1184 	1196 	1359
f 1159 	144 	1404
f 1094 	105 	1473
f 144 	146 	1404
f 1422 	793 	763
f 1404 	151 	123
f 1404 	123 	122
f 1094 	1473 	1096
f 100 	1405 	1402
f 101 	1406 	1405
f 1407 	1398 	1403
f 1407 	383 	363
f 859 	383 	1407
f 100 	101 	1405
f 1407 	363 	1398
f 1411 	767 	1406
f 1354 	1409 	1184
f 128 	1402 	120
f 1402 	128 	100
f 1371 	1374 	1403
f 1409 	1354 	1444
f 131 	122 	126
f 101 	1411 	1406
f 1410 	1118 	1117
f 1408 	1429 	1409
f 152 	153 	1411
f 1407 	1403 	1374
f 1118 	1410 	1412
f 153 	767 	1411
f 1412 	1414 	1146
f 101 	152 	1411
f 1184 	1409 	1413
f 684 	179 	1415
f 1200 	1184 	1413
f 1414 	992 	1146
f 1415 	1384 	630
f 1415 	1417 	1384
f 836 	1200 	1413
f 684 	1415 	630
f 1412 	1146 	1118
f 203 	1415 	179
f 1415 	203 	1417
f 1414 	763 	992
f 1416 	1418 	130
f 1414 	1422 	763
f 1418 	1424 	1408
f 1419 	1412 	1410
f 1417 	1331 	1393
f 1420 	137 	223
f 1419 	1421 	1412
f 1331 	1362 	1393
f 1421 	1414 	1412
f 1420 	1423 	1416
f 1421 	1422 	1414
f 1423 	1424 	1418
f 466 	1425 	189
f 1433 	1424 	1423
f 196 	1425 	1426
f 1423 	1418 	1416
f 1427 	1437 	203
f 1429 	1408 	1424
f 479 	1430 	1425
f 1429 	1413 	1409
f 149 	150 	1420
f 479 	358 	1430
f 1440 	1421 	1419
f 1428 	1422 	1421
f 149 	1420 	223
f 1431 	1422 	1428
f 150 	1423 	1420
f 1431 	865 	793
f 1426 	1430 	1432
f 793 	1422 	1431
f 1432 	1427 	1426
f 1424 	1433 	1434
f 1429 	1434 	835
f 836 	1413 	835
f 1446 	976 	1431
f 1430 	1426 	1425
f 1429 	1424 	1434
f 1431 	1428 	1446
f 1429 	835 	1413
f 1435 	1410 	1117
f 156 	158 	1433
f 1435 	1436 	1410
f 1430 	358 	1287
f 1287 	1432 	1430
f 1160 	1435 	1117
f 158 	839 	1434
f 1287 	1289 	1432
f 839 	835 	1434
f 1419 	1410 	1436
f 1434 	1433 	158
f 1417 	203 	1437
f 1437 	1331 	1417
f 1432 	125 	1427
f 1439 	1419 	1436
f 125 	1437 	1427
f 125 	124 	1437
f 1439 	1436 	132
f 124 	1331 	1437
f 1439 	1440 	1419
f 1289 	1262 	125
f 114 	1011 	1010
f 1440 	1428 	1421
f 1262 	124 	125
f 1438 	1013 	1011
f 1441 	1013 	1438
f 1432 	1289 	125
f 1441 	850 	1013
f 1439 	141 	1442
f 121 	124 	1262
f 1441 	1344 	850
f 1365 	124 	121
f 1438 	130 	1443
f 121 	1375 	1365
f 1441 	1438 	1443
f 1443 	1444 	1441
f 132 	141 	1439
f 687 	1100 	1447
f 1440 	1442 	1445
f 1444 	1344 	1441
f 1418 	1408 	1443
f 1418 	1443 	130
f 105 	1304 	1282
f 1442 	1440 	1439
f 1408 	1409 	1444
f 1428 	1440 	1445
f 1481 	105 	1282
f 1444 	1443 	1408
f 1428 	1445 	1446
f 1094 	1304 	105
f 218 	1050 	217
f 218 	118 	1050
f 118 	1448 	115
f 1442 	141 	148
f 1442 	148 	1449
f 1448 	1010 	115
f 117 	1448 	118
f 1449 	1445 	1442
f 117 	129 	1448
f 1449 	1450 	1445
f 1450 	1446 	1445
f 118 	115 	1050
f 1450 	979 	1446
f 1010 	1448 	114
f 979 	976 	1446
f 114 	1438 	1011
f 129 	114 	1448
f 1450 	1449 	303
f 1451 	190 	185
f 1452 	190 	1451
f 1451 	185 	183
f 303 	983 	1450
f 983 	979 	1450
f 1452 	1453 	190
f 169 	1454 	1297
f 1454 	1455 	1302
f 1453 	1447 	1474
f 818 	1447 	1453
f 1453 	1474 	190
f 1454 	1302 	1297
f 1456 	1453 	1452
f 818 	1453 	1456
f 1455 	1303 	1302
f 1303 	1455 	1457
f 827 	1456 	821
f 1457 	1458 	1305
f 827 	818 	1456
f 1459 	259 	493
f 1460 	274 	1459
f 1451 	183 	1460
f 1460 	183 	274
f 510 	1461 	1459
f 1457 	1305 	1303
f 493 	510 	1459
f 1461 	1460 	1459
f 1458 	1160 	1305
f 1460 	1461 	1462
f 1462 	1451 	1460
f 1462 	1452 	1451
f 1435 	1160 	1458
f 186 	1463 	1454
f 1464 	1465 	1462
f 1464 	1462 	1461
f 1456 	1452 	1465
f 169 	186 	1454
f 1465 	1452 	1462
f 1463 	1455 	1454
f 819 	1465 	1464
f 1455 	1463 	1466
f 819 	821 	1465
f 1466 	1467 	1457
f 1465 	821 	1456
f 1466 	113 	1467
f 133 	177 	1468
f 1466 	1457 	1455
f 1458 	1467 	1470
f 1468 	185 	1471
f 1471 	1472 	1469
f 1471 	1469 	1468
f 185 	1468 	177
f 1467 	1458 	1457
f 1482 	1469 	1472
f 1435 	1458 	1470
f 1482 	1472 	1473
f 1435 	1470 	1436
f 1473 	105 	1482
f 190 	1471 	185
f 1463 	186 	201
f 1471 	190 	1474
f 201 	107 	1463
f 1474 	1472 	1471
f 1474 	1475 	1472
f 1475 	1473 	1472
f 107 	1466 	1463
f 1475 	1096 	1473
f 1474 	1447 	1475
f 1100 	1475 	1447
f 1467 	113 	119
f 1100 	1096 	1475
f 697 	112 	1476
f 1476 	698 	697
f 1476 	1477 	698
f 119 	1470 	1467
f 1479 	1477 	1476
f 112 	697 	110
f 1477 	1478 	705
f 1470 	132 	1436
f 1478 	584 	705
f 107 	113 	1466
f 1477 	705 	698
f 1478 	1270 	584
f 119 	132 	1470
f 107 	216 	106
f 1479 	1480 	1477
f 1480 	1478 	1477
f 1480 	1481 	1478
f 1481 	1270 	1478
f 1481 	1282 	1270
f 1479 	1468 	1469
f 1482 	1480 	1469
f 1482 	1481 	1480
f 1469 	1480 	1479
f 1482 	105 	1481
# 2764 faces

 #end of obj_1

