{
	"asset":{
		"generator":"Khronos glTF Blender I/O v5.1.20",
		"version":"2.0"
	},
	"scene":0,
	"scenes":[
		{
			"name":"Scene",
			"nodes":[
				0
			]
		}
	],
	"nodes":[
		{
			"mesh":0,
			"name":"road_slab"
		}
	],
	"materials":[
		{
			"doubleSided":true,
			"name":"Route_Bris\u00e9e",
			"pbrMetallicRoughness":{
				"metallicFactor":0,
				"roughnessFactor":0.5527864098548889
			}
		}
	],
	"meshes":[
		{
			"name":"Mesh.061",
			"primitives":[
				{
					"attributes":{
						"POSITION":0,
						"NORMAL":1,
						"TEXCOORD_0":2
					},
					"indices":3,
					"material":0
				}
			]
		}
	],
	"accessors":[
		{
			"bufferView":0,
			"componentType":5126,
			"count":1091,
			"max":[
				2.475503921508789,
				0.134592205286026,
				0.8855090141296387
			],
			"min":[
				-2.475503921508789,
				0,
				-0.8855087757110596
			],
			"type":"VEC3"
		},
		{
			"bufferView":1,
			"componentType":5126,
			"count":1091,
			"type":"VEC3"
		},
		{
			"bufferView":2,
			"componentType":5126,
			"count":1091,
			"type":"VEC2"
		},
		{
			"bufferView":3,
			"componentType":5123,
			"count":2094,
			"type":"SCALAR"
		}
	],
	"bufferViews":[
		{
			"buffer":0,
			"byteLength":13092,
			"byteOffset":0,
			"target":34962
		},
		{
			"buffer":0,
			"byteLength":13092,
			"byteOffset":13092,
			"target":34962
		},
		{
			"buffer":0,
			"byteLength":8728,
			"byteOffset":26184,
			"target":34962
		},
		{
			"buffer":0,
			"byteLength":4188,
			"byteOffset":34912,
			"target":34963
		}
	],
	"buffers":[
		{
			"byteLength":39100,
			"uri":"road_slab.bin"
		}
	]
}
