{
	"asset":{
		"generator":"Khronos glTF Blender I/O v5.1.20",
		"version":"2.0"
	},
	"extensionsUsed":[
		"KHR_materials_specular",
		"KHR_materials_ior"
	],
	"scene":0,
	"scenes":[
		{
			"name":"Scene",
			"nodes":[
				0
			]
		}
	],
	"nodes":[
		{
			"mesh":0,
			"name":"cash_register"
		}
	],
	"materials":[
		{
			"doubleSided":true,
			"extensions":{
				"KHR_materials_specular":{
					"specularColorFactor":[
						2.0,
						2.0,
						2.0
					]
				},
				"KHR_materials_ior":{
					"ior":1.4500000476837158
				}
			},
			"name":"CashRegister_01",
			"normalTexture":{
				"index":0
			},
			"pbrMetallicRoughness":{
				"baseColorTexture":{
					"index":1
				},
				"metallicRoughnessTexture":{
					"index":2
				}
			}
		},
		{
			"alphaMode":"BLEND",
			"doubleSided":true,
			"name":"CashRegister_01_glass",
			"normalTexture":{
				"index":3
			},
			"pbrMetallicRoughness":{
				"baseColorTexture":{
					"index":4
				},
				"metallicRoughnessTexture":{
					"index":5
				}
			}
		}
	],
	"meshes":[
		{
			"name":"Cash_register.002",
			"primitives":[
				{
					"attributes":{
						"POSITION":0,
						"NORMAL":1,
						"TEXCOORD_0":2
					},
					"indices":3,
					"material":0
				},
				{
					"attributes":{
						"POSITION":4,
						"NORMAL":5,
						"TEXCOORD_0":6
					},
					"indices":7,
					"material":1
				}
			]
		}
	],
	"textures":[
		{
			"sampler":0,
			"source":0
		},
		{
			"sampler":0,
			"source":1
		},
		{
			"sampler":0,
			"source":2
		},
		{
			"sampler":0,
			"source":3
		},
		{
			"sampler":0,
			"source":4
		},
		{
			"sampler":0,
			"source":5
		}
	],
	"images":[
		{
			"mimeType":"image/jpeg",
			"name":"CashRegister_01_nor_gl",
			"uri":"CashRegister_01_nor_gl.jpg"
		},
		{
			"mimeType":"image/jpeg",
			"name":"CashRegister_01_diff_1k",
			"uri":"CashRegister_01_diff_1k.jpg"
		},
		{
			"mimeType":"image/jpeg",
			"name":"CashRegister_01_metallic-CashRegister_01_roughness",
			"uri":"CashRegister_01_metallic-CashRegister_01_roughness.jpg"
		},
		{
			"mimeType":"image/jpeg",
			"name":"CashRegister_01_glass_nor_gl_1k",
			"uri":"CashRegister_01_glass_nor_gl_1k.jpg"
		},
		{
			"mimeType":"image/png",
			"name":"CashRegister_01_glass_diff-CashRegister_01_glass_opacity",
			"uri":"CashRegister_01_glass_diff-CashRegister_01_glass_opacity.png"
		},
		{
			"mimeType":"image/jpeg",
			"name":"CashRegister_01_glass_metallic-CashRegister_01_glass_roughness",
			"uri":"CashRegister_01_glass_metallic-CashRegister_01_glass_roughness.jpg"
		}
	],
	"accessors":[
		{
			"bufferView":0,
			"componentType":5126,
			"count":9128,
			"max":[
				0.30024534463882446,
				0.6213557720184326,
				0.3121025562286377
			],
			"min":[
				-0.30024534463882446,
				0,
				-0.3121025562286377
			],
			"type":"VEC3"
		},
		{
			"bufferView":1,
			"componentType":5126,
			"count":9128,
			"type":"VEC3"
		},
		{
			"bufferView":2,
			"componentType":5126,
			"count":9128,
			"type":"VEC2"
		},
		{
			"bufferView":3,
			"componentType":5123,
			"count":29763,
			"type":"SCALAR"
		},
		{
			"bufferView":4,
			"componentType":5126,
			"count":12,
			"max":[
				0.11689697951078415,
				0.6075412631034851,
				-0.1610792875289917
			],
			"min":[
				-0.22811532020568848,
				0.5624755024909973,
				-0.2839686870574951
			],
			"type":"VEC3"
		},
		{
			"bufferView":5,
			"componentType":5126,
			"count":12,
			"type":"VEC3"
		},
		{
			"bufferView":6,
			"componentType":5126,
			"count":12,
			"type":"VEC2"
		},
		{
			"bufferView":7,
			"componentType":5123,
			"count":18,
			"type":"SCALAR"
		}
	],
	"bufferViews":[
		{
			"buffer":0,
			"byteLength":109536,
			"byteOffset":0,
			"target":34962
		},
		{
			"buffer":0,
			"byteLength":109536,
			"byteOffset":109536,
			"target":34962
		},
		{
			"buffer":0,
			"byteLength":73024,
			"byteOffset":219072,
			"target":34962
		},
		{
			"buffer":0,
			"byteLength":59526,
			"byteOffset":292096,
			"target":34963
		},
		{
			"buffer":0,
			"byteLength":144,
			"byteOffset":351624,
			"target":34962
		},
		{
			"buffer":0,
			"byteLength":144,
			"byteOffset":351768,
			"target":34962
		},
		{
			"buffer":0,
			"byteLength":96,
			"byteOffset":351912,
			"target":34962
		},
		{
			"buffer":0,
			"byteLength":36,
			"byteOffset":352008,
			"target":34963
		}
	],
	"samplers":[
		{
			"magFilter":9729,
			"minFilter":9987
		}
	],
	"buffers":[
		{
			"byteLength":352044,
			"uri":"cash_register.bin"
		}
	]
}
