{
	"asset":{
		"generator":"Khronos glTF Blender I/O v5.1.20",
		"version":"2.0"
	},
	"scene":0,
	"scenes":[
		{
			"name":"Scene",
			"nodes":[
				0
			]
		}
	],
	"nodes":[
		{
			"mesh":0,
			"name":"aircon_unit"
		}
	],
	"materials":[
		{
			"doubleSided":true,
			"name":"exterior_aircon_unit_rusted_01",
			"normalTexture":{
				"index":0
			},
			"pbrMetallicRoughness":{
				"baseColorTexture":{
					"index":1
				},
				"metallicRoughnessTexture":{
					"index":2
				}
			}
		},
		{
			"alphaMode":"BLEND",
			"doubleSided":true,
			"name":"exterior_aircon_unit_rusted_02",
			"normalTexture":{
				"index":3
			},
			"pbrMetallicRoughness":{
				"baseColorTexture":{
					"index":4
				},
				"metallicRoughnessTexture":{
					"index":5
				}
			}
		}
	],
	"meshes":[
		{
			"name":"exterior_aircon_unit_rusted.001",
			"primitives":[
				{
					"attributes":{
						"POSITION":0,
						"NORMAL":1,
						"TEXCOORD_0":2
					},
					"indices":3,
					"material":0
				},
				{
					"attributes":{
						"POSITION":4,
						"NORMAL":5,
						"TEXCOORD_0":6
					},
					"indices":7,
					"material":1
				}
			]
		}
	],
	"textures":[
		{
			"sampler":0,
			"source":0
		},
		{
			"sampler":0,
			"source":1
		},
		{
			"sampler":0,
			"source":2
		},
		{
			"sampler":0,
			"source":3
		},
		{
			"sampler":0,
			"source":4
		},
		{
			"sampler":0,
			"source":5
		}
	],
	"images":[
		{
			"mimeType":"image/jpeg",
			"name":"exterior_aircon_unit_rusted_01_nor_gl_1k",
			"uri":"exterior_aircon_unit_rusted_01_nor_gl_1k.jpg"
		},
		{
			"mimeType":"image/jpeg",
			"name":"exterior_aircon_unit_rusted_01_diff_1k",
			"uri":"exterior_aircon_unit_rusted_01_diff_1k.jpg"
		},
		{
			"mimeType":"image/jpeg",
			"name":"exterior_aircon_unit_rusted_01_metal-exterior_aircon_unit_rusted_01_rough",
			"uri":"exterior_aircon_unit_rusted_01_metal-exterior_aircon_unit_rusted_01_rough.jpg"
		},
		{
			"mimeType":"image/jpeg",
			"name":"exterior_aircon_unit_rusted_02_nor_gl_1k",
			"uri":"exterior_aircon_unit_rusted_02_nor_gl_1k.jpg"
		},
		{
			"mimeType":"image/png",
			"name":"exterior_aircon_unit_rusted_02_diff-exterior_aircon_unit_rusted_02_opacity",
			"uri":"exterior_aircon_unit_rusted_02_diff-exterior_aircon_unit_rusted_02_opacity.png"
		},
		{
			"mimeType":"image/jpeg",
			"name":"exterior_aircon_unit_rusted_02_metal-exterior_aircon_unit_rusted_02_rough",
			"uri":"exterior_aircon_unit_rusted_02_metal-exterior_aircon_unit_rusted_02_rough.jpg"
		}
	],
	"accessors":[
		{
			"bufferView":0,
			"componentType":5126,
			"count":6778,
			"max":[
				0.399985671043396,
				0.9278970956802368,
				0.18707960844039917
			],
			"min":[
				-0.399985671043396,
				0,
				-0.18707960844039917
			],
			"type":"VEC3"
		},
		{
			"bufferView":1,
			"componentType":5126,
			"count":6778,
			"type":"VEC3"
		},
		{
			"bufferView":2,
			"componentType":5126,
			"count":6778,
			"type":"VEC2"
		},
		{
			"bufferView":3,
			"componentType":5123,
			"count":28305,
			"type":"SCALAR"
		},
		{
			"bufferView":4,
			"componentType":5126,
			"count":63,
			"max":[
				0.24563658237457275,
				0.9077335596084595,
				0.09695719182491302
			],
			"min":[
				-0.38165315985679626,
				0.44641000032424927,
				-0.06534039974212646
			],
			"type":"VEC3"
		},
		{
			"bufferView":5,
			"componentType":5126,
			"count":63,
			"type":"VEC3"
		},
		{
			"bufferView":6,
			"componentType":5126,
			"count":63,
			"type":"VEC2"
		},
		{
			"bufferView":7,
			"componentType":5123,
			"count":174,
			"type":"SCALAR"
		}
	],
	"bufferViews":[
		{
			"buffer":0,
			"byteLength":81336,
			"byteOffset":0,
			"target":34962
		},
		{
			"buffer":0,
			"byteLength":81336,
			"byteOffset":81336,
			"target":34962
		},
		{
			"buffer":0,
			"byteLength":54224,
			"byteOffset":162672,
			"target":34962
		},
		{
			"buffer":0,
			"byteLength":56610,
			"byteOffset":216896,
			"target":34963
		},
		{
			"buffer":0,
			"byteLength":756,
			"byteOffset":273508,
			"target":34962
		},
		{
			"buffer":0,
			"byteLength":756,
			"byteOffset":274264,
			"target":34962
		},
		{
			"buffer":0,
			"byteLength":504,
			"byteOffset":275020,
			"target":34962
		},
		{
			"buffer":0,
			"byteLength":348,
			"byteOffset":275524,
			"target":34963
		}
	],
	"samplers":[
		{
			"magFilter":9729,
			"minFilter":9987
		}
	],
	"buffers":[
		{
			"byteLength":275872,
			"uri":"aircon_unit.bin"
		}
	]
}
