{
	"asset":{
		"generator":"Khronos glTF Blender I/O v5.1.20",
		"version":"2.0"
	},
	"scene":0,
	"scenes":[
		{
			"name":"Scene",
			"nodes":[
				0
			]
		}
	],
	"nodes":[
		{
			"mesh":0,
			"name":"fire_stairs"
		}
	],
	"materials":[
		{
			"doubleSided":true,
			"name":"Rusty",
			"pbrMetallicRoughness":{
				"baseColorTexture":{
					"index":0
				},
				"metallicFactor":0,
				"roughnessFactor":0.4000000059604645
			}
		}
	],
	"meshes":[
		{
			"name":"Cube.011",
			"primitives":[
				{
					"attributes":{
						"POSITION":0,
						"NORMAL":1,
						"TEXCOORD_0":2
					},
					"indices":3,
					"material":0
				}
			]
		}
	],
	"textures":[
		{
			"sampler":0,
			"source":0
		}
	],
	"images":[
		{
			"mimeType":"image/jpeg",
			"name":"Rust006_1K_Color",
			"uri":"Rust006_1K_Color.jpg"
		}
	],
	"accessors":[
		{
			"bufferView":0,
			"componentType":5126,
			"count":4934,
			"max":[
				1.0299999713897705,
				4.760000228881836,
				2.2799999713897705
			],
			"min":[
				-1.0299999713897705,
				0,
				-2.2799999713897705
			],
			"type":"VEC3"
		},
		{
			"bufferView":1,
			"componentType":5126,
			"count":4934,
			"type":"VEC3"
		},
		{
			"bufferView":2,
			"componentType":5126,
			"count":4934,
			"type":"VEC2"
		},
		{
			"bufferView":3,
			"componentType":5123,
			"count":8508,
			"type":"SCALAR"
		}
	],
	"bufferViews":[
		{
			"buffer":0,
			"byteLength":59208,
			"byteOffset":0,
			"target":34962
		},
		{
			"buffer":0,
			"byteLength":59208,
			"byteOffset":59208,
			"target":34962
		},
		{
			"buffer":0,
			"byteLength":39472,
			"byteOffset":118416,
			"target":34962
		},
		{
			"buffer":0,
			"byteLength":17016,
			"byteOffset":157888,
			"target":34963
		}
	],
	"samplers":[
		{
			"magFilter":9729,
			"minFilter":9987
		}
	],
	"buffers":[
		{
			"byteLength":174904,
			"uri":"fire_stairs.bin"
		}
	]
}
