{
	"asset":{
		"generator":"Khronos glTF Blender I/O v5.1.20",
		"version":"2.0"
	},
	"scene":0,
	"scenes":[
		{
			"name":"Scene",
			"nodes":[
				0
			]
		}
	],
	"nodes":[
		{
			"mesh":0,
			"name":"wooden_crate"
		}
	],
	"materials":[
		{
			"doubleSided":true,
			"name":"wooden_military_crate",
			"normalTexture":{
				"index":0
			},
			"pbrMetallicRoughness":{
				"baseColorTexture":{
					"index":1
				},
				"metallicRoughnessTexture":{
					"index":2
				}
			}
		}
	],
	"meshes":[
		{
			"name":"Cube.002",
			"primitives":[
				{
					"attributes":{
						"POSITION":0,
						"NORMAL":1,
						"TEXCOORD_0":2
					},
					"indices":3,
					"material":0
				}
			]
		}
	],
	"textures":[
		{
			"sampler":0,
			"source":0
		},
		{
			"sampler":0,
			"source":1
		},
		{
			"sampler":0,
			"source":2
		}
	],
	"images":[
		{
			"mimeType":"image/jpeg",
			"name":"wooden_military_crate_nor_gl",
			"uri":"wooden_military_crate_nor_gl.jpg"
		},
		{
			"mimeType":"image/jpeg",
			"name":"wooden_military_crate_diff_1k",
			"uri":"wooden_military_crate_diff_1k.jpg"
		},
		{
			"mimeType":"image/jpeg",
			"name":"wooden_military_crate_metal-wooden_military_crate_rough",
			"uri":"wooden_military_crate_metal-wooden_military_crate_rough.jpg"
		}
	],
	"accessors":[
		{
			"bufferView":0,
			"componentType":5126,
			"count":17176,
			"max":[
				0.6210327744483948,
				0.4648151993751526,
				0.25988930463790894
			],
			"min":[
				-0.6210327744483948,
				0,
				-0.25988930463790894
			],
			"type":"VEC3"
		},
		{
			"bufferView":1,
			"componentType":5126,
			"count":17176,
			"type":"VEC3"
		},
		{
			"bufferView":2,
			"componentType":5126,
			"count":17176,
			"type":"VEC2"
		},
		{
			"bufferView":3,
			"componentType":5123,
			"count":68958,
			"type":"SCALAR"
		}
	],
	"bufferViews":[
		{
			"buffer":0,
			"byteLength":206112,
			"byteOffset":0,
			"target":34962
		},
		{
			"buffer":0,
			"byteLength":206112,
			"byteOffset":206112,
			"target":34962
		},
		{
			"buffer":0,
			"byteLength":137408,
			"byteOffset":412224,
			"target":34962
		},
		{
			"buffer":0,
			"byteLength":137916,
			"byteOffset":549632,
			"target":34963
		}
	],
	"samplers":[
		{
			"magFilter":9729,
			"minFilter":9987
		}
	],
	"buffers":[
		{
			"byteLength":687548,
			"uri":"wooden_crate.bin"
		}
	]
}
