{
	"asset":{
		"generator":"Khronos glTF Blender I/O v5.1.20",
		"version":"2.0"
	},
	"scene":0,
	"scenes":[
		{
			"name":"Scene",
			"nodes":[
				0
			]
		}
	],
	"nodes":[
		{
			"mesh":0,
			"name":"boulder_05"
		}
	],
	"materials":[
		{
			"doubleSided":true,
			"name":"namaqualand_boulder_05",
			"normalTexture":{
				"index":0
			},
			"pbrMetallicRoughness":{
				"baseColorTexture":{
					"index":1
				},
				"metallicFactor":0,
				"metallicRoughnessTexture":{
					"index":2
				}
			}
		}
	],
	"meshes":[
		{
			"name":"Boulder.001",
			"primitives":[
				{
					"attributes":{
						"POSITION":0,
						"NORMAL":1,
						"TEXCOORD_0":2
					},
					"indices":3,
					"material":0
				}
			]
		}
	],
	"textures":[
		{
			"sampler":0,
			"source":0
		},
		{
			"sampler":0,
			"source":1
		},
		{
			"sampler":0,
			"source":2
		}
	],
	"images":[
		{
			"mimeType":"image/jpeg",
			"name":"namaqualand_boulder_05_nor_gl",
			"uri":"namaqualand_boulder_05_nor_gl.jpg"
		},
		{
			"mimeType":"image/jpeg",
			"name":"namaqualand_boulder_05_diff_1k",
			"uri":"namaqualand_boulder_05_diff_1k.jpg"
		},
		{
			"mimeType":"image/jpeg",
			"name":"namaqualand_boulder_05_rough",
			"uri":"namaqualand_boulder_05_rough.jpg"
		}
	],
	"accessors":[
		{
			"bufferView":0,
			"componentType":5126,
			"count":3289,
			"max":[
				0.6793320178985596,
				0.53324294090271,
				0.373111367225647
			],
			"min":[
				-0.6793320178985596,
				0,
				-0.373111367225647
			],
			"type":"VEC3"
		},
		{
			"bufferView":1,
			"componentType":5126,
			"count":3289,
			"type":"VEC3"
		},
		{
			"bufferView":2,
			"componentType":5126,
			"count":3289,
			"type":"VEC2"
		},
		{
			"bufferView":3,
			"componentType":5123,
			"count":16800,
			"type":"SCALAR"
		}
	],
	"bufferViews":[
		{
			"buffer":0,
			"byteLength":39468,
			"byteOffset":0,
			"target":34962
		},
		{
			"buffer":0,
			"byteLength":39468,
			"byteOffset":39468,
			"target":34962
		},
		{
			"buffer":0,
			"byteLength":26312,
			"byteOffset":78936,
			"target":34962
		},
		{
			"buffer":0,
			"byteLength":33600,
			"byteOffset":105248,
			"target":34963
		}
	],
	"samplers":[
		{
			"magFilter":9729,
			"minFilter":9987
		}
	],
	"buffers":[
		{
			"byteLength":138848,
			"uri":"boulder_05.bin"
		}
	]
}
