{
	"asset":{
		"generator":"Khronos glTF Blender I/O v5.1.20",
		"version":"2.0"
	},
	"scene":0,
	"scenes":[
		{
			"name":"Scene",
			"nodes":[
				0
			]
		}
	],
	"nodes":[
		{
			"mesh":0,
			"name":"fire_pit"
		}
	],
	"materials":[
		{
			"doubleSided":true,
			"name":"stone_fire_pit",
			"normalTexture":{
				"index":0
			},
			"pbrMetallicRoughness":{
				"baseColorTexture":{
					"index":1
				},
				"metallicFactor":0,
				"metallicRoughnessTexture":{
					"index":2
				}
			}
		}
	],
	"meshes":[
		{
			"name":"texturedMesh.001",
			"primitives":[
				{
					"attributes":{
						"POSITION":0,
						"NORMAL":1,
						"TEXCOORD_0":2
					},
					"indices":3,
					"material":0
				}
			]
		}
	],
	"textures":[
		{
			"sampler":0,
			"source":0
		},
		{
			"sampler":0,
			"source":1
		},
		{
			"sampler":0,
			"source":2
		}
	],
	"images":[
		{
			"mimeType":"image/jpeg",
			"name":"stone_fire_pit_nor_gl",
			"uri":"stone_fire_pit_nor_gl.jpg"
		},
		{
			"mimeType":"image/jpeg",
			"name":"stone_fire_pit_diff_1k",
			"uri":"stone_fire_pit_diff_1k.jpg"
		},
		{
			"mimeType":"image/jpeg",
			"name":"stone_fire_pit_rough",
			"uri":"stone_fire_pit_rough.jpg"
		}
	],
	"accessors":[
		{
			"bufferView":0,
			"componentType":5126,
			"count":2278,
			"max":[
				0.7242481112480164,
				0.38832607865333557,
				0.716617226600647
			],
			"min":[
				-0.7242481112480164,
				0,
				-0.716617226600647
			],
			"type":"VEC3"
		},
		{
			"bufferView":1,
			"componentType":5126,
			"count":2278,
			"type":"VEC3"
		},
		{
			"bufferView":2,
			"componentType":5126,
			"count":2278,
			"type":"VEC2"
		},
		{
			"bufferView":3,
			"componentType":5123,
			"count":11661,
			"type":"SCALAR"
		}
	],
	"bufferViews":[
		{
			"buffer":0,
			"byteLength":27336,
			"byteOffset":0,
			"target":34962
		},
		{
			"buffer":0,
			"byteLength":27336,
			"byteOffset":27336,
			"target":34962
		},
		{
			"buffer":0,
			"byteLength":18224,
			"byteOffset":54672,
			"target":34962
		},
		{
			"buffer":0,
			"byteLength":23322,
			"byteOffset":72896,
			"target":34963
		}
	],
	"samplers":[
		{
			"magFilter":9729,
			"minFilter":9987
		}
	],
	"buffers":[
		{
			"byteLength":96220,
			"uri":"fire_pit.bin"
		}
	]
}
