{
	"asset":{
		"generator":"Khronos glTF Blender I/O v5.1.20",
		"version":"2.0"
	},
	"scene":0,
	"scenes":[
		{
			"name":"Scene",
			"nodes":[
				0
			]
		}
	],
	"nodes":[
		{
			"mesh":0,
			"name":"ammo_box.001"
		}
	],
	"materials":[
		{
			"doubleSided":true,
			"name":"ammo_box",
			"normalTexture":{
				"index":0
			},
			"pbrMetallicRoughness":{
				"baseColorTexture":{
					"index":1
				},
				"metallicRoughnessTexture":{
					"index":2
				}
			}
		}
	],
	"meshes":[
		{
			"name":"Plane.001",
			"primitives":[
				{
					"attributes":{
						"POSITION":0,
						"NORMAL":1,
						"TEXCOORD_0":2
					},
					"indices":3,
					"material":0
				}
			]
		}
	],
	"textures":[
		{
			"sampler":0,
			"source":0
		},
		{
			"sampler":0,
			"source":1
		},
		{
			"sampler":0,
			"source":2
		}
	],
	"images":[
		{
			"mimeType":"image/jpeg",
			"name":"ammo_box_nor_gl",
			"uri":"ammo_box_nor_gl.jpg"
		},
		{
			"mimeType":"image/jpeg",
			"name":"ammo_box_diff_1k",
			"uri":"ammo_box_diff_1k.jpg"
		},
		{
			"mimeType":"image/jpeg",
			"name":"ammo_box_metal-ammo_box_rough",
			"uri":"ammo_box_metal-ammo_box_rough.jpg"
		}
	],
	"accessors":[
		{
			"bufferView":0,
			"componentType":5126,
			"count":3978,
			"max":[
				0.04328171908855438,
				0.17747706174850464,
				0.1289391815662384
			],
			"min":[
				-0.04328171908855438,
				0,
				-0.1289391815662384
			],
			"type":"VEC3"
		},
		{
			"bufferView":1,
			"componentType":5126,
			"count":3978,
			"type":"VEC3"
		},
		{
			"bufferView":2,
			"componentType":5126,
			"count":3978,
			"type":"VEC2"
		},
		{
			"bufferView":3,
			"componentType":5123,
			"count":13146,
			"type":"SCALAR"
		}
	],
	"bufferViews":[
		{
			"buffer":0,
			"byteLength":47736,
			"byteOffset":0,
			"target":34962
		},
		{
			"buffer":0,
			"byteLength":47736,
			"byteOffset":47736,
			"target":34962
		},
		{
			"buffer":0,
			"byteLength":31824,
			"byteOffset":95472,
			"target":34962
		},
		{
			"buffer":0,
			"byteLength":26292,
			"byteOffset":127296,
			"target":34963
		}
	],
	"samplers":[
		{
			"magFilter":9729,
			"minFilter":9987
		}
	],
	"buffers":[
		{
			"byteLength":153588,
			"uri":"ammo_box.bin"
		}
	]
}
