{
	"asset":{
		"generator":"Khronos glTF Blender I/O v5.1.20",
		"version":"2.0"
	},
	"scene":0,
	"scenes":[
		{
			"name":"Scene",
			"nodes":[
				0
			]
		}
	],
	"nodes":[
		{
			"mesh":0,
			"name":"rocks"
		}
	],
	"materials":[
		{
			"doubleSided":true,
			"name":"Rock_Apo",
			"pbrMetallicRoughness":{
				"metallicFactor":0,
				"roughnessFactor":0.5527864098548889
			}
		},
		{
			"doubleSided":true,
			"name":"Ciment_Bris\u00e93",
			"pbrMetallicRoughness":{
				"metallicFactor":0,
				"roughnessFactor":0.5527864098548889
			}
		}
	],
	"meshes":[
		{
			"name":"Mesh.061",
			"primitives":[
				{
					"attributes":{
						"POSITION":0,
						"NORMAL":1,
						"TEXCOORD_0":2
					},
					"indices":3,
					"material":0
				},
				{
					"attributes":{
						"POSITION":4,
						"NORMAL":5,
						"TEXCOORD_0":6
					},
					"indices":7,
					"material":1
				}
			]
		}
	],
	"accessors":[
		{
			"bufferView":0,
			"componentType":5126,
			"count":2029,
			"max":[
				1.1418535709381104,
				1.1224445104599,
				0.9370942115783691
			],
			"min":[
				-1.1418535709381104,
				0,
				-0.9370942115783691
			],
			"type":"VEC3"
		},
		{
			"bufferView":1,
			"componentType":5126,
			"count":2029,
			"type":"VEC3"
		},
		{
			"bufferView":2,
			"componentType":5126,
			"count":2029,
			"type":"VEC2"
		},
		{
			"bufferView":3,
			"componentType":5123,
			"count":2073,
			"type":"SCALAR"
		},
		{
			"bufferView":4,
			"componentType":5126,
			"count":275,
			"max":[
				1.1418535709381104,
				1.1224445104599,
				0.9370942115783691
			],
			"min":[
				-0.7258923053741455,
				0,
				-0.2371044158935547
			],
			"type":"VEC3"
		},
		{
			"bufferView":5,
			"componentType":5126,
			"count":275,
			"type":"VEC3"
		},
		{
			"bufferView":6,
			"componentType":5126,
			"count":275,
			"type":"VEC2"
		},
		{
			"bufferView":7,
			"componentType":5123,
			"count":501,
			"type":"SCALAR"
		}
	],
	"bufferViews":[
		{
			"buffer":0,
			"byteLength":24348,
			"byteOffset":0,
			"target":34962
		},
		{
			"buffer":0,
			"byteLength":24348,
			"byteOffset":24348,
			"target":34962
		},
		{
			"buffer":0,
			"byteLength":16232,
			"byteOffset":48696,
			"target":34962
		},
		{
			"buffer":0,
			"byteLength":4146,
			"byteOffset":64928,
			"target":34963
		},
		{
			"buffer":0,
			"byteLength":3300,
			"byteOffset":69076,
			"target":34962
		},
		{
			"buffer":0,
			"byteLength":3300,
			"byteOffset":72376,
			"target":34962
		},
		{
			"buffer":0,
			"byteLength":2200,
			"byteOffset":75676,
			"target":34962
		},
		{
			"buffer":0,
			"byteLength":1002,
			"byteOffset":77876,
			"target":34963
		}
	],
	"buffers":[
		{
			"byteLength":78880,
			"uri":"rocks.bin"
		}
	]
}
