{
	"asset":{
		"generator":"Khronos glTF Blender I/O v5.1.20",
		"version":"2.0"
	},
	"scene":0,
	"scenes":[
		{
			"name":"Scene",
			"nodes":[
				0
			]
		}
	],
	"nodes":[
		{
			"mesh":0,
			"name":"cardboard_box"
		}
	],
	"materials":[
		{
			"doubleSided":true,
			"name":"cardboard_box_01",
			"normalTexture":{
				"index":0
			},
			"pbrMetallicRoughness":{
				"baseColorTexture":{
					"index":1
				},
				"metallicFactor":0,
				"metallicRoughnessTexture":{
					"index":2
				}
			}
		}
	],
	"meshes":[
		{
			"name":"cardboard_box_01.001",
			"primitives":[
				{
					"attributes":{
						"POSITION":0,
						"NORMAL":1,
						"TEXCOORD_0":2
					},
					"indices":3,
					"material":0
				}
			]
		}
	],
	"textures":[
		{
			"sampler":0,
			"source":0
		},
		{
			"sampler":0,
			"source":1
		},
		{
			"sampler":0,
			"source":2
		}
	],
	"images":[
		{
			"mimeType":"image/jpeg",
			"name":"cardboard_box_01_nor_gl",
			"uri":"cardboard_box_01_nor_gl.jpg"
		},
		{
			"mimeType":"image/jpeg",
			"name":"cardboard_box_01_diff_1k",
			"uri":"cardboard_box_01_diff_1k.jpg"
		},
		{
			"mimeType":"image/jpeg",
			"name":"cardboard_box_01_rough",
			"uri":"cardboard_box_01_rough.jpg"
		}
	],
	"accessors":[
		{
			"bufferView":0,
			"componentType":5126,
			"count":8757,
			"max":[
				0.19351179897785187,
				0.3417995572090149,
				0.25793522596359253
			],
			"min":[
				-0.19351179897785187,
				0,
				-0.25793522596359253
			],
			"type":"VEC3"
		},
		{
			"bufferView":1,
			"componentType":5126,
			"count":8757,
			"type":"VEC3"
		},
		{
			"bufferView":2,
			"componentType":5126,
			"count":8757,
			"type":"VEC2"
		},
		{
			"bufferView":3,
			"componentType":5123,
			"count":50856,
			"type":"SCALAR"
		}
	],
	"bufferViews":[
		{
			"buffer":0,
			"byteLength":105084,
			"byteOffset":0,
			"target":34962
		},
		{
			"buffer":0,
			"byteLength":105084,
			"byteOffset":105084,
			"target":34962
		},
		{
			"buffer":0,
			"byteLength":70056,
			"byteOffset":210168,
			"target":34962
		},
		{
			"buffer":0,
			"byteLength":101712,
			"byteOffset":280224,
			"target":34963
		}
	],
	"samplers":[
		{
			"magFilter":9729,
			"minFilter":9987
		}
	],
	"buffers":[
		{
			"byteLength":381936,
			"uri":"cardboard_box.bin"
		}
	]
}
