{
	"asset":{
		"generator":"Khronos glTF Blender I/O v5.1.20",
		"version":"2.0"
	},
	"scene":0,
	"scenes":[
		{
			"name":"Scene",
			"nodes":[
				0
			]
		}
	],
	"nodes":[
		{
			"mesh":0,
			"name":"boulder_03"
		}
	],
	"materials":[
		{
			"doubleSided":true,
			"name":"namaqualand_boulder_03",
			"normalTexture":{
				"index":0
			},
			"pbrMetallicRoughness":{
				"baseColorTexture":{
					"index":1
				},
				"metallicFactor":0,
				"metallicRoughnessTexture":{
					"index":2
				}
			}
		}
	],
	"meshes":[
		{
			"name":"realCap_Model_2.004",
			"primitives":[
				{
					"attributes":{
						"POSITION":0,
						"NORMAL":1,
						"TEXCOORD_0":2
					},
					"indices":3,
					"material":0
				}
			]
		}
	],
	"textures":[
		{
			"sampler":0,
			"source":0
		},
		{
			"sampler":0,
			"source":1
		},
		{
			"sampler":0,
			"source":2
		}
	],
	"images":[
		{
			"mimeType":"image/jpeg",
			"name":"namaqualand_boulder_03_nor_gl",
			"uri":"namaqualand_boulder_03_nor_gl.jpg"
		},
		{
			"mimeType":"image/jpeg",
			"name":"namaqualand_boulder_03_diff_1k",
			"uri":"namaqualand_boulder_03_diff_1k.jpg"
		},
		{
			"mimeType":"image/jpeg",
			"name":"namaqualand_boulder_03_rough",
			"uri":"namaqualand_boulder_03_rough.jpg"
		}
	],
	"accessors":[
		{
			"bufferView":0,
			"componentType":5126,
			"count":8555,
			"max":[
				1.2018733024597168,
				1.4721945524215698,
				1.5312916040420532
			],
			"min":[
				-1.2018733024597168,
				0,
				-1.5312916040420532
			],
			"type":"VEC3"
		},
		{
			"bufferView":1,
			"componentType":5126,
			"count":8555,
			"type":"VEC3"
		},
		{
			"bufferView":2,
			"componentType":5126,
			"count":8555,
			"type":"VEC2"
		},
		{
			"bufferView":3,
			"componentType":5123,
			"count":48618,
			"type":"SCALAR"
		}
	],
	"bufferViews":[
		{
			"buffer":0,
			"byteLength":102660,
			"byteOffset":0,
			"target":34962
		},
		{
			"buffer":0,
			"byteLength":102660,
			"byteOffset":102660,
			"target":34962
		},
		{
			"buffer":0,
			"byteLength":68440,
			"byteOffset":205320,
			"target":34962
		},
		{
			"buffer":0,
			"byteLength":97236,
			"byteOffset":273760,
			"target":34963
		}
	],
	"samplers":[
		{
			"magFilter":9729,
			"minFilter":9987
		}
	],
	"buffers":[
		{
			"byteLength":370996,
			"uri":"boulder_03.bin"
		}
	]
}
