{
	"asset":{
		"generator":"Khronos glTF Blender I/O v5.1.20",
		"version":"2.0"
	},
	"scene":0,
	"scenes":[
		{
			"name":"Scene",
			"nodes":[
				0
			]
		}
	],
	"nodes":[
		{
			"mesh":0,
			"name":"column_2"
		}
	],
	"materials":[
		{
			"doubleSided":true,
			"name":"Ciment_Bris\u00e92",
			"pbrMetallicRoughness":{
				"metallicFactor":0,
				"roughnessFactor":0.5527864098548889
			}
		},
		{
			"doubleSided":true,
			"name":"Ciment_Bris\u00e93",
			"pbrMetallicRoughness":{
				"metallicFactor":0,
				"roughnessFactor":0.5527864098548889
			}
		},
		{
			"doubleSided":true,
			"name":"Ciment_Bris\u00e9",
			"pbrMetallicRoughness":{
				"metallicFactor":0,
				"roughnessFactor":0.5527864098548889
			}
		},
		{
			"doubleSided":true,
			"name":"M\u00e9tal_Rouill\u00e9",
			"pbrMetallicRoughness":{
				"baseColorFactor":[
					0.5764706134796143,
					0.47843137383461,
					0.3843137323856354,
					1
				],
				"metallicFactor":0,
				"roughnessFactor":0.5527864098548889
			}
		}
	],
	"meshes":[
		{
			"name":"Mesh.061",
			"primitives":[
				{
					"attributes":{
						"POSITION":0,
						"NORMAL":1,
						"TEXCOORD_0":2
					},
					"indices":3,
					"material":0
				},
				{
					"attributes":{
						"POSITION":4,
						"NORMAL":5,
						"TEXCOORD_0":6
					},
					"indices":7,
					"material":1
				},
				{
					"attributes":{
						"POSITION":8,
						"NORMAL":9,
						"TEXCOORD_0":10
					},
					"indices":11,
					"material":2
				},
				{
					"attributes":{
						"POSITION":12,
						"NORMAL":13,
						"TEXCOORD_0":14
					},
					"indices":15,
					"material":3
				}
			]
		}
	],
	"accessors":[
		{
			"bufferView":0,
			"componentType":5126,
			"count":252,
			"max":[
				0.8503162860870361,
				5.26607608795166,
				0.5712937116622925
			],
			"min":[
				-1.0059523582458496,
				0.09620499610900879,
				-0.5787066221237183
			],
			"type":"VEC3"
		},
		{
			"bufferView":1,
			"componentType":5126,
			"count":252,
			"type":"VEC3"
		},
		{
			"bufferView":2,
			"componentType":5126,
			"count":252,
			"type":"VEC2"
		},
		{
			"bufferView":3,
			"componentType":5123,
			"count":444,
			"type":"SCALAR"
		},
		{
			"bufferView":4,
			"componentType":5126,
			"count":4281,
			"max":[
				1.293874979019165,
				5.23504638671875,
				1.0516932010650635
			],
			"min":[
				-1.0677189826965332,
				0,
				-1.0516932010650635
			],
			"type":"VEC3"
		},
		{
			"bufferView":5,
			"componentType":5126,
			"count":4281,
			"type":"VEC3"
		},
		{
			"bufferView":6,
			"componentType":5126,
			"count":4281,
			"type":"VEC2"
		},
		{
			"bufferView":7,
			"componentType":5123,
			"count":6825,
			"type":"SCALAR"
		},
		{
			"bufferView":8,
			"componentType":5126,
			"count":1915,
			"max":[
				1.2753162384033203,
				5.070346832275391,
				1.0258971452713013
			],
			"min":[
				-1.2938752174377441,
				0.07120490074157715,
				-1.0215555429458618
			],
			"type":"VEC3"
		},
		{
			"bufferView":9,
			"componentType":5126,
			"count":1915,
			"type":"VEC3"
		},
		{
			"bufferView":10,
			"componentType":5126,
			"count":1915,
			"type":"VEC2"
		},
		{
			"bufferView":11,
			"componentType":5123,
			"count":3906,
			"type":"SCALAR"
		},
		{
			"bufferView":12,
			"componentType":5126,
			"count":1702,
			"max":[
				0.9705595970153809,
				3.9694647789001465,
				0.8578721880912781
			],
			"min":[
				-0.8658452033996582,
				0.04168285056948662,
				-0.9190307855606079
			],
			"type":"VEC3"
		},
		{
			"bufferView":13,
			"componentType":5126,
			"count":1702,
			"type":"VEC3"
		},
		{
			"bufferView":14,
			"componentType":5126,
			"count":1702,
			"type":"VEC2"
		},
		{
			"bufferView":15,
			"componentType":5123,
			"count":2490,
			"type":"SCALAR"
		}
	],
	"bufferViews":[
		{
			"buffer":0,
			"byteLength":3024,
			"byteOffset":0,
			"target":34962
		},
		{
			"buffer":0,
			"byteLength":3024,
			"byteOffset":3024,
			"target":34962
		},
		{
			"buffer":0,
			"byteLength":2016,
			"byteOffset":6048,
			"target":34962
		},
		{
			"buffer":0,
			"byteLength":888,
			"byteOffset":8064,
			"target":34963
		},
		{
			"buffer":0,
			"byteLength":51372,
			"byteOffset":8952,
			"target":34962
		},
		{
			"buffer":0,
			"byteLength":51372,
			"byteOffset":60324,
			"target":34962
		},
		{
			"buffer":0,
			"byteLength":34248,
			"byteOffset":111696,
			"target":34962
		},
		{
			"buffer":0,
			"byteLength":13650,
			"byteOffset":145944,
			"target":34963
		},
		{
			"buffer":0,
			"byteLength":22980,
			"byteOffset":159596,
			"target":34962
		},
		{
			"buffer":0,
			"byteLength":22980,
			"byteOffset":182576,
			"target":34962
		},
		{
			"buffer":0,
			"byteLength":15320,
			"byteOffset":205556,
			"target":34962
		},
		{
			"buffer":0,
			"byteLength":7812,
			"byteOffset":220876,
			"target":34963
		},
		{
			"buffer":0,
			"byteLength":20424,
			"byteOffset":228688,
			"target":34962
		},
		{
			"buffer":0,
			"byteLength":20424,
			"byteOffset":249112,
			"target":34962
		},
		{
			"buffer":0,
			"byteLength":13616,
			"byteOffset":269536,
			"target":34962
		},
		{
			"buffer":0,
			"byteLength":4980,
			"byteOffset":283152,
			"target":34963
		}
	],
	"buffers":[
		{
			"byteLength":288132,
			"uri":"column_2.bin"
		}
	]
}
