{
	"asset":{
		"generator":"Khronos glTF Blender I/O v5.1.20",
		"version":"2.0"
	},
	"scene":0,
	"scenes":[
		{
			"name":"Scene",
			"nodes":[
				0
			]
		}
	],
	"nodes":[
		{
			"mesh":0,
			"name":"signal_flashlight.001"
		}
	],
	"materials":[
		{
			"doubleSided":true,
			"name":"signal_flashlight",
			"normalTexture":{
				"index":0
			},
			"pbrMetallicRoughness":{
				"baseColorTexture":{
					"index":1
				},
				"metallicRoughnessTexture":{
					"index":2
				}
			}
		},
		{
			"alphaMode":"BLEND",
			"doubleSided":true,
			"name":"signal_flashlight_glass",
			"normalTexture":{
				"index":3
			},
			"pbrMetallicRoughness":{
				"baseColorTexture":{
					"index":4
				},
				"metallicRoughnessTexture":{
					"index":5
				}
			}
		},
		{
			"doubleSided":true,
			"name":"signal_flashlight_light",
			"normalTexture":{
				"index":6
			},
			"pbrMetallicRoughness":{
				"baseColorTexture":{
					"index":7
				},
				"metallicRoughnessTexture":{
					"index":8
				}
			}
		}
	],
	"meshes":[
		{
			"name":"Plane.001",
			"primitives":[
				{
					"attributes":{
						"POSITION":0,
						"NORMAL":1,
						"TEXCOORD_0":2
					},
					"indices":3,
					"material":0
				},
				{
					"attributes":{
						"POSITION":4,
						"NORMAL":5,
						"TEXCOORD_0":6
					},
					"indices":7,
					"material":1
				},
				{
					"attributes":{
						"POSITION":8,
						"NORMAL":9,
						"TEXCOORD_0":10
					},
					"indices":11,
					"material":2
				}
			]
		}
	],
	"textures":[
		{
			"sampler":0,
			"source":0
		},
		{
			"sampler":0,
			"source":1
		},
		{
			"sampler":0,
			"source":2
		},
		{
			"sampler":0,
			"source":0
		},
		{
			"sampler":0,
			"source":3
		},
		{
			"sampler":0,
			"source":2
		},
		{
			"sampler":0,
			"source":0
		},
		{
			"sampler":0,
			"source":1
		},
		{
			"sampler":0,
			"source":2
		}
	],
	"images":[
		{
			"mimeType":"image/jpeg",
			"name":"signal_flashlight_nor_gl",
			"uri":"signal_flashlight_nor_gl.jpg"
		},
		{
			"mimeType":"image/jpeg",
			"name":"signal_flashlight_diff_1k",
			"uri":"signal_flashlight_diff_1k.jpg"
		},
		{
			"mimeType":"image/jpeg",
			"name":"signal_flashlight_metal-signal_flashlight_rough",
			"uri":"signal_flashlight_metal-signal_flashlight_rough.jpg"
		},
		{
			"mimeType":"image/png",
			"name":"signal_flashlight_diff-signal_flashlight_alpha",
			"uri":"signal_flashlight_diff-signal_flashlight_alpha.png"
		}
	],
	"accessors":[
		{
			"bufferView":0,
			"componentType":5126,
			"count":5867,
			"max":[
				0.03549576550722122,
				0.1499275267124176,
				0.022268816828727722
			],
			"min":[
				-0.03549576550722122,
				0,
				-0.022268816828727722
			],
			"type":"VEC3"
		},
		{
			"bufferView":1,
			"componentType":5126,
			"count":5867,
			"type":"VEC3"
		},
		{
			"bufferView":2,
			"componentType":5126,
			"count":5867,
			"type":"VEC2"
		},
		{
			"bufferView":3,
			"componentType":5123,
			"count":27936,
			"type":"SCALAR"
		},
		{
			"bufferView":4,
			"componentType":5126,
			"count":224,
			"max":[
				0.019884873181581497,
				0.08367104828357697,
				0.016614988446235657
			],
			"min":[
				-0.020876392722129822,
				0.004475094377994537,
				0.0024566063657402992
			],
			"type":"VEC3"
		},
		{
			"bufferView":5,
			"componentType":5126,
			"count":224,
			"type":"VEC3"
		},
		{
			"bufferView":6,
			"componentType":5126,
			"count":224,
			"type":"VEC2"
		},
		{
			"bufferView":7,
			"componentType":5123,
			"count":1002,
			"type":"SCALAR"
		},
		{
			"bufferView":8,
			"componentType":5126,
			"count":69,
			"max":[
				0.0020468877628445625,
				0.02492554485797882,
				0.00747546274214983
			],
			"min":[
				-0.0030384070705622435,
				0.02410416305065155,
				0.002174750901758671
			],
			"type":"VEC3"
		},
		{
			"bufferView":9,
			"componentType":5126,
			"count":69,
			"type":"VEC3"
		},
		{
			"bufferView":10,
			"componentType":5126,
			"count":69,
			"type":"VEC2"
		},
		{
			"bufferView":11,
			"componentType":5123,
			"count":252,
			"type":"SCALAR"
		}
	],
	"bufferViews":[
		{
			"buffer":0,
			"byteLength":70404,
			"byteOffset":0,
			"target":34962
		},
		{
			"buffer":0,
			"byteLength":70404,
			"byteOffset":70404,
			"target":34962
		},
		{
			"buffer":0,
			"byteLength":46936,
			"byteOffset":140808,
			"target":34962
		},
		{
			"buffer":0,
			"byteLength":55872,
			"byteOffset":187744,
			"target":34963
		},
		{
			"buffer":0,
			"byteLength":2688,
			"byteOffset":243616,
			"target":34962
		},
		{
			"buffer":0,
			"byteLength":2688,
			"byteOffset":246304,
			"target":34962
		},
		{
			"buffer":0,
			"byteLength":1792,
			"byteOffset":248992,
			"target":34962
		},
		{
			"buffer":0,
			"byteLength":2004,
			"byteOffset":250784,
			"target":34963
		},
		{
			"buffer":0,
			"byteLength":828,
			"byteOffset":252788,
			"target":34962
		},
		{
			"buffer":0,
			"byteLength":828,
			"byteOffset":253616,
			"target":34962
		},
		{
			"buffer":0,
			"byteLength":552,
			"byteOffset":254444,
			"target":34962
		},
		{
			"buffer":0,
			"byteLength":504,
			"byteOffset":254996,
			"target":34963
		}
	],
	"samplers":[
		{
			"magFilter":9729,
			"minFilter":9987
		}
	],
	"buffers":[
		{
			"byteLength":255500,
			"uri":"signal_flashlight.bin"
		}
	]
}
