{
	"asset":{
		"generator":"Khronos glTF Blender I/O v5.1.20",
		"version":"2.0"
	},
	"extensionsUsed":[
		"KHR_materials_specular",
		"KHR_materials_ior"
	],
	"scene":0,
	"scenes":[
		{
			"name":"Scene",
			"nodes":[
				0
			]
		}
	],
	"nodes":[
		{
			"mesh":0,
			"name":"television"
		}
	],
	"materials":[
		{
			"doubleSided":true,
			"extensions":{
				"KHR_materials_specular":{
					"specularColorFactor":[
						2.0,
						2.0,
						2.0
					]
				},
				"KHR_materials_ior":{
					"ior":1.4500000476837158
				}
			},
			"name":"Television_01",
			"normalTexture":{
				"index":0
			},
			"pbrMetallicRoughness":{
				"baseColorTexture":{
					"index":1
				},
				"metallicRoughnessTexture":{
					"index":2
				}
			}
		}
	],
	"meshes":[
		{
			"name":"Cube.001",
			"primitives":[
				{
					"attributes":{
						"POSITION":0,
						"NORMAL":1,
						"TEXCOORD_0":2,
						"COLOR_0":3,
						"COLOR_1":4
					},
					"indices":5,
					"material":0
				}
			]
		}
	],
	"textures":[
		{
			"sampler":0,
			"source":0
		},
		{
			"sampler":0,
			"source":1
		},
		{
			"sampler":0,
			"source":2
		}
	],
	"images":[
		{
			"mimeType":"image/jpeg",
			"name":"Television_01_nor_gl",
			"uri":"Television_01_nor_gl.jpg"
		},
		{
			"mimeType":"image/jpeg",
			"name":"Television_01_diff_1k",
			"uri":"Television_01_diff_1k.jpg"
		},
		{
			"mimeType":"image/jpeg",
			"name":"Television_01_metallic-Television_01_roughness",
			"uri":"Television_01_metallic-Television_01_roughness.jpg"
		}
	],
	"accessors":[
		{
			"bufferView":0,
			"componentType":5126,
			"count":1976,
			"max":[
				0.29999998211860657,
				0.4568489193916321,
				0.2354053407907486
			],
			"min":[
				-0.29999998211860657,
				0,
				-0.2354053407907486
			],
			"type":"VEC3"
		},
		{
			"bufferView":1,
			"componentType":5126,
			"count":1976,
			"type":"VEC3"
		},
		{
			"bufferView":2,
			"componentType":5126,
			"count":1976,
			"type":"VEC2"
		},
		{
			"bufferView":3,
			"componentType":5121,
			"count":1976,
			"normalized":true,
			"type":"VEC4"
		},
		{
			"bufferView":4,
			"componentType":5123,
			"count":1976,
			"normalized":true,
			"type":"VEC4"
		},
		{
			"bufferView":5,
			"componentType":5123,
			"count":5754,
			"type":"SCALAR"
		}
	],
	"bufferViews":[
		{
			"buffer":0,
			"byteLength":23712,
			"byteOffset":0,
			"target":34962
		},
		{
			"buffer":0,
			"byteLength":23712,
			"byteOffset":23712,
			"target":34962
		},
		{
			"buffer":0,
			"byteLength":15808,
			"byteOffset":47424,
			"target":34962
		},
		{
			"buffer":0,
			"byteLength":7904,
			"byteOffset":63232,
			"target":34962
		},
		{
			"buffer":0,
			"byteLength":15808,
			"byteOffset":71136,
			"target":34962
		},
		{
			"buffer":0,
			"byteLength":11508,
			"byteOffset":86944,
			"target":34963
		}
	],
	"samplers":[
		{
			"magFilter":9729,
			"minFilter":9987
		}
	],
	"buffers":[
		{
			"byteLength":98452,
			"uri":"television.bin"
		}
	]
}
