{
	"asset":{
		"generator":"Khronos glTF Blender I/O v5.1.20",
		"version":"2.0"
	},
	"scene":0,
	"scenes":[
		{
			"name":"Scene",
			"nodes":[
				0
			]
		}
	],
	"nodes":[
		{
			"mesh":0,
			"name":"column_1"
		}
	],
	"materials":[
		{
			"doubleSided":true,
			"name":"Ciment_Bris\u00e92",
			"pbrMetallicRoughness":{
				"metallicFactor":0,
				"roughnessFactor":0.5527864098548889
			}
		},
		{
			"doubleSided":true,
			"name":"Ciment_Bris\u00e93",
			"pbrMetallicRoughness":{
				"metallicFactor":0,
				"roughnessFactor":0.5527864098548889
			}
		},
		{
			"doubleSided":true,
			"name":"Ciment_Bris\u00e9",
			"pbrMetallicRoughness":{
				"metallicFactor":0,
				"roughnessFactor":0.5527864098548889
			}
		},
		{
			"doubleSided":true,
			"name":"M\u00e9tal_Rouill\u00e9",
			"pbrMetallicRoughness":{
				"baseColorFactor":[
					0.5764706134796143,
					0.47843137383461,
					0.3843137323856354,
					1
				],
				"metallicFactor":0,
				"roughnessFactor":0.5527864098548889
			}
		}
	],
	"meshes":[
		{
			"name":"Mesh.061",
			"primitives":[
				{
					"attributes":{
						"POSITION":0,
						"NORMAL":1,
						"TEXCOORD_0":2
					},
					"indices":3,
					"material":0
				},
				{
					"attributes":{
						"POSITION":4,
						"NORMAL":5,
						"TEXCOORD_0":6
					},
					"indices":7,
					"material":1
				},
				{
					"attributes":{
						"POSITION":8,
						"NORMAL":9,
						"TEXCOORD_0":10
					},
					"indices":11,
					"material":2
				},
				{
					"attributes":{
						"POSITION":12,
						"NORMAL":13,
						"TEXCOORD_0":14
					},
					"indices":15,
					"material":3
				}
			]
		}
	],
	"accessors":[
		{
			"bufferView":0,
			"componentType":5126,
			"count":96,
			"max":[
				0.5286458730697632,
				5.016746997833252,
				0.5777616500854492
			],
			"min":[
				-0.6213546395301819,
				0.016747023910284042,
				-0.5722388029098511
			],
			"type":"VEC3"
		},
		{
			"bufferView":1,
			"componentType":5126,
			"count":96,
			"type":"VEC3"
		},
		{
			"bufferView":2,
			"componentType":5126,
			"count":96,
			"type":"VEC2"
		},
		{
			"bufferView":3,
			"componentType":5123,
			"count":144,
			"type":"SCALAR"
		},
		{
			"bufferView":4,
			"componentType":5126,
			"count":4280,
			"max":[
				1.0024843215942383,
				5.103738784790039,
				1.0445096492767334
			],
			"min":[
				-1.067015528678894,
				0,
				-1.0445096492767334
			],
			"type":"VEC3"
		},
		{
			"bufferView":5,
			"componentType":5126,
			"count":4280,
			"type":"VEC3"
		},
		{
			"bufferView":6,
			"componentType":5126,
			"count":4280,
			"type":"VEC2"
		},
		{
			"bufferView":7,
			"componentType":5123,
			"count":6825,
			"type":"SCALAR"
		},
		{
			"bufferView":8,
			"componentType":5126,
			"count":1979,
			"max":[
				1.067015528678894,
				5.110121250152588,
				1.0323649644851685
			],
			"min":[
				-1.0507428646087646,
				0.008678138256072998,
				-1.032731294631958
			],
			"type":"VEC3"
		},
		{
			"bufferView":9,
			"componentType":5126,
			"count":1979,
			"type":"VEC3"
		},
		{
			"bufferView":10,
			"componentType":5126,
			"count":1979,
			"type":"VEC2"
		},
		{
			"bufferView":11,
			"componentType":5123,
			"count":4038,
			"type":"SCALAR"
		},
		{
			"bufferView":12,
			"componentType":5126,
			"count":1702,
			"max":[
				1.0138388872146606,
				4.574215888977051,
				1.0057543516159058
			],
			"min":[
				-0.9691897630691528,
				0.4622250199317932,
				-0.9125629663467407
			],
			"type":"VEC3"
		},
		{
			"bufferView":13,
			"componentType":5126,
			"count":1702,
			"type":"VEC3"
		},
		{
			"bufferView":14,
			"componentType":5126,
			"count":1702,
			"type":"VEC2"
		},
		{
			"bufferView":15,
			"componentType":5123,
			"count":2490,
			"type":"SCALAR"
		}
	],
	"bufferViews":[
		{
			"buffer":0,
			"byteLength":1152,
			"byteOffset":0,
			"target":34962
		},
		{
			"buffer":0,
			"byteLength":1152,
			"byteOffset":1152,
			"target":34962
		},
		{
			"buffer":0,
			"byteLength":768,
			"byteOffset":2304,
			"target":34962
		},
		{
			"buffer":0,
			"byteLength":288,
			"byteOffset":3072,
			"target":34963
		},
		{
			"buffer":0,
			"byteLength":51360,
			"byteOffset":3360,
			"target":34962
		},
		{
			"buffer":0,
			"byteLength":51360,
			"byteOffset":54720,
			"target":34962
		},
		{
			"buffer":0,
			"byteLength":34240,
			"byteOffset":106080,
			"target":34962
		},
		{
			"buffer":0,
			"byteLength":13650,
			"byteOffset":140320,
			"target":34963
		},
		{
			"buffer":0,
			"byteLength":23748,
			"byteOffset":153972,
			"target":34962
		},
		{
			"buffer":0,
			"byteLength":23748,
			"byteOffset":177720,
			"target":34962
		},
		{
			"buffer":0,
			"byteLength":15832,
			"byteOffset":201468,
			"target":34962
		},
		{
			"buffer":0,
			"byteLength":8076,
			"byteOffset":217300,
			"target":34963
		},
		{
			"buffer":0,
			"byteLength":20424,
			"byteOffset":225376,
			"target":34962
		},
		{
			"buffer":0,
			"byteLength":20424,
			"byteOffset":245800,
			"target":34962
		},
		{
			"buffer":0,
			"byteLength":13616,
			"byteOffset":266224,
			"target":34962
		},
		{
			"buffer":0,
			"byteLength":4980,
			"byteOffset":279840,
			"target":34963
		}
	],
	"buffers":[
		{
			"byteLength":284820,
			"uri":"column_1.bin"
		}
	]
}
