{
	"asset":{
		"generator":"Khronos glTF Blender I/O v5.1.20",
		"version":"2.0"
	},
	"scene":0,
	"scenes":[
		{
			"name":"Scene",
			"nodes":[
				0
			]
		}
	],
	"nodes":[
		{
			"mesh":0,
			"name":"military_crate"
		}
	],
	"materials":[
		{
			"doubleSided":true,
			"name":"military_crate_m_01",
			"normalTexture":{
				"index":0
			},
			"pbrMetallicRoughness":{
				"baseColorTexture":{
					"index":1
				},
				"metallicRoughnessTexture":{
					"index":2
				}
			}
		}
	],
	"meshes":[
		{
			"name":"Mesh.001",
			"primitives":[
				{
					"attributes":{
						"POSITION":0,
						"NORMAL":1,
						"TEXCOORD_0":2
					},
					"indices":3,
					"material":0
				}
			]
		}
	],
	"textures":[
		{
			"sampler":0,
			"source":0
		},
		{
			"sampler":0,
			"source":1
		},
		{
			"sampler":0,
			"source":2
		}
	],
	"images":[
		{
			"mimeType":"image/jpeg",
			"name":"old_military_crate_nor_gl",
			"uri":"old_military_crate_nor_gl.jpg"
		},
		{
			"mimeType":"image/jpeg",
			"name":"old_military_crate_diff_1k",
			"uri":"old_military_crate_diff_1k.jpg"
		},
		{
			"mimeType":"image/jpeg",
			"name":"old_military_crate_metal-old_military_crate_rough",
			"uri":"old_military_crate_metal-old_military_crate_rough.jpg"
		}
	],
	"accessors":[
		{
			"bufferView":0,
			"componentType":5126,
			"count":16628,
			"max":[
				0.9076928496360779,
				0.3009328246116638,
				0.4878571927547455
			],
			"min":[
				-0.9076928496360779,
				0,
				-0.4878571927547455
			],
			"type":"VEC3"
		},
		{
			"bufferView":1,
			"componentType":5126,
			"count":16628,
			"type":"VEC3"
		},
		{
			"bufferView":2,
			"componentType":5126,
			"count":16628,
			"type":"VEC2"
		},
		{
			"bufferView":3,
			"componentType":5123,
			"count":62856,
			"type":"SCALAR"
		}
	],
	"bufferViews":[
		{
			"buffer":0,
			"byteLength":199536,
			"byteOffset":0,
			"target":34962
		},
		{
			"buffer":0,
			"byteLength":199536,
			"byteOffset":199536,
			"target":34962
		},
		{
			"buffer":0,
			"byteLength":133024,
			"byteOffset":399072,
			"target":34962
		},
		{
			"buffer":0,
			"byteLength":125712,
			"byteOffset":532096,
			"target":34963
		}
	],
	"samplers":[
		{
			"magFilter":9729,
			"minFilter":9987
		}
	],
	"buffers":[
		{
			"byteLength":657808,
			"uri":"military_crate.bin"
		}
	]
}
