{
	"asset":{
		"generator":"Khronos glTF Blender I/O v5.1.20",
		"version":"2.0"
	},
	"scene":0,
	"scenes":[
		{
			"name":"Scene",
			"nodes":[
				0
			]
		}
	],
	"nodes":[
		{
			"mesh":0,
			"name":"column_3"
		}
	],
	"materials":[
		{
			"doubleSided":true,
			"name":"Ciment_Bris\u00e92",
			"pbrMetallicRoughness":{
				"metallicFactor":0,
				"roughnessFactor":0.5527864098548889
			}
		},
		{
			"doubleSided":true,
			"name":"Ciment_Bris\u00e93",
			"pbrMetallicRoughness":{
				"metallicFactor":0,
				"roughnessFactor":0.5527864098548889
			}
		},
		{
			"doubleSided":true,
			"name":"Ciment_Bris\u00e9",
			"pbrMetallicRoughness":{
				"metallicFactor":0,
				"roughnessFactor":0.5527864098548889
			}
		},
		{
			"doubleSided":true,
			"name":"M\u00e9tal_Rouill\u00e9",
			"pbrMetallicRoughness":{
				"baseColorFactor":[
					0.5764706134796143,
					0.47843137383461,
					0.3843137323856354,
					1
				],
				"metallicFactor":0,
				"roughnessFactor":0.5527864098548889
			}
		}
	],
	"meshes":[
		{
			"name":"Mesh.061",
			"primitives":[
				{
					"attributes":{
						"POSITION":0,
						"NORMAL":1,
						"TEXCOORD_0":2
					},
					"indices":3,
					"material":0
				},
				{
					"attributes":{
						"POSITION":4,
						"NORMAL":5,
						"TEXCOORD_0":6
					},
					"indices":7,
					"material":1
				},
				{
					"attributes":{
						"POSITION":8,
						"NORMAL":9,
						"TEXCOORD_0":10
					},
					"indices":11,
					"material":2
				},
				{
					"attributes":{
						"POSITION":12,
						"NORMAL":13,
						"TEXCOORD_0":14
					},
					"indices":15,
					"material":3
				}
			]
		}
	],
	"accessors":[
		{
			"bufferView":0,
			"componentType":5126,
			"count":288,
			"max":[
				1.0111007690429688,
				5.494491100311279,
				0.7405804991722107
			],
			"min":[
				-1.4548377990722656,
				0.04692345857620239,
				-0.8508142828941345
			],
			"type":"VEC3"
		},
		{
			"bufferView":1,
			"componentType":5126,
			"count":288,
			"type":"VEC3"
		},
		{
			"bufferView":2,
			"componentType":5126,
			"count":288,
			"type":"VEC2"
		},
		{
			"bufferView":3,
			"componentType":5123,
			"count":432,
			"type":"SCALAR"
		},
		{
			"bufferView":4,
			"componentType":5126,
			"count":4299,
			"max":[
				1.3459434509277344,
				4.734857082366943,
				1.1282219886779785
			],
			"min":[
				-0.8541796207427979,
				0,
				-1.2964789867401123
			],
			"type":"VEC3"
		},
		{
			"bufferView":5,
			"componentType":5126,
			"count":4299,
			"type":"VEC3"
		},
		{
			"bufferView":6,
			"componentType":5126,
			"count":4299,
			"type":"VEC2"
		},
		{
			"bufferView":7,
			"componentType":5123,
			"count":6825,
			"type":"SCALAR"
		},
		{
			"bufferView":8,
			"componentType":5126,
			"count":1987,
			"max":[
				1.4548377990722656,
				5.5612030029296875,
				1.38155198097229
			],
			"min":[
				-1.176163673400879,
				0.021923385560512543,
				-1.38155198097229
			],
			"type":"VEC3"
		},
		{
			"bufferView":9,
			"componentType":5126,
			"count":1987,
			"type":"VEC3"
		},
		{
			"bufferView":10,
			"componentType":5126,
			"count":1987,
			"type":"VEC2"
		},
		{
			"bufferView":11,
			"componentType":5123,
			"count":4062,
			"type":"SCALAR"
		},
		{
			"bufferView":12,
			"componentType":5126,
			"count":1842,
			"max":[
				1.3076343536376953,
				4.948098182678223,
				0.9864019751548767
			],
			"min":[
				-1.039933204650879,
				0.03826316446065903,
				-0.9942297339439392
			],
			"type":"VEC3"
		},
		{
			"bufferView":13,
			"componentType":5126,
			"count":1842,
			"type":"VEC3"
		},
		{
			"bufferView":14,
			"componentType":5126,
			"count":1842,
			"type":"VEC2"
		},
		{
			"bufferView":15,
			"componentType":5123,
			"count":2718,
			"type":"SCALAR"
		}
	],
	"bufferViews":[
		{
			"buffer":0,
			"byteLength":3456,
			"byteOffset":0,
			"target":34962
		},
		{
			"buffer":0,
			"byteLength":3456,
			"byteOffset":3456,
			"target":34962
		},
		{
			"buffer":0,
			"byteLength":2304,
			"byteOffset":6912,
			"target":34962
		},
		{
			"buffer":0,
			"byteLength":864,
			"byteOffset":9216,
			"target":34963
		},
		{
			"buffer":0,
			"byteLength":51588,
			"byteOffset":10080,
			"target":34962
		},
		{
			"buffer":0,
			"byteLength":51588,
			"byteOffset":61668,
			"target":34962
		},
		{
			"buffer":0,
			"byteLength":34392,
			"byteOffset":113256,
			"target":34962
		},
		{
			"buffer":0,
			"byteLength":13650,
			"byteOffset":147648,
			"target":34963
		},
		{
			"buffer":0,
			"byteLength":23844,
			"byteOffset":161300,
			"target":34962
		},
		{
			"buffer":0,
			"byteLength":23844,
			"byteOffset":185144,
			"target":34962
		},
		{
			"buffer":0,
			"byteLength":15896,
			"byteOffset":208988,
			"target":34962
		},
		{
			"buffer":0,
			"byteLength":8124,
			"byteOffset":224884,
			"target":34963
		},
		{
			"buffer":0,
			"byteLength":22104,
			"byteOffset":233008,
			"target":34962
		},
		{
			"buffer":0,
			"byteLength":22104,
			"byteOffset":255112,
			"target":34962
		},
		{
			"buffer":0,
			"byteLength":14736,
			"byteOffset":277216,
			"target":34962
		},
		{
			"buffer":0,
			"byteLength":5436,
			"byteOffset":291952,
			"target":34963
		}
	],
	"buffers":[
		{
			"byteLength":297388,
			"uri":"column_3.bin"
		}
	]
}
