{
	"asset":{
		"generator":"Khronos glTF Blender I/O v5.1.20",
		"version":"2.0"
	},
	"extensionsUsed":[
		"KHR_materials_specular",
		"KHR_materials_ior"
	],
	"scene":0,
	"scenes":[
		{
			"name":"Scene",
			"nodes":[
				0
			]
		}
	],
	"nodes":[
		{
			"mesh":0,
			"name":"wheelchair"
		}
	],
	"materials":[
		{
			"doubleSided":true,
			"extensions":{
				"KHR_materials_specular":{
					"specularColorFactor":[
						2.0,
						2.0,
						2.0
					]
				},
				"KHR_materials_ior":{
					"ior":1.4500000476837158
				}
			},
			"name":"lambert1",
			"normalTexture":{
				"index":0
			},
			"pbrMetallicRoughness":{
				"baseColorTexture":{
					"index":1
				},
				"metallicRoughnessTexture":{
					"index":2
				}
			}
		}
	],
	"meshes":[
		{
			"name":"BakeGroup1_Low.001",
			"primitives":[
				{
					"attributes":{
						"POSITION":0,
						"NORMAL":1,
						"TEXCOORD_0":2
					},
					"indices":3,
					"material":0
				}
			]
		}
	],
	"textures":[
		{
			"sampler":0,
			"source":0
		},
		{
			"sampler":0,
			"source":1
		},
		{
			"sampler":0,
			"source":2
		}
	],
	"images":[
		{
			"mimeType":"image/jpeg",
			"name":"wheelchair_01_nor_gl",
			"uri":"wheelchair_01_nor_gl.jpg"
		},
		{
			"mimeType":"image/jpeg",
			"name":"wheelchair_01_diff_1k",
			"uri":"wheelchair_01_diff_1k.jpg"
		},
		{
			"mimeType":"image/jpeg",
			"name":"wheelchair_01_metal.png-wheelchair_01_rough.png",
			"uri":"wheelchair_01_metal.png-wheelchair_01_rough.png.jpg"
		}
	],
	"accessors":[
		{
			"bufferView":0,
			"componentType":5126,
			"count":29401,
			"max":[
				0.4120454788208008,
				1.103501558303833,
				0.5454334616661072
			],
			"min":[
				-0.4120454788208008,
				0,
				-0.5454334616661072
			],
			"type":"VEC3"
		},
		{
			"bufferView":1,
			"componentType":5126,
			"count":29401,
			"type":"VEC3"
		},
		{
			"bufferView":2,
			"componentType":5126,
			"count":29401,
			"type":"VEC2"
		},
		{
			"bufferView":3,
			"componentType":5123,
			"count":120756,
			"type":"SCALAR"
		}
	],
	"bufferViews":[
		{
			"buffer":0,
			"byteLength":352812,
			"byteOffset":0,
			"target":34962
		},
		{
			"buffer":0,
			"byteLength":352812,
			"byteOffset":352812,
			"target":34962
		},
		{
			"buffer":0,
			"byteLength":235208,
			"byteOffset":705624,
			"target":34962
		},
		{
			"buffer":0,
			"byteLength":241512,
			"byteOffset":940832,
			"target":34963
		}
	],
	"samplers":[
		{
			"magFilter":9729,
			"minFilter":9987
		}
	],
	"buffers":[
		{
			"byteLength":1182344,
			"uri":"wheelchair.bin"
		}
	]
}
