{
	"asset":{
		"generator":"Khronos glTF Blender I/O v5.1.20",
		"version":"2.0"
	},
	"scene":0,
	"scenes":[
		{
			"name":"Scene",
			"nodes":[
				0
			]
		}
	],
	"nodes":[
		{
			"mesh":0,
			"name":"moss_rock_01"
		}
	],
	"materials":[
		{
			"doubleSided":true,
			"name":"rock_moss_set_01",
			"normalTexture":{
				"index":0
			},
			"pbrMetallicRoughness":{
				"baseColorTexture":{
					"index":1
				},
				"metallicFactor":0,
				"metallicRoughnessTexture":{
					"index":2
				}
			}
		}
	],
	"meshes":[
		{
			"name":"modelShape.001",
			"primitives":[
				{
					"attributes":{
						"POSITION":0,
						"NORMAL":1,
						"TEXCOORD_0":2
					},
					"indices":3,
					"material":0
				}
			]
		}
	],
	"textures":[
		{
			"sampler":0,
			"source":0
		},
		{
			"sampler":0,
			"source":1
		},
		{
			"sampler":0,
			"source":2
		}
	],
	"images":[
		{
			"mimeType":"image/jpeg",
			"name":"rock_moss_set_01_nor_gl",
			"uri":"rock_moss_set_01_nor_gl.jpg"
		},
		{
			"mimeType":"image/jpeg",
			"name":"rock_moss_set_01_diff_1k",
			"uri":"rock_moss_set_01_diff_1k.jpg"
		},
		{
			"mimeType":"image/jpeg",
			"name":"rock_moss_set_01_rough_1k",
			"uri":"rock_moss_set_01_rough_1k.jpg"
		}
	],
	"accessors":[
		{
			"bufferView":0,
			"componentType":5126,
			"count":6078,
			"max":[
				1.1188161373138428,
				1.4726980924606323,
				1.6844021081924438
			],
			"min":[
				-1.1188161373138428,
				0,
				-1.6844022274017334
			],
			"type":"VEC3"
		},
		{
			"bufferView":1,
			"componentType":5126,
			"count":6078,
			"type":"VEC3"
		},
		{
			"bufferView":2,
			"componentType":5126,
			"count":6078,
			"type":"VEC2"
		},
		{
			"bufferView":3,
			"componentType":5123,
			"count":33000,
			"type":"SCALAR"
		}
	],
	"bufferViews":[
		{
			"buffer":0,
			"byteLength":72936,
			"byteOffset":0,
			"target":34962
		},
		{
			"buffer":0,
			"byteLength":72936,
			"byteOffset":72936,
			"target":34962
		},
		{
			"buffer":0,
			"byteLength":48624,
			"byteOffset":145872,
			"target":34962
		},
		{
			"buffer":0,
			"byteLength":66000,
			"byteOffset":194496,
			"target":34963
		}
	],
	"samplers":[
		{
			"magFilter":9729,
			"minFilter":9987
		}
	],
	"buffers":[
		{
			"byteLength":260496,
			"uri":"moss_rock_01.bin"
		}
	]
}
