{
	"asset":{
		"generator":"Khronos glTF Blender I/O v5.1.20",
		"version":"2.0"
	},
	"scene":0,
	"scenes":[
		{
			"name":"Scene",
			"nodes":[
				0
			]
		}
	],
	"nodes":[
		{
			"mesh":0,
			"name":"utility_box_02.001"
		}
	],
	"materials":[
		{
			"doubleSided":true,
			"name":"utility_box_02",
			"normalTexture":{
				"index":0
			},
			"pbrMetallicRoughness":{
				"baseColorTexture":{
					"index":1
				},
				"metallicRoughnessTexture":{
					"index":2
				}
			}
		}
	],
	"meshes":[
		{
			"name":"Cube.001",
			"primitives":[
				{
					"attributes":{
						"POSITION":0,
						"NORMAL":1,
						"TEXCOORD_0":2
					},
					"indices":3,
					"material":0
				}
			]
		}
	],
	"textures":[
		{
			"sampler":0,
			"source":0
		},
		{
			"sampler":0,
			"source":1
		},
		{
			"sampler":0,
			"source":2
		}
	],
	"images":[
		{
			"mimeType":"image/jpeg",
			"name":"utility_box_02_nor_gl",
			"uri":"utility_box_02_nor_gl.jpg"
		},
		{
			"mimeType":"image/jpeg",
			"name":"utility_box_02_diff_1k",
			"uri":"utility_box_02_diff_1k.jpg"
		},
		{
			"mimeType":"image/jpeg",
			"name":"utility_box_02_metal-utility_box_02_rough",
			"uri":"utility_box_02_metal-utility_box_02_rough.jpg"
		}
	],
	"accessors":[
		{
			"bufferView":0,
			"componentType":5126,
			"count":5068,
			"max":[
				0.46000009775161743,
				1.1203334331512451,
				0.21599999070167542
			],
			"min":[
				-0.46000009775161743,
				0,
				-0.21599999070167542
			],
			"type":"VEC3"
		},
		{
			"bufferView":1,
			"componentType":5126,
			"count":5068,
			"type":"VEC3"
		},
		{
			"bufferView":2,
			"componentType":5126,
			"count":5068,
			"type":"VEC2"
		},
		{
			"bufferView":3,
			"componentType":5123,
			"count":18804,
			"type":"SCALAR"
		}
	],
	"bufferViews":[
		{
			"buffer":0,
			"byteLength":60816,
			"byteOffset":0,
			"target":34962
		},
		{
			"buffer":0,
			"byteLength":60816,
			"byteOffset":60816,
			"target":34962
		},
		{
			"buffer":0,
			"byteLength":40544,
			"byteOffset":121632,
			"target":34962
		},
		{
			"buffer":0,
			"byteLength":37608,
			"byteOffset":162176,
			"target":34963
		}
	],
	"samplers":[
		{
			"magFilter":9729,
			"minFilter":9987
		}
	],
	"buffers":[
		{
			"byteLength":199784,
			"uri":"utility_box_02.bin"
		}
	]
}
