{
	"asset":{
		"generator":"Khronos glTF Blender I/O v5.1.20",
		"version":"2.0"
	},
	"scene":0,
	"scenes":[
		{
			"name":"Scene",
			"nodes":[
				0
			]
		}
	],
	"nodes":[
		{
			"mesh":0,
			"name":"military_compressor"
		}
	],
	"materials":[
		{
			"doubleSided":true,
			"name":"old_military_compressor",
			"normalTexture":{
				"index":0
			},
			"pbrMetallicRoughness":{
				"baseColorTexture":{
					"index":1
				},
				"metallicRoughnessTexture":{
					"index":2
				}
			}
		},
		{
			"alphaMode":"BLEND",
			"doubleSided":true,
			"name":"old_military_compressor_glass",
			"normalTexture":{
				"index":3
			},
			"pbrMetallicRoughness":{
				"baseColorTexture":{
					"index":4
				},
				"metallicRoughnessTexture":{
					"index":5
				}
			}
		}
	],
	"meshes":[
		{
			"name":"compressor_low.001",
			"primitives":[
				{
					"attributes":{
						"POSITION":0,
						"NORMAL":1,
						"TEXCOORD_0":2
					},
					"indices":3,
					"material":0
				},
				{
					"attributes":{
						"POSITION":4,
						"NORMAL":5,
						"TEXCOORD_0":6
					},
					"indices":7,
					"material":1
				}
			]
		}
	],
	"textures":[
		{
			"sampler":0,
			"source":0
		},
		{
			"sampler":0,
			"source":1
		},
		{
			"sampler":0,
			"source":2
		},
		{
			"sampler":0,
			"source":0
		},
		{
			"sampler":0,
			"source":3
		},
		{
			"sampler":0,
			"source":2
		}
	],
	"images":[
		{
			"mimeType":"image/jpeg",
			"name":"old_military_compressor_nor_gl",
			"uri":"old_military_compressor_nor_gl.jpg"
		},
		{
			"mimeType":"image/jpeg",
			"name":"old_military_compressor_diff_1k",
			"uri":"old_military_compressor_diff_1k.jpg"
		},
		{
			"mimeType":"image/jpeg",
			"name":"old_military_compressor_metal-old_military_compressor_rough",
			"uri":"old_military_compressor_metal-old_military_compressor_rough.jpg"
		},
		{
			"mimeType":"image/png",
			"name":"old_military_compressor_diff-old_military_compressor_alpha",
			"uri":"old_military_compressor_diff-old_military_compressor_alpha.png"
		}
	],
	"accessors":[
		{
			"bufferView":0,
			"componentType":5126,
			"count":58168,
			"max":[
				0.2991413176059723,
				1.1790863275527954,
				0.8377721309661865
			],
			"min":[
				-0.2991413176059723,
				0,
				-0.8377721309661865
			],
			"type":"VEC3"
		},
		{
			"bufferView":1,
			"componentType":5126,
			"count":58168,
			"type":"VEC3"
		},
		{
			"bufferView":2,
			"componentType":5126,
			"count":58168,
			"type":"VEC2"
		},
		{
			"bufferView":3,
			"componentType":5123,
			"count":236358,
			"type":"SCALAR"
		},
		{
			"bufferView":4,
			"componentType":5126,
			"count":170,
			"max":[
				0.03669765591621399,
				0.8751575350761414,
				0.5796654224395752
			],
			"min":[
				0.01092800498008728,
				0.8532586097717285,
				0.5538959503173828
			],
			"type":"VEC3"
		},
		{
			"bufferView":5,
			"componentType":5126,
			"count":170,
			"type":"VEC3"
		},
		{
			"bufferView":6,
			"componentType":5126,
			"count":170,
			"type":"VEC2"
		},
		{
			"bufferView":7,
			"componentType":5123,
			"count":768,
			"type":"SCALAR"
		}
	],
	"bufferViews":[
		{
			"buffer":0,
			"byteLength":698016,
			"byteOffset":0,
			"target":34962
		},
		{
			"buffer":0,
			"byteLength":698016,
			"byteOffset":698016,
			"target":34962
		},
		{
			"buffer":0,
			"byteLength":465344,
			"byteOffset":1396032,
			"target":34962
		},
		{
			"buffer":0,
			"byteLength":472716,
			"byteOffset":1861376,
			"target":34963
		},
		{
			"buffer":0,
			"byteLength":2040,
			"byteOffset":2334092,
			"target":34962
		},
		{
			"buffer":0,
			"byteLength":2040,
			"byteOffset":2336132,
			"target":34962
		},
		{
			"buffer":0,
			"byteLength":1360,
			"byteOffset":2338172,
			"target":34962
		},
		{
			"buffer":0,
			"byteLength":1536,
			"byteOffset":2339532,
			"target":34963
		}
	],
	"samplers":[
		{
			"magFilter":9729,
			"minFilter":9987
		}
	],
	"buffers":[
		{
			"byteLength":2341068,
			"uri":"military_compressor.bin"
		}
	]
}
