{
	"asset":{
		"generator":"Khronos glTF Blender I/O v5.1.20",
		"version":"2.0"
	},
	"scene":0,
	"scenes":[
		{
			"name":"Scene",
			"nodes":[
				0
			]
		}
	],
	"nodes":[
		{
			"mesh":0,
			"name":"debris"
		}
	],
	"materials":[
		{
			"doubleSided":true,
			"name":"Ciment_Bris\u00e9",
			"pbrMetallicRoughness":{
				"metallicFactor":0,
				"roughnessFactor":0.5527864098548889
			}
		},
		{
			"doubleSided":true,
			"name":"M\u00e9tal_Rouill\u00e9",
			"pbrMetallicRoughness":{
				"baseColorFactor":[
					0.5764706134796143,
					0.47843137383461,
					0.3843137323856354,
					1
				],
				"metallicFactor":0,
				"roughnessFactor":0.5527864098548889
			}
		},
		{
			"doubleSided":true,
			"name":"Ciment_Bris\u00e92",
			"pbrMetallicRoughness":{
				"metallicFactor":0,
				"roughnessFactor":0.5527864098548889
			}
		}
	],
	"meshes":[
		{
			"name":"Mesh.061",
			"primitives":[
				{
					"attributes":{
						"POSITION":0,
						"NORMAL":1,
						"TEXCOORD_0":2
					},
					"indices":3,
					"material":0
				},
				{
					"attributes":{
						"POSITION":4,
						"NORMAL":5,
						"TEXCOORD_0":6
					},
					"indices":7,
					"material":1
				},
				{
					"attributes":{
						"POSITION":8,
						"NORMAL":9,
						"TEXCOORD_0":10
					},
					"indices":11,
					"material":2
				}
			]
		}
	],
	"accessors":[
		{
			"bufferView":0,
			"componentType":5126,
			"count":264,
			"max":[
				1.6646840572357178,
				0.6093628406524658,
				1.0179946422576904
			],
			"min":[
				-0.16817545890808105,
				0,
				-1.01799476146698
			],
			"type":"VEC3"
		},
		{
			"bufferView":1,
			"componentType":5126,
			"count":264,
			"type":"VEC3"
		},
		{
			"bufferView":2,
			"componentType":5126,
			"count":264,
			"type":"VEC2"
		},
		{
			"bufferView":3,
			"componentType":5123,
			"count":612,
			"type":"SCALAR"
		},
		{
			"bufferView":4,
			"componentType":5126,
			"count":192,
			"max":[
				0.8702242374420166,
				0.5407692790031433,
				0.6876685619354248
			],
			"min":[
				0.5716716051101685,
				0.41319602727890015,
				-0.5399024486541748
			],
			"type":"VEC3"
		},
		{
			"bufferView":5,
			"componentType":5126,
			"count":192,
			"type":"VEC3"
		},
		{
			"bufferView":6,
			"componentType":5126,
			"count":192,
			"type":"VEC2"
		},
		{
			"bufferView":7,
			"componentType":5123,
			"count":288,
			"type":"SCALAR"
		},
		{
			"bufferView":8,
			"componentType":5126,
			"count":482,
			"max":[
				-1.0294413566589355,
				1.8150739669799805,
				-0.6265870332717896
			],
			"min":[
				-1.6646838188171387,
				0.03901826590299606,
				-0.835111141204834
			],
			"type":"VEC3"
		},
		{
			"bufferView":9,
			"componentType":5126,
			"count":482,
			"type":"VEC3"
		},
		{
			"bufferView":10,
			"componentType":5126,
			"count":482,
			"type":"VEC2"
		},
		{
			"bufferView":11,
			"componentType":5123,
			"count":804,
			"type":"SCALAR"
		}
	],
	"bufferViews":[
		{
			"buffer":0,
			"byteLength":3168,
			"byteOffset":0,
			"target":34962
		},
		{
			"buffer":0,
			"byteLength":3168,
			"byteOffset":3168,
			"target":34962
		},
		{
			"buffer":0,
			"byteLength":2112,
			"byteOffset":6336,
			"target":34962
		},
		{
			"buffer":0,
			"byteLength":1224,
			"byteOffset":8448,
			"target":34963
		},
		{
			"buffer":0,
			"byteLength":2304,
			"byteOffset":9672,
			"target":34962
		},
		{
			"buffer":0,
			"byteLength":2304,
			"byteOffset":11976,
			"target":34962
		},
		{
			"buffer":0,
			"byteLength":1536,
			"byteOffset":14280,
			"target":34962
		},
		{
			"buffer":0,
			"byteLength":576,
			"byteOffset":15816,
			"target":34963
		},
		{
			"buffer":0,
			"byteLength":5784,
			"byteOffset":16392,
			"target":34962
		},
		{
			"buffer":0,
			"byteLength":5784,
			"byteOffset":22176,
			"target":34962
		},
		{
			"buffer":0,
			"byteLength":3856,
			"byteOffset":27960,
			"target":34962
		},
		{
			"buffer":0,
			"byteLength":1608,
			"byteOffset":31816,
			"target":34963
		}
	],
	"buffers":[
		{
			"byteLength":33424,
			"uri":"debris.bin"
		}
	]
}
