{
	"asset":{
		"generator":"Khronos glTF Blender I/O v5.1.20",
		"version":"2.0"
	},
	"scene":0,
	"scenes":[
		{
			"name":"Scene",
			"nodes":[
				0
			]
		}
	],
	"nodes":[
		{
			"mesh":0,
			"name":"tyre"
		}
	],
	"materials":[
		{
			"doubleSided":true,
			"name":"tire_r13_01",
			"normalTexture":{
				"index":0
			},
			"pbrMetallicRoughness":{
				"baseColorTexture":{
					"index":1
				},
				"metallicFactor":0,
				"metallicRoughnessTexture":{
					"index":2
				}
			}
		}
	],
	"meshes":[
		{
			"name":"tire_lo.001",
			"primitives":[
				{
					"attributes":{
						"POSITION":0,
						"NORMAL":1,
						"TEXCOORD_0":2
					},
					"indices":3,
					"material":0
				}
			]
		}
	],
	"textures":[
		{
			"sampler":0,
			"source":0
		},
		{
			"sampler":0,
			"source":1
		},
		{
			"sampler":0,
			"source":2
		}
	],
	"images":[
		{
			"mimeType":"image/jpeg",
			"name":"old_tyre_nor_gl",
			"uri":"old_tyre_nor_gl.jpg"
		},
		{
			"mimeType":"image/jpeg",
			"name":"old_tyre_diff_1k",
			"uri":"old_tyre_diff_1k.jpg"
		},
		{
			"mimeType":"image/jpeg",
			"name":"old_tyre_rough",
			"uri":"old_tyre_rough.jpg"
		}
	],
	"accessors":[
		{
			"bufferView":0,
			"componentType":5126,
			"count":2090,
			"max":[
				0.30000001192092896,
				0.6000000238418579,
				0.08249999582767487
			],
			"min":[
				-0.30000001192092896,
				0,
				-0.08249999582767487
			],
			"type":"VEC3"
		},
		{
			"bufferView":1,
			"componentType":5126,
			"count":2090,
			"type":"VEC3"
		},
		{
			"bufferView":2,
			"componentType":5126,
			"count":2090,
			"type":"VEC2"
		},
		{
			"bufferView":3,
			"componentType":5123,
			"count":8640,
			"type":"SCALAR"
		}
	],
	"bufferViews":[
		{
			"buffer":0,
			"byteLength":25080,
			"byteOffset":0,
			"target":34962
		},
		{
			"buffer":0,
			"byteLength":25080,
			"byteOffset":25080,
			"target":34962
		},
		{
			"buffer":0,
			"byteLength":16720,
			"byteOffset":50160,
			"target":34962
		},
		{
			"buffer":0,
			"byteLength":17280,
			"byteOffset":66880,
			"target":34963
		}
	],
	"samplers":[
		{
			"magFilter":9729,
			"minFilter":9987
		}
	],
	"buffers":[
		{
			"byteLength":84160,
			"uri":"tyre.bin"
		}
	]
}
